<svg width="119" height="106" viewBox="0 0 119 106" fill="none" xmlns="http://www.w3.org/2000/svg">
<path d="M41 60.9443C40.4119 60.9443 39.545 61.1149 39.0003 60.8588C38.3611 60.5583 37.7082 60.3063 37.0707 60.0036C35.4455 59.2318 34.2214 57.5964 33.0128 56.2771C32.1676 55.3546 31.6838 54.3016 31.2118 53.1921C30.6868 51.958 30.2325 50.6446 30.0775 49.2885C29.918 47.8933 30.0541 46.4075 30.0541 45" stroke="white" stroke-linecap="round"/>
<path d="M40.9632 58C40.9632 58.4546 41.0492 59.0313 40.9583 59.4762C40.8984 59.7691 40.2219 59.9196 40 60" stroke="white" stroke-linecap="round"/>
<path d="M30 45.2351C30 42.2156 32.4762 40.0868 34.5303 38.3799C35.7547 37.3625 36.8143 36.0402 37.9432 34.8341C38.6442 34.0852 39.3072 33.3027 40.0784 32.6357C40.667 32.1267 41.1968 31.5282 41.7766 31.0046C42.1867 30.6342 42.6345 30.0452 43.2203 30.0236C43.89 29.999 44.5637 30.0236 45.2338 30.0236C47.7408 30.0236 50.6492 29.6068 52.0541 32.2752C52.802 33.6957 53 35.3138 53 36.9379C53 37.9331 52.8248 39.2949 51.9048 39.7864C50.8889 40.329 49.4738 40.7464 48.3369 40.8679C47.147 40.995 45.8676 41.3462 44.7359 41.778C44.082 42.0275 43.3287 42.2278 42.7446 42.6289C42.036 43.1156 40.8528 44.0432 40.8528 45.0224C40.8528 46.0201 41.1765 46.6919 41.8264 47.3862C42.17 47.7534 42.6785 48.5188 42.8442 49.0055C43.0373 49.573 43.2424 49.8804 43.2424 50.5006C43.2424 51.6696 42.5593 52.5849 41.594 53.0536C40.67 53.5023 38.919 53.2981 38.7619 54.8088C38.7252 55.1619 38.574 55.1884 38.8615 55.447C39.0359 55.604 39.3505 55.5847 39.5584 55.6834C39.842 55.818 40.7083 56.1267 40.7532 56.5108C40.8095 56.9918 40.9524 57.4628 40.9524 58" stroke="white" stroke-linecap="round"/>
<path d="M48.9437 41C49.3201 41.0473 49.7501 41.6116 50.0552 41.8547C50.4869 42.1986 50.9737 42.5502 51.345 42.9706C51.7914 43.476 52.3273 44.0217 52.792 44.4425C53.5733 45.1501 53.968 46.2796 54.3754 47.2678C54.638 47.9048 55.5898 50.0301 54.4593 50.3958C54.0898 50.5153 53.6482 50.6172 53.2849 50.8291C52.8072 51.1077 53.2267 51.69 53.4002 52.0043C53.5593 52.2923 53.9631 52.5584 54.1814 52.8056C54.5299 53.2001 54.5559 53.6788 54.7005 54.2004C55.0849 55.5875 54.7717 57.0728 53.7096 57.8744C53.0161 58.3978 52.2632 58.8087 51.5652 59.3167C50.7937 59.8782 50.3117 60.809 49.704 61.5544C49.3863 61.9439 49.2636 62.4916 49.0014 62.9255C48.6938 63.4345 48.2831 64.2941 48.2831 64.9316C48.2831 65.1493 48.1393 65.9212 48 66" stroke="white" stroke-linecap="round"/>
<path d="M41 66.0205C41.9611 66.0205 42.9769 65.923 43.9139 66.1534C44.5131 66.3006 45.2796 66.5304 45.8912 66.5641C46.8751 66.6182 47.932 66.7248 48.9092 66.7815C49.297 66.804 49.9265 67.4289 49.9499 67.8687C49.987 68.5667 50.105 68.8598 49.7649 69.4995C49.2403 70.4858 48.4024 71.0835 47.7644 72" stroke="white" stroke-linecap="round"/>
<path d="M49 71C49.6959 71 50.1322 71.5708 50.6842 71.9136C51.1377 72.1952 51.6206 72.655 52 73.0556C52.5513 73.6375 53.1838 74.1552 53.7895 74.6667C54.2564 75.061 54.5785 75.5551 55 76" stroke="white" stroke-linecap="round"/>
<path d="M48 43C46.7738 43 45.5723 43.5586 45 45" stroke="white" stroke-linecap="round"/>
<path d="M50 45C48.4022 45 47.9851 45.5403 47 46" stroke="white" stroke-linecap="round"/>
<path d="M52 55C51.3584 55 50.6532 54.9938 50.0645 54.7685C49.493 54.5498 49.282 54.4856 49 54" stroke="white" stroke-linecap="round"/>
<path d="M55 62C55.0875 61.325 56.6184 60.6542 57 60" stroke="white" stroke-linecap="round"/>
<path d="M61 58C61.05 57.5502 61.9065 57.0935 62.2169 56.7831C62.4757 56.5243 62.739 56.261 63 56" stroke="white" stroke-linecap="round"/>
<path d="M65 54C65.4032 53.5813 65.6148 52.4333 66 52" stroke="white" stroke-linecap="round"/>
<path d="M69 50C69.4198 49.8863 69.665 48.363 70 48" stroke="white" stroke-linecap="round"/>
<path d="M61 72C61.2559 71.3302 61.7282 70.7909 61.8778 70.057C62.0139 69.3896 62.1317 68.7167 62.2778 68.0548C62.4894 67.0959 62.5 66.0798 62.5 65.081C62.5 64.7319 62.7563 62.3452 63.3778 63.1736C63.5211 63.3646 63.5146 63.6738 63.7 63.8963C63.861 64.0894 64 64.393 64 64.6427" stroke="white" stroke-linecap="round"/>
<path d="M64 65C64.404 64.0791 65.2087 63.2023 65.7995 62.359C66.9184 60.762 68.5645 59.9319 70.3215 59.0577C70.4403 58.9986 71.0625 58.934 70.9949 59.1461C70.9263 59.3612 70.6621 59.5448 70.5305 59.7543C70.132 60.3888 69.3764 60.9335 68.8064 61.444" stroke="white" stroke-linecap="round"/>
<path d="M67.0029 66C66.9328 65.3692 68.1485 63.9309 68.5727 63.4035C68.9498 62.9347 69.2869 62.4151 69.7681 62.0994C70.1742 61.833 70.5771 61.2028 71.066 61.1243C71.325 61.0827 71.7663 60.8568 71.9689 61.1416C72.1157 61.348 71.6997 61.7349 71.62 61.8917C71.2471 62.6257 70.5362 63.2767 70.0502 63.9228" stroke="white" stroke-linecap="round"/>
<path d="M68 67.8026C68.048 67.4057 68.8197 66.795 69.0922 66.5526C69.6255 66.0785 70.0962 65.5456 70.6246 65.0833C71.2604 64.527 71.9887 63.786 72.9098 64.0581C73.2577 64.1609 72.4913 64.8253 72.4326 64.886C72.1139 65.2155 71.7604 65.5481 71.4358 65.8838C71.0608 66.2715 70.512 66.7447 70.2905 67.2599C70.1625 67.5577 69.8506 67.7255 69.7179 68" stroke="white" stroke-linecap="round"/>
<path d="M66 75C66 73.5247 67.6356 72.2682 68.6911 71.3085C69.6208 70.4633 70.9901 70.08 71.8971 69.2553C72.2464 68.9377 72.5884 68.6268 72.9501 68.2979C73.1958 68.0745 73.8183 67.5942 73.892 67.2926C73.9694 66.9762 74.1549 66.6016 73.7341 66.383C73.221 66.1164 73.0304 66 72.4236 66" stroke="white" stroke-linecap="round"/>
<path d="M69 41C68.0164 40.9323 66.8365 40.3169 66 40" stroke="white" stroke-linecap="round"/>
<path d="M66 40C66.6135 40 67.2014 39.5741 67.733 39.3202C68.8556 38.784 69.9945 38.2716 71.1084 37.7191C71.9521 37.3007 72.7857 36.8147 73.6117 36.3596C75.7971 35.1552 78.139 34.149 80.4078 33.1124C81.2266 32.7382 82.1223 32.4867 82.9223 32.0899C84.1747 31.4687 85.5908 31 87 31" stroke="white" stroke-linecap="round"/>
<path d="M71 41C71.9556 40.0496 73.2643 39.1315 74.4023 38.3915C75.405 37.7394 76.4098 36.7981 77.503 36.3148C78.1878 36.0121 78.7178 35.3385 79.3976 34.9907C79.7351 34.8181 80.2015 34.5243 80.4786 34.2778C80.981 33.8307 81.6498 33.5738 82.2309 33.2366C82.9375 32.8267 83.7264 32.4853 84.3645 31.9918C84.7384 31.7025 85.3346 31.3014 85.8039 31.2166C86.6133 31.0702 87.318 30.3391 88 30" stroke="white" stroke-linecap="round"/>
<path d="M71 42.0335C72.1534 42.0335 73.6764 41.8804 74.7778 42.2288C75.2587 42.3809 76.1409 42.5607 76.6667 42.5607C77.7869 42.5607 78.8709 43 80 43" stroke="white" stroke-linecap="round"/>
<path d="M88 30C88 30.3864 87.6109 30.9968 87.4354 31.3537C87.1147 32.006 86.7126 32.6007 86.3544 33.2281C85.4995 34.7252 84.5352 36.1541 83.7357 37.6942C83.0637 38.9888 82.2803 40.1667 81.5676 41.4025C81.3813 41.7254 80.4086 43.5954 80 42.8083" stroke="white" stroke-linecap="round"/>
<path d="M71 42C71.0726 42.6081 71.6596 43.2225 71.9 43.7881C72.114 44.2917 72.3466 44.7829 72.5333 45.2972C72.6072 45.5005 72.7925 45.9035 73 46" stroke="white" stroke-linecap="round"/>
<path d="M73 47C73.1231 46.9852 73.6911 46.0553 73.7821 45.8889C74.0158 45.4611 74.2868 45.0807 74.5256 44.6667C74.7099 44.3473 75.0652 44.0606 75.3333 43.8025C75.5619 43.5824 75.7466 43 76 43" stroke="white" stroke-linecap="round"/>
<path d="M74.0325 40.6402C74.1903 40.6226 74.4149 40.4082 74.54 40.3172C74.9531 40.0168 75.3721 39.6948 75.7626 39.3657C76.4701 38.7695 77.326 38.3597 78.0405 37.7625C78.7983 37.1292 79.4805 36.4047 80.2608 35.8017C80.9056 35.3035 81.4075 34.6995 82.1293 34.3196C82.6019 34.0709 83.0762 33.6983 83.5826 33.5295" stroke="#F1A33B" stroke-linecap="round"/>
<path d="M73.0464 41.0553C75.1668 41.0553 77.2592 41.0034 79.3785 41.0034" stroke="#F1A33B" stroke-linecap="round"/>
<path d="M84.3092 33.4775C84.3092 34.305 83.7489 35.1172 83.3865 35.8362C82.933 36.7361 82.3661 37.5929 81.9333 38.5005C81.7733 38.8359 81.5254 39.1165 81.3508 39.4463C81.1838 39.7617 80.9882 40.1408 80.7799 40.4325C80.6817 40.5698 80.6754 40.7447 80.5723 40.8736C80.4386 41.0407 80.1189 40.9028 79.9494 40.8996C78.6304 40.8747 77.2909 40.8477 75.9789 40.8477C75.8233 40.8477 75.4978 40.781 75.3589 40.7179C75.2046 40.6478 75.3187 40.5529 75.4137 40.4786C75.904 40.0949 76.3815 39.6945 76.8699 39.3079C77.6328 38.7039 78.4005 38.1034 79.1882 37.5317C79.8387 37.0595 80.5508 36.6458 81.172 36.1361C81.5151 35.8546 81.9353 35.6612 82.2562 35.3518C82.5708 35.0484 82.8872 34.7728 83.2193 34.4896C83.4239 34.3151 83.6379 34.0745 83.8652 33.9447C84.046 33.8413 83.4736 34.6311 83.4269 34.7001C82.648 35.852 81.7862 36.9553 80.9298 38.0507C80.228 38.9484 79.4582 39.811 78.6634 40.6285C78.5398 40.7557 78.3426 40.845 78.2366 40.9774C78.0911 41.1594 78.4793 40.577 78.6317 40.4007C79.1716 39.7761 79.7123 39.1571 80.258 38.538C80.7122 38.0227 81.2359 37.5715 81.6622 37.0386C81.7639 36.9115 81.6068 37.3609 81.5526 37.5144C81.3342 38.1333 81.1781 38.7683 80.9644 39.3886C80.8639 39.6805 80.6661 40.0649 80.627 40.3777C80.5919 40.6587 80.5795 40.183 80.5838 40.1268C80.6842 38.821 81.1332 37.4377 81.7026 36.2514C81.7341 36.1857 81.7857 36.1098 81.7602 36.237C81.7086 36.4953 81.5301 36.7521 81.4142 36.9838C80.9661 37.8801 80.5241 38.7781 80.033 39.651C79.5675 40.4786 80.856 37.9392 81.2931 37.0963C81.434 36.8247 81.599 36.5022 81.1634 36.8743C80.5239 37.4205 79.8906 37.9743 79.2343 38.5005C79.1184 38.5935 78.9198 38.8504 78.7787 38.8927C78.4727 38.9845 79.2376 38.4478 79.4737 38.2324C79.766 37.9656 80.0356 37.6674 80.3416 37.4164C80.5928 37.2103 80.8604 37.0302 81.0913 36.7993C81.7954 36.0952 79.6935 38.2179 79.0036 38.9359C78.9901 38.95 78.6285 39.3103 78.7614 39.1926C78.8725 39.0943 79.2615 38.7357 78.897 39.0167C78.385 39.4113 77.871 39.8039 77.3572 40.196C77.0956 40.3957 76.8145 40.5598 76.5556 40.7612C76.0858 41.1266 77.4409 39.9636 77.9137 39.602C78.4177 39.2166 78.9359 38.8459 79.4304 38.4486C79.6919 38.2386 79.7522 38.1787 79.6034 38.5294C79.5885 38.5644 79.1815 39.4377 79.4189 39.3829C79.4767 39.3695 79.7277 39.1678 79.7389 39.2185C79.7662 39.3413 79.6753 39.5039 79.638 39.6136C79.5476 39.8793 79.4773 40.1545 79.4362 40.4325C79.4099 40.6098 79.4787 40.3396 79.5573 40.2825C79.5922 40.2571 79.7247 40.1001 79.7389 40.1499C79.7624 40.2319 79.7418 40.3472 79.7418 40.4325" stroke="#F1A33B" stroke-linecap="round"/>
<path d="M73.1696 40.6939C73.5787 40.2848 74.0637 39.9313 74.5345 39.5969C74.7557 39.4399 74.9861 39.288 75.2179 39.1473C75.4326 39.0171 75.6365 38.8703 75.8545 38.7445C76.3145 38.4791 76.7658 38.1867 77.2087 37.8939C77.4666 37.7234 77.7297 37.5897 77.9982 37.4416C78.1699 37.3468 78.3308 37.2384 78.4991 37.1385C78.7369 36.9973 78.9279 36.7895 79.1618 36.644C79.3339 36.5369 79.4903 36.4145 79.668 36.3158C79.7275 36.2827 79.7775 36.2361 79.8371 36.2034C79.8801 36.1797 79.9444 36.1759 79.9675 36.1296" stroke="#F1A33B" stroke-linecap="round"/>
<path d="M72.9753 40.6454C72.8902 40.6454 72.8275 40.6743 72.7487 40.6939" stroke="#F1A33B" stroke-linecap="round"/>
<path d="M78.4784 40.2083C78.5382 40.2083 78.2838 40.2081 78.2527 40.2092C78.1431 40.2131 78.0387 40.2406 77.9281 40.2406" stroke="#F1A33B" stroke-linecap="round"/>
<path d="M74.5777 40.9366C74.7761 40.9366 74.9766 40.9462 75.164 41.0176C75.2562 41.0527 75.3709 41.0687 75.4679 41.0949C75.5197 41.1089 75.5652 41.1397 75.6136 41.1632C75.726 41.2179 75.8527 41.2515 75.9705 41.2927C76.1624 41.3599 76.3701 41.4546 76.5766 41.4546C76.6545 41.4546 76.7223 41.5031 76.8032 41.5031C76.8793 41.5031 76.979 41.5219 77.0541 41.5391C77.2823 41.5913 77.5119 41.7069 77.7501 41.7135C77.9935 41.7203 78.2396 41.7297 78.4856 41.7297C78.7411 41.7297 79.0129 41.7157 79.2634 41.7702C79.3767 41.7948 79.4947 41.8107 79.6105 41.8107C79.7109 41.8107 79.8024 41.843 79.9027 41.843" stroke="#F1A33B" stroke-linecap="round"/>
<path d="M80.3397 41.2766C80.3397 41.4097 80.2386 41.5882 80.1455 41.6812" stroke="#F1A33B" stroke-linecap="round"/>
<path d="M85.7457 32.4717C85.2928 32.9245 84.8829 33.4065 84.4742 33.8969C84.3276 34.0729 84.1649 34.2438 84.0309 34.4292C83.9575 34.5309 83.8727 34.6256 83.8034 34.7296C83.7612 34.7929 83.6807 34.8794 83.6578 34.9481" stroke="#F1A33B" stroke-linecap="round"/>
<path d="M85.5029 32.4878C85.3298 32.6465 85.1115 32.7628 84.9292 32.9122C84.7016 33.0987 84.4511 33.2739 84.2386 33.4778C83.8458 33.8549 83.4579 34.2375 83.0589 34.6081" stroke="#F1A33B" stroke-linecap="round"/>
<path d="M69.4117 39.9981C69.7431 39.6667 70.1576 39.4661 70.5195 39.1818C70.6721 39.0618 70.8604 38.9336 71.0476 38.8868" stroke="#F1A33B" stroke-linecap="round"/>
<path d="M74.3104 37.4938C74.0649 37.4938 73.8359 37.6343 73.6075 37.7084C73.24 37.8276 72.9074 38.0297 72.5725 38.2184C72.2649 38.3916 71.9503 38.5548 71.6464 38.7336C71.5618 38.7833 71.4736 38.8219 71.3924 38.876" stroke="#F1A33B" stroke-width="0.5" stroke-linecap="round"/>
<path d="M74.9011 36.5841C74.7745 36.5841 74.6279 36.6599 74.5165 36.7141C74.3312 36.8042 74.1441 36.9001 73.9678 37.0068C73.7282 37.1518 73.4878 37.2956 73.2524 37.4478C73.0711 37.565 72.8789 37.6691 72.7037 37.795C72.5265 37.9224 72.3363 38.0187 72.1491 38.1284C71.9072 38.2702 71.6689 38.4135 71.4304 38.561C71.2702 38.66 71.0994 38.7484 70.9434 38.8524" stroke="#F1A33B" stroke-width="0.5" stroke-linecap="round"/>
<path d="M73.507 37.2811C73.3891 37.2811 73.2846 37.3343 73.1822 37.3875C73.0914 37.4345 72.9917 37.4668 72.9144 37.5364C72.7474 37.6868 72.5289 37.7558 72.3375 37.8659C72.2165 37.9355 72.0919 38.0016 71.9693 38.0681C71.4995 38.3225 71.0191 38.5428 70.5417 38.7815" stroke="#F1A33B" stroke-width="0.5" stroke-linecap="round"/>
<path d="M70.5063 38.7698C70.2207 38.7698 69.9155 38.8847 69.6682 39.0238C69.5769 39.0752 69.5021 39.1495 69.4096 39.2003C69.2667 39.2789 69.1414 39.3892 68.9883 39.4491C68.8841 39.4898 68.7946 39.5671 68.6896 39.6086C68.5772 39.653 68.471 39.7145 68.3601 39.7648C68.2308 39.8235 68.0951 39.8677 67.9664 39.9249C67.9242 39.9436 67.8634 39.9371 67.8246 39.963" stroke="#F1A33B" stroke-width="0.5" stroke-linecap="round"/>
<path d="M68.0136 39.9629C68.1396 39.9629 68.2656 39.9629 68.3917 39.9629C68.5539 39.9629 68.7324 39.9612 68.8872 40.0154C68.9902 40.0515 69.1149 40.0685 69.2213 40.0902C69.3832 40.1234 69.5581 40.1351 69.7148 40.1874" stroke="#F1A33B" stroke-width="0.5" stroke-linecap="round"/>
<path d="M68.7933 39.9984C68.7911 39.978 68.7701 39.9628 68.7933 39.9512" stroke="#F1A33B" stroke-width="0.5" stroke-linecap="round"/>
<path d="M67.8954 40.0929C67.9792 40.0929 68.0604 40.1026 68.1435 40.1047C68.2052 40.1063 68.2742 40.1016 68.3326 40.1224C68.378 40.1387 68.4295 40.1358 68.4763 40.1467C68.5191 40.1567 68.5699 40.1724 68.6135 40.1756C68.6899 40.1813 68.758 40.2224 68.8333 40.234C68.9205 40.2474 69.0341 40.2848 69.1123 40.3239C69.165 40.3503 69.2428 40.3936 69.3013 40.4001C69.5229 40.4247 69.7219 40.5929 69.9393 40.6363" stroke="#F1A33B" stroke-width="0.5" stroke-linecap="round"/>
<path d="M68.746 39.6912H69.0296" stroke="#F1A33B" stroke-width="0.5" stroke-linecap="round"/>
<path d="M70.3173 40.8135C70.3365 40.8111 70.3285 40.7829 70.3304 40.7689C70.3386 40.7097 70.3689 40.6546 70.3961 40.6022C70.4728 40.4539 70.5699 40.3168 70.652 40.1716C70.8501 39.8219 71.126 39.5024 71.4068 39.216C71.6518 38.9661 71.9173 38.731 72.1905 38.5124C72.4272 38.3231 72.6666 38.1326 72.9229 37.9703C73.1974 37.7966 73.4959 37.664 73.7788 37.5056" stroke="#F1A33B" stroke-width="0.5" stroke-linecap="round"/>
<path d="M69.9038 40.4591C70.1579 40.205 70.4006 39.9509 70.6743 39.7175C70.8864 39.5366 71.1054 39.3733 71.3294 39.2081C71.5516 39.0443 71.7726 38.8771 71.9857 38.7015C72.19 38.533 72.4102 38.3919 72.6263 38.2394C72.8377 38.0901 73.0411 37.9318 73.2471 37.7773" stroke="#F1A33B" stroke-width="0.5" stroke-linecap="round"/>
<path d="M70.4945 40.6836C70.6244 40.5537 70.7577 40.4299 70.8844 40.2964C71.0147 40.1589 71.1424 40.0181 71.286 39.894C71.4052 39.7911 71.5345 39.6982 71.6536 39.5928C71.7798 39.4811 71.9119 39.3642 72.0553 39.2751C72.2253 39.1694 72.3827 39.0401 72.5462 38.9246C72.7313 38.7939 72.9081 38.6462 73.0752 38.4928C73.3752 38.2173 73.6676 37.9214 74.0026 37.6888C74.1946 37.5555 74.3705 37.4034 74.5703 37.2812C74.7336 37.1813 74.8965 37.0868 75.0521 36.9753C75.3499 36.7618 75.6408 36.4949 75.9998 36.3951" stroke="#F1A33B" stroke-width="0.5" stroke-linecap="round"/>
<path d="M75.1965 36.7732C74.9412 36.7732 74.7107 36.9502 74.4968 37.0659C74.1203 37.2697 73.7612 37.5026 73.4414 37.7892C73.2652 37.9471 73.0996 38.1184 72.9348 38.288C72.817 38.4091 72.6789 38.5148 72.5672 38.6411C72.3421 38.8956 72.0845 39.1236 71.8413 39.3604" stroke="#F1A33B" stroke-width="0.5" stroke-linecap="round"/>
<path d="M77.6183 35.261C77.4463 35.261 77.2597 35.3699 77.109 35.4415C76.8201 35.5786 76.5352 35.7195 76.2505 35.8648C76.0386 35.9729 75.8412 36.1047 75.6349 36.2219C75.446 36.3291 75.254 36.4362 75.0691 36.55C74.9544 36.6207 74.8393 36.6915 74.7278 36.7673C74.697 36.7882 74.6706 36.8159 74.6366 36.8316C74.6069 36.8453 74.5866 36.8772 74.5585 36.8913" stroke="#F1A33B" stroke-width="0.5" stroke-linecap="round"/>
<path d="M80.4182 35.2137C80.3409 35.2215 80.2447 35.3158 80.1898 35.3621C80.1391 35.4048 80.081 35.4463 80.0231 35.4789C79.9562 35.5166 79.9209 35.5775 79.8617 35.622C79.5471 35.8579 79.2468 36.1071 78.9428 36.3558C78.5527 36.6749 78.155 36.9867 77.7417 37.2753C77.4792 37.4585 77.2213 37.649 76.96 37.8345C76.7518 37.9822 76.5361 38.1284 76.2952 38.2145" stroke="#F1A33B" stroke-width="0.5" stroke-linecap="round"/>
<path d="M86.1291 32.0754C85.878 32.0983 85.6061 32.2866 85.4006 32.4223C85.2229 32.5396 85.0485 32.6608 84.8726 32.7803C84.7801 32.8431 84.6988 32.926 84.5996 32.9781C84.2743 33.1489 83.9545 33.3066 83.6216 33.4545" stroke="#F1A33B" stroke-width="0.5" stroke-linecap="round"/>
<path d="M85.4521 32.7274C85.4521 32.9467 85.2267 33.2205 85.115 33.4044C84.7596 33.9898 84.436 34.5714 84.1426 35.1847C84.067 35.343 83.971 35.4926 83.8835 35.6444C83.7679 35.8453 83.6174 36.0168 83.4977 36.2114C83.4036 36.3642 83.2984 36.5134 83.2135 36.6711C83.1591 36.7722 83.0614 37.1126 82.9196 37.0653" stroke="#F1A33B" stroke-width="0.5" stroke-linecap="round"/>
<path d="M76.5593 35.5807C76.5063 35.5807 76.4524 35.5782 76.3997 35.5842C76.3308 35.592 76.2679 35.6223 76.2047 35.6483C76.1513 35.6702 76.0871 35.69 76.0388 35.7222C75.9952 35.7512 75.9419 35.7611 75.8981 35.789C75.8539 35.8171 75.7969 35.8341 75.7503 35.8605C75.6668 35.9079 75.5763 35.9487 75.4877 35.9855C75.3526 36.0417 75.2244 36.1127 75.0969 36.1837C74.956 36.2622 74.8015 36.3109 74.6665 36.3983C74.6564 36.4048 74.5883 36.4363 74.5883 36.4494C74.5883 36.4519 74.8451 36.4143 74.8689 36.4085C74.9486 36.3891 75.0312 36.3495 75.1048 36.3134C75.2491 36.2425 75.3752 36.143 75.5128 36.061C75.7015 35.9487 75.8994 35.8611 76.1033 35.7796C76.4389 35.6453 76.7846 35.5388 77.132 35.4395C77.2148 35.4159 77.3022 35.3922 77.3871 35.377C77.4575 35.3645 77.5291 35.3631 77.5986 35.3472C77.6649 35.3319 77.8694 35.3259 77.8014 35.3259C77.7727 35.3259 77.7479 35.344 77.7193 35.3475C77.6839 35.352 77.6331 35.3731 77.6014 35.3869C77.3898 35.4784 77.1834 35.5791 76.9964 35.7159C76.8169 35.8472 76.6216 35.9695 76.4303 36.083C76.4173 36.0908 76.2267 36.2134 76.2267 36.175" stroke="#F1A33B" stroke-width="0.1" stroke-linecap="round"/>
<path d="M74.8186 36.3874C75.2237 36.1848 75.6396 35.9946 76.0639 35.8354" stroke="#F1A33B" stroke-width="0.1" stroke-linecap="round"/>
<path d="M75.9507 35.8072C75.9556 35.7943 75.9884 35.8001 76.0003 35.8001C76.0287 35.8001 76.0569 35.7874 76.0836 35.7789C76.1769 35.7491 76.258 35.6935 76.3415 35.6444C76.4188 35.599 76.4878 35.5427 76.5671 35.4998C76.7318 35.4106 76.9055 35.3397 77.0758 35.2623" stroke="#F1A33B" stroke-width="0.1" stroke-linecap="round"/>
<path d="M80.2528 33.7693C80.159 33.7693 80.0884 33.8292 80.0075 33.8707C79.8703 33.9411 79.7384 34.0197 79.6034 34.094C79.5635 34.1159 79.5263 34.1426 79.489 34.1687C79.446 34.1988 79.3957 34.2182 79.3499 34.2438C79.2993 34.272 79.2479 34.2997 79.1958 34.3247C79.1616 34.3412 79.1239 34.354 79.0908 34.3723C79.0128 34.4155 78.9278 34.4437 78.8479 34.4824C78.7122 34.548 78.5747 34.6087 78.441 34.6785C78.3311 34.736 78.2213 34.798 78.1092 34.8511C77.9905 34.9073 77.8687 34.9593 77.748 35.0146" stroke="#F1A33B" stroke-width="0.1" stroke-linecap="round"/>
<path d="M79.5948 34.116C79.5212 34.116 79.464 34.1266 79.3931 34.1474C79.3503 34.16 79.3053 34.1636 79.263 34.1781C79.2402 34.1859 79.222 34.2023 79.1993 34.2111C79.1344 34.2364 79.0608 34.2443 79.0012 34.2819C78.8475 34.3787 78.6895 34.4664 78.5271 34.5476C78.4764 34.573 78.4185 34.5953 78.3707 34.6254C78.3324 34.6495 78.2882 34.6609 78.2488 34.6836C78.1707 34.7287 78.0755 34.7707 77.9898 34.7984C77.848 34.8443 77.7173 34.929 77.5798 34.9863C77.497 35.0208 77.4036 35.058 77.3306 35.1097C77.3045 35.1282 77.2413 35.1632 77.2103 35.1632" stroke="#F1A33B" stroke-width="0.1" stroke-linecap="round"/>
<path d="M80.5217 33.6207C80.4427 33.6207 80.3668 33.6656 80.2913 33.686C80.1605 33.7213 80.0293 33.7947 79.9045 33.8487C79.7566 33.9128 79.6136 33.9901 79.4674 34.0586C79.2575 34.1571 79.0309 34.2244 78.8274 34.3354C78.7415 34.3823 78.6591 34.4353 78.5727 34.4816C78.4869 34.5276 78.3961 34.6014 78.2995 34.6255C78.2386 34.6407 78.1703 34.6807 78.1128 34.7069C78.0549 34.7332 77.9811 34.7369 77.9288 34.7701C77.9052 34.7852 77.9001 34.7869 77.895 34.8142C77.8886 34.8484 77.8709 34.8653 77.8612 34.8944" stroke="#F1A33B" stroke-width="0.1" stroke-linecap="round"/>
<path d="M80.4722 33.642C80.4169 33.6911 80.3326 33.7073 80.2741 33.7552C80.1988 33.8168 80.1091 33.8639 80.028 33.9179C79.9844 33.947 79.9367 33.9747 79.8955 34.0068C79.8246 34.0619 79.7408 34.101 79.6651 34.1514C79.6137 34.1857 79.5569 34.2212 79.5028 34.2505C79.4433 34.2827 79.3901 34.3259 79.333 34.3621C79.2017 34.4453 79.0757 34.5351 78.9454 34.6196C78.5883 34.8512 78.2494 35.1127 77.9052 35.363C77.8335 35.4151 77.7616 35.4819 77.6772 35.51" stroke="#F1A33B" stroke-width="0.1" stroke-linecap="round"/>
<path d="M79.1348 34.2717C79.1155 34.2737 79.0957 34.2876 79.079 34.2961C78.9903 34.3413 78.9055 34.3941 78.8211 34.4467C78.5221 34.633 78.2314 34.8312 77.9296 35.0131C77.8232 35.0772 77.716 35.1399 77.6104 35.2053C77.576 35.2267 77.5404 35.2445 77.505 35.2639C77.481 35.2772 77.4512 35.3048 77.4225 35.3048" stroke="#F1A33B" stroke-width="0.1" stroke-linecap="round"/>
<path d="M79.0358 34.4698C78.9949 34.4791 78.9558 34.5007 78.9187 34.5194C78.8172 34.5705 78.7191 34.6286 78.6207 34.6853C78.4104 34.8063 78.1985 34.9253 78.0027 35.0693C77.8228 35.2018 77.6423 35.3339 77.4567 35.4585C77.3967 35.4988 77.3358 35.5375 77.2739 35.5748C77.2498 35.5894 77.2239 35.6092 77.1961 35.6161" stroke="#F1A33B" stroke-width="0.1" stroke-linecap="round"/>
<path d="M79.1773 34.4132C79.0228 34.5105 78.8903 34.6376 78.7386 34.7387C78.6446 34.8014 78.5536 34.8699 78.4611 34.9352C78.3421 35.0193 78.2129 35.0927 78.0904 35.1719C77.9842 35.2406 77.8769 35.3081 77.7728 35.3798C77.7141 35.4203 77.6459 35.4621 77.5927 35.51C77.5723 35.5284 77.5363 35.5595 77.5074 35.5595" stroke="#F1A33B" stroke-width="0.1" stroke-linecap="round"/>
<path d="M78.6749 34.7387C78.6077 34.7387 78.5482 34.7661 78.4874 34.7921C78.3867 34.8353 78.3004 34.8892 78.2079 34.947C78.0942 35.0181 77.9842 35.0899 77.8808 35.1754C77.7911 35.2496 77.7079 35.3374 77.6128 35.4046C77.5161 35.4728 77.801 35.2606 77.9013 35.1978C78.027 35.119 78.1561 35.0463 78.2818 34.9675C78.3163 34.9458 78.3538 34.9212 78.3832 34.8928C78.4559 34.8224 78.5453 34.7669 78.6246 34.7033C78.6278 34.7007 78.676 34.6667 78.669 34.6726C78.6394 34.6977 78.6015 34.7215 78.5672 34.7387C78.2818 34.8814 77.982 34.9943 77.6937 35.131C77.5687 35.1903 77.4522 35.2606 77.3215 35.3071C77.2919 35.3176 77.2065 35.3496 77.2299 35.3287C77.2659 35.2965 77.3155 35.272 77.3561 35.2473C77.6531 35.0663 77.9581 34.9004 78.2633 34.734C78.3003 34.7138 78.3372 34.6942 78.3746 34.675C78.4052 34.6592 78.3642 34.6711 78.3534 34.6766C78.0106 34.8504 77.6988 35.0825 77.3557 35.2568C77.1846 35.3436 77.0095 35.4166 76.8352 35.4958" stroke="#F1A33B" stroke-width="0.1" stroke-linecap="round"/>
<path d="M76.1701 35.6443C76.2362 35.6443 76.2924 35.6087 76.3533 35.5877C76.3963 35.5728 76.4371 35.5534 76.4783 35.5346C76.5095 35.5204 76.5397 35.5019 76.5699 35.4851C76.6225 35.4559 76.5178 35.5094 76.5027 35.5169" stroke="#F1A33B" stroke-width="0.1" stroke-linecap="round"/>
<path d="M76.0852 35.7081C76.1289 35.7081 76.1754 35.6606 76.2126 35.6428C76.2598 35.6202 76.3007 35.5882 76.347 35.565C76.4014 35.5378 76.4578 35.5008 76.5153 35.4801C76.5924 35.4523 76.6668 35.4139 76.7417 35.3826C76.8446 35.3395 76.9449 35.2908 77.0444 35.2411C77.0811 35.2227 77.1147 35.2001 77.1552 35.19C77.1982 35.1792 77.239 35.1511 77.2826 35.1365C77.3276 35.1215 77.3591 35.1037 77.3958 35.0783C77.4307 35.0542 77.4618 35.0285 77.5004 35.0092C77.5292 34.9947 77.5608 34.9974 77.5892 34.9848C77.6205 34.9709 77.6569 34.9722 77.6914 34.9565C77.7185 34.9442 77.7487 34.93 77.7708 34.9101C77.8116 34.8734 77.8736 34.867 77.9178 34.8448" stroke="#F1A33B" stroke-width="0.1" stroke-linecap="round"/>
<path d="M75.9932 36.4723C76.0465 36.4238 76.124 36.3817 76.1882 36.3481C76.2364 36.3228 76.2876 36.2815 76.3321 36.2494C76.3785 36.2159 76.4299 36.1899 76.4814 36.1641C76.5917 36.109 76.6942 36.0398 76.7963 35.9711C76.8921 35.9067 76.9851 35.8386 77.0805 35.7738C77.1252 35.7434 77.1626 35.7061 77.2075 35.6759C77.337 35.5889 77.4752 35.5275 77.61 35.4499C77.648 35.428 77.7731 35.3877 77.7303 35.3972C77.6221 35.4212 77.5154 35.4865 77.4127 35.5269C77.1416 35.6335 76.8779 35.7597 76.6135 35.8819C76.4348 35.9645 76.256 36.0458 76.0836 36.1413C76.034 36.1688 75.9829 36.1973 75.9366 36.2302C75.9167 36.2443 75.8909 36.2501 75.8729 36.2671C75.8325 36.3054 75.8889 36.2835 75.9154 36.2742C76.0409 36.23 76.1605 36.169 76.2841 36.1201C76.359 36.0905 76.4343 36.0604 76.5113 36.0367C76.5232 36.0331 76.4686 36.0557 76.461 36.0595C76.3499 36.1151 76.2461 36.1838 76.1387 36.2459C76.1022 36.267 76.0655 36.2875 76.0294 36.3092C76.0269 36.3106 75.978 36.342 76.005 36.3347C76.084 36.3136 76.1669 36.2681 76.2409 36.2333C76.2792 36.2153 76.1585 36.2552 76.1206 36.2742" stroke="#F1A33B" stroke-width="0.1" stroke-linecap="round"/>
<path d="M76.1418 36.4298C76.461 36.1903 76.8011 35.9816 77.1701 35.8323C77.2476 35.8009 77.3149 35.752 77.3867 35.7116C77.4311 35.6867 77.4735 35.6436 77.52 35.6247C77.5823 35.5993 77.6352 35.5423 77.6914 35.506C77.7489 35.4689 77.8045 35.4274 77.8612 35.3896" stroke="#F1A33B" stroke-width="0.1" stroke-linecap="round"/>
<path d="M76.1328 36.5C76.1609 36.5 76.1942 36.4735 76.2188 36.4612C76.2479 36.4466 76.2756 36.4304 76.3038 36.4141C76.3416 36.3921 76.3798 36.367 76.4154 36.3416C76.4521 36.3153 76.4879 36.2905 76.5224 36.2613C76.6404 36.1613 76.7798 36.0857 76.9102 36.0039C76.9278 35.9928 76.9479 35.9859 76.9644 35.9731C76.9838 35.958 77.0125 35.9556 77.0304 35.9384C77.0731 35.8973 77.1414 35.885 77.1927 35.8572C77.2227 35.8409 77.2546 35.8272 77.2852 35.8116C77.3044 35.8018 77.3241 35.7899 77.3424 35.7789C77.3591 35.7689 77.3764 35.7521 77.3945 35.7461" stroke="#F1A33B" stroke-width="0.1" stroke-linecap="round"/>
<path d="M77.1953 35.7812C77.3573 35.6617 77.5227 35.5471 77.6862 35.4297C77.7066 35.415 77.7279 35.3987 77.75 35.3867C77.7642 35.379 77.7069 35.4149 77.7016 35.4184C77.4994 35.551 77.3018 35.6909 77.1042 35.8303C77.0511 35.8677 76.9986 35.9058 76.9455 35.9431C76.9238 35.9584 76.9045 35.9731 76.8789 35.9804" stroke="#F1A33B" stroke-width="0.1" stroke-linecap="round"/>
<path d="M77.4687 35.7227C77.4455 35.7227 77.416 35.7395 77.3967 35.7517C77.394 35.7535 77.3742 35.7617 77.3798 35.7617C77.386 35.7617 77.3948 35.7551 77.4004 35.752C77.4286 35.7362 77.3814 35.7571 77.3728 35.7604C77.351 35.7688 77.3257 35.775 77.3053 35.7869C77.2995 35.7903 77.3142 35.7892 77.3164 35.7882C77.3277 35.7832 77.3403 35.782 77.352 35.7773C77.3872 35.7632 77.4216 35.7417 77.4529 35.7207C77.4966 35.6914 77.5411 35.662 77.5859 35.6345C77.6284 35.6086 77.6747 35.5773 77.7109 35.543C77.7479 35.5079 77.7917 35.4747 77.8359 35.4494C77.8562 35.4378 77.8737 35.4229 77.8921 35.4084C77.9485 35.3639 78.0047 35.319 78.0616 35.2752C78.1019 35.2441 78.1451 35.215 78.184 35.1823C78.2142 35.157 78.251 35.1375 78.2758 35.1072C78.2875 35.0929 78.3067 35.0847 78.3209 35.0731C78.3301 35.0657 78.3398 35.0563 78.3507 35.0516C78.3592 35.0481 78.3709 35.0393 78.375 35.0312" stroke="#F1A33B" stroke-width="0.1" stroke-linecap="round"/>
<path d="M79.457 34.2344C79.4502 34.2405 79.4447 34.2409 79.4362 34.2428C79.3856 34.2545 79.3358 34.285 79.2888 34.3066C79.216 34.3402 79.1414 34.37 79.0673 34.4006C79.0366 34.4133 78.992 34.4414 78.957 34.4414" stroke="#F1A33B" stroke-width="0.1" stroke-linecap="round"/>
<path d="M79.2109 34.2734C79.2099 34.2651 79.1928 34.2777 79.189 34.2795C79.1267 34.3097 79.0693 34.3526 79.0109 34.3893C78.8374 34.4984 78.6761 34.6284 78.5354 34.7774C78.5208 34.7927 78.5075 34.8093 78.4939 34.8255C78.492 34.8278 78.4783 34.8376 78.49 34.8351C78.5256 34.8275 78.5644 34.793 78.5955 34.7754C78.6563 34.7409 78.7269 34.6992 78.7795 34.6524C78.8014 34.6329 78.757 34.6617 78.7533 34.6645C78.6247 34.7623 78.509 34.876 78.3845 34.9787C78.3159 35.0355 78.2434 35.1005 78.1606 35.1343C78.0863 35.1647 78.014 35.2257 77.9612 35.2852C77.8885 35.3669 77.8272 35.4692 77.7266 35.5195" stroke="#F1A33B" stroke-width="0.1" stroke-linecap="round"/>
<path d="M77.4219 35.7695C77.4383 35.7679 77.4523 35.7518 77.4651 35.7444C77.5082 35.7192 77.5605 35.6916 77.5977 35.6562C77.6201 35.6349 77.6468 35.6203 77.6721 35.6029C77.7046 35.5804 77.7368 35.5543 77.7674 35.5293C77.8243 35.4827 77.8827 35.4317 77.9453 35.3926C77.9697 35.3773 77.9911 35.3583 78.0139 35.3407C78.0261 35.3313 78.0625 35.3032 78.0625 35.2891" stroke="#F1A33B" stroke-width="0.1" stroke-linecap="round"/>
<path d="M79.125 34.4922C79.166 34.4922 79.1879 34.4804 79.2227 34.4592C79.2564 34.4386 79.2879 34.414 79.322 34.3945C79.3341 34.3877 79.3485 34.3831 79.3596 34.3748C79.368 34.3684 79.3786 34.3635 79.3885 34.3596C79.4048 34.3531 79.4162 34.3397 79.431 34.3307C79.4586 34.314 79.488 34.2924 79.5174 34.2795C79.5427 34.2684 79.5701 34.2551 79.5929 34.2391C79.6093 34.2277 79.6307 34.2151 79.6493 34.207C79.6752 34.1958 79.6979 34.1776 79.7244 34.168C79.7667 34.1526 79.8078 34.1184 79.8464 34.0953C79.9022 34.0617 79.9647 34.0297 80.0126 33.9852C80.0281 33.9708 80.0519 33.9616 80.0647 33.9453C80.072 33.936 80.0888 33.9318 80.0938 33.9219" stroke="#F1A33B" stroke-width="0.1" stroke-linecap="round"/>
<path d="M79.6289 34.2422C79.5622 34.2605 79.4965 34.2982 79.4347 34.3299C79.357 34.3696 79.2804 34.4133 79.2051 34.457C79.151 34.4884 79.0978 34.5215 79.043 34.5516C79.0264 34.5607 79.0119 34.5738 78.9946 34.5818C78.9844 34.5865 78.9561 34.6011 78.9672 34.6011C78.9797 34.6011 79.005 34.5834 79.0156 34.5781C79.0742 34.5493 79.1328 34.5213 79.1923 34.4944C79.2896 34.4502 79.3747 34.3926 79.4657 34.3359C79.5057 34.311 79.5446 34.2802 79.5864 34.2593C79.6071 34.249 79.6304 34.2312 79.6476 34.2157C79.6626 34.2021 79.6806 34.1964 79.6875 34.1758" stroke="#F1A33B" stroke-width="0.1" stroke-linecap="round"/>
<path d="M80.5234 33.6484C80.4877 33.6738 80.4467 33.7017 80.4158 33.7326C80.3693 33.7792 80.3162 33.8137 80.2643 33.8537C80.2508 33.8642 80.2342 33.874 80.2196 33.8832C80.18 33.9084 80.1403 33.9346 80.0998 33.9583C80.0252 34.0021 79.9483 34.0417 79.8752 34.0877C79.8024 34.1335 79.7296 34.1801 79.6597 34.2303C79.6055 34.2692 79.5532 34.3126 79.4978 34.3498C79.4894 34.3555 79.4749 34.3672 79.4648 34.3672" stroke="#F1A33B" stroke-width="0.1" stroke-linecap="round"/>
<path d="M76.1913 36.3854C76.1051 36.3899 76.035 36.4445 75.9611 36.4837C75.8559 36.5394 75.7564 36.5952 75.659 36.6629C75.5252 36.756 75.384 36.841 75.2495 36.9341C75.1218 37.0225 74.9987 37.1458 74.8646 37.2207C74.7628 37.2776 74.6398 37.3396 74.5534 37.4173C74.3771 37.576 74.1579 37.686 73.9801 37.844C73.8276 37.9796 73.6496 38.0918 73.5052 38.2362C73.4931 38.2482 73.4518 38.3065 73.476 38.269C73.5265 38.1911 73.6634 38.1259 73.7308 38.0743C74.281 37.6531 74.8864 37.3102 75.4616 36.9268C75.5431 36.8724 75.6296 36.8018 75.7163 36.7585C75.8316 36.7008 75.7065 36.7597 75.6672 36.7949C75.5622 36.8888 75.4223 36.9425 75.315 37.0333C75.216 37.1171 75.1006 37.2141 74.9875 37.278C74.8914 37.3323 74.7836 37.4197 74.6972 37.4901C74.5255 37.6298 74.3366 37.7488 74.1567 37.8795C73.9306 38.0438 73.6911 38.2075 73.4478 38.3427C73.4243 38.3557 73.3507 38.4207 73.3741 38.4C73.4606 38.3237 73.5815 38.2417 73.6853 38.1871C73.9226 38.0622 74.1522 37.9113 74.3632 37.7458C74.5471 37.6016 74.7558 37.4769 74.9219 37.3108C75.138 37.0948 75.4398 36.9656 75.6672 36.7621C75.6973 36.7351 75.7377 36.7002 75.7728 36.6811C75.8097 36.661 75.8765 36.5672 75.8765 36.6092C75.8765 36.635 75.7268 36.7328 75.6963 36.7566C75.5642 36.8599 75.43 36.963 75.2905 37.056C75.2023 37.1148 75.123 37.1823 75.0321 37.2371C74.958 37.2818 74.9003 37.3519 74.8209 37.3881C74.6288 37.4761 74.4545 37.6078 74.2659 37.7048C74.1187 37.7805 73.9938 37.8937 73.8555 37.9833C73.8226 38.0045 73.7277 38.0737 73.7618 38.0542C73.8171 38.0226 73.8687 37.9817 73.9237 37.9487C74.4044 37.6602 74.9039 37.3912 75.3633 37.0697C75.4634 36.9996 75.5589 36.8605 75.6708 36.8149C75.7194 36.7951 75.8073 36.744 75.831 36.6966" stroke="#F1A33B" stroke-width="0.1" stroke-linecap="round"/>
<path d="M67.8845 40.2795C67.8637 40.2795 67.8319 40.2856 67.8124 40.2782C67.7845 40.2675 67.7574 40.2551 67.7296 40.2448C67.693 40.2312 67.6598 40.2136 67.6262 40.1967C67.5452 40.1562 67.4515 40.1369 67.3645 40.1053C67.3306 40.0929 67.2877 40.0752 67.2513 40.0752C67.2181 40.0752 67.3148 40.0543 67.3441 40.0385C67.3891 40.0143 67.4322 39.9861 67.4766 39.9607C67.5046 39.9447 67.5368 39.9326 67.5634 39.9157C67.5974 39.894 67.6309 39.8719 67.6649 39.8503C67.7272 39.8106 67.7929 39.7755 67.8535 39.7328C67.868 39.7225 67.8462 39.7253 67.8425 39.7328" stroke="#F1A33B" stroke-width="0.1" stroke-linecap="round"/>
<path d="M67.6862 40.1353C67.6364 40.1353 67.5757 40.1451 67.527 40.1323C67.4942 40.1236 67.4717 40.104 67.4412 40.0946C67.416 40.0868 67.4299 40.0876 67.4492 40.0779C67.4775 40.0637 67.5142 40.0483 67.5394 40.0298C67.5549 40.0184 67.5715 40.0043 67.5901 39.9984C67.6171 39.9899 67.5636 40.0133 67.5587 40.0161C67.5311 40.0322 67.5045 40.0489 67.476 40.0632C67.4665 40.0679 67.4566 40.0806 67.4459 40.0812C67.4122 40.0831 67.3161 40.1175 67.3474 40.1049C67.3779 40.0927 67.4034 40.0821 67.4366 40.0812C67.5129 40.0792 67.5892 40.0752 67.6659 40.0752C67.725 40.0752 67.784 40.0752 67.8431 40.0752C67.9005 40.0752 67.9763 40.061 68.0287 40.0872" stroke="#F1A33B" stroke-width="0.1" stroke-linecap="round"/>
<path d="M67.9806 40.3156C68.0367 40.3156 68.0927 40.3156 68.1488 40.3156C68.2064 40.3156 68.2816 40.3064 68.3351 40.3289C68.3584 40.3387 68.3843 40.3428 68.4072 40.353C68.4237 40.3603 68.4523 40.3601 68.4659 40.371C68.5221 40.4159 68.6018 40.4041 68.6675 40.413C68.7462 40.4237 68.827 40.4549 68.8952 40.4958C68.9291 40.5162 68.9754 40.5354 69.0127 40.5499C69.0745 40.5739 69.1365 40.5956 69.1983 40.6186C69.2673 40.6444 69.3345 40.6773 69.4032 40.7048C69.4593 40.7272 69.5235 40.7375 69.5815 40.7568C69.6705 40.7865 69.7612 40.8217 69.8471 40.859C69.9774 40.9155 70.1129 40.9624 70.2457 41.0125" stroke="#F1A33B" stroke-width="0.1" stroke-linecap="round"/>
<path d="M70.2217 41.0065C70.1491 40.9493 70.0784 40.8846 69.991 40.848C69.9502 40.8309 69.8993 40.8044 69.8672 40.7722" stroke="#F1A33B" stroke-width="0.1" stroke-linecap="round"/>
<path d="M70.3359 38.5912C70.3568 38.5888 70.3731 38.5725 70.3913 38.5635C70.4409 38.5386 70.4879 38.5102 70.5341 38.4797C70.6258 38.4192 70.7224 38.3619 70.8185 38.3094C70.9138 38.2575 71.0122 38.2175 71.1099 38.1709C71.2517 38.1034 71.3928 38.0351 71.5355 37.9696C71.6698 37.908 71.8027 37.8311 71.9414 37.78C72.0522 37.7392 72.1675 37.7081 72.2779 37.6652C72.3941 37.62 72.5165 37.5827 72.6267 37.5237C72.6792 37.4955 72.7331 37.4714 72.7879 37.4483C72.8113 37.4384 72.8338 37.4196 72.8593 37.4196" stroke="#F1A33B" stroke-width="0.1" stroke-linecap="round"/>
<path d="M71.2852 38.1226C71.2162 38.1825 71.1161 38.2235 71.0385 38.2674C70.8858 38.3539 70.7334 38.4408 70.5789 38.5238C70.5184 38.5563 70.4533 38.5848 70.3959 38.6212" stroke="#F1A33B" stroke-width="0.1" stroke-linecap="round"/>
<path d="M86.718 31.408C85.9503 31.8606 85.1892 32.3273 84.4088 32.7569C84.3192 32.8062 84.2126 32.8512 84.1296 32.9065" stroke="#F1A33B" stroke-width="0.1" stroke-linecap="round"/>
<path d="M83.5544 33.0428C83.8618 32.8752 84.1644 32.6886 84.466 32.5097C84.7001 32.3707 84.9351 32.2126 85.1858 32.1043C85.3605 32.0289 85.5303 31.9331 85.7039 31.8537C85.881 31.7727 86.0604 31.6937 86.2353 31.6082C86.3647 31.545 86.4984 31.4989 86.6272 31.4417C86.6421 31.4351 86.71 31.4383 86.6575 31.4383C86.6101 31.4383 86.5472 31.4844 86.5095 31.5106C86.0951 31.7986 85.6562 32.046 85.2312 32.3129C85.0055 32.4546 84.7774 32.5948 84.5467 32.7283C84.2182 32.9185 83.2122 33.4502 83.5325 33.2464C84.1046 32.8823 85.7443 31.6764 85.2018 32.0833C84.6943 32.4639 84.2065 32.8848 83.6755 33.2321C83.6304 33.2615 83.5914 33.3005 83.5476 33.3296C83.4894 33.3685 83.6616 33.2481 83.7175 33.206C84.1009 32.9173 84.4974 32.6017 84.9251 32.3802C84.9447 32.37 85.0904 32.2868 85.0344 32.3196C84.5788 32.5865 84.1193 32.8411 83.6519 33.0866C83.5683 33.1305 83.4854 33.1753 83.403 33.2211C83.3865 33.2303 83.3919 33.2382 83.3996 33.2245C83.4498 33.1353 83.5784 33.0502 83.657 32.9857C83.9783 32.7218 84.3148 32.4329 84.6829 32.233C84.9122 32.1086 85.156 31.9895 85.4019 31.9076C85.6112 31.8378 85.8414 31.737 86.036 31.6275C86.0961 31.5937 86.1625 31.5689 86.2194 31.5291C86.264 31.4979 86.3573 31.4795 86.3909 31.4459C86.432 31.4048 86.2832 31.4904 86.2337 31.5207C86.1059 31.5988 85.9702 31.6725 85.8359 31.7385C85.4928 31.9071 85.2012 32.161 84.8621 32.3398C84.5337 32.5129 84.2216 32.7407 83.8823 32.8915C83.801 32.9276 83.7247 32.9867 83.6452 33.0243C83.6099 33.0411 83.5734 33.0527 83.5392 33.0698C83.4126 33.1331 83.7641 32.8966 83.8857 32.8242C84.1591 32.6614 84.4284 32.4909 84.6997 32.3247C84.9162 32.192 85.5435 31.7671 85.3557 31.9378C85.3278 31.9632 85.2923 31.9802 85.2615 32.0017C84.9005 32.2539 84.4889 32.4208 84.1052 32.635C83.8996 32.7497 83.6934 32.8624 83.4862 32.9739C83.426 33.0063 83.3342 33.0242 83.2903 33.0807C83.057 33.3806 82.6995 33.5775 82.3888 33.7846" stroke="#F1A33B" stroke-width="0.1" stroke-linecap="round"/>
<path d="M86.7624 31.5393C86.7624 31.5865 86.7422 31.6322 86.7248 31.675C86.6893 31.7616 86.6549 31.8457 86.6069 31.9261C86.5214 32.0691 86.4277 32.2061 86.3398 32.3476C86.2913 32.4257 86.2505 32.5084 86.2018 32.5864C86.1852 32.6129 86.1742 32.6434 86.1567 32.6696" stroke="#F1A33B" stroke-width="0.1" stroke-linecap="round"/>
<path d="M86.6813 31.5631C86.6813 31.5851 86.6625 31.612 86.6532 31.6293C86.593 31.7416 86.5246 31.8495 86.4603 31.9595C86.3538 32.1419 86.241 32.3238 86.1456 32.5127C86.1169 32.5695 86.0898 32.627 86.0613 32.6838" stroke="#F1A33B" stroke-width="0.1" stroke-linecap="round"/>
<path d="M85.5034 31.9924C85.5246 31.99 85.553 31.961 85.5702 31.9495C85.5965 31.9317 85.6225 31.9142 85.6491 31.897C85.6838 31.8745 85.7185 31.852 85.7541 31.8308C85.9344 31.723 86.1192 31.6224 86.302 31.5187C86.3588 31.4864 86.418 31.4489 86.4763 31.4175C86.4951 31.4073 86.5138 31.3963 86.533 31.3867C86.5696 31.3684 86.6097 31.3556 86.6456 31.3366C86.6871 31.3147 86.7303 31.3026 86.772 31.2829C86.7888 31.2749 86.8057 31.2651 86.8234 31.259C86.8404 31.2531 86.8261 31.28 86.8242 31.289C86.8218 31.2993 86.8133 31.3171 86.8077 31.3271C86.7976 31.3453 86.7915 31.3701 86.7839 31.3896C86.7739 31.4151 86.7632 31.4418 86.7502 31.4659C86.7293 31.5048 86.7186 31.5496 86.6957 31.587C86.6767 31.6178 86.6653 31.6536 86.648 31.6856C86.6306 31.7177 86.6163 31.7514 86.5992 31.7836C86.5538 31.8691 86.5083 31.9549 86.4657 32.0419C86.4261 32.1227 86.3882 32.209 86.3375 32.2838C86.3149 32.317 86.2954 32.3518 86.2739 32.3856C86.2627 32.4031 86.2561 32.3934 86.2378 32.3834" stroke="#F1A33B" stroke-width="0.1" stroke-linecap="round"/>
<path d="M86.6813 31.401C86.7038 31.4038 86.6579 31.483 86.657 31.4847C86.5404 31.6956 86.4017 31.894 86.276 32.0994C86.1822 32.2526 86.0876 32.4052 85.9941 32.5585C85.9841 32.575 85.9594 32.6362 85.9326 32.6362" stroke="#F1A33B" stroke-width="0.1" stroke-linecap="round"/>
<path d="M86.4715 31.6729C86.4526 31.7232 86.3983 31.7722 86.3623 31.8096C86.2024 31.9756 86.0279 32.1278 85.8627 32.2886C85.7739 32.3749 85.6818 32.46 85.5998 32.553C85.5883 32.566 85.5725 32.583 85.5558 32.5885" stroke="#F1A33B" stroke-width="0.1" stroke-linecap="round"/>
<path d="M86.5287 31.6061C86.5211 31.6069 86.5146 31.6137 86.5086 31.6177C86.4697 31.6437 86.429 31.6659 86.3878 31.6877C86.2985 31.7349 86.2148 31.7894 86.1281 31.8408C86.0164 31.907 85.9041 31.9743 85.7855 32.0276C85.6703 32.0795 85.5515 32.1236 85.4387 32.181C85.3746 32.2136 85.3111 32.2467 85.2411 32.2642" stroke="#F1A33B" stroke-width="0.1" stroke-linecap="round"/>
<path d="M85.222 32.2594C85.2291 32.2495 85.2425 32.2427 85.252 32.2364C85.3002 32.2043 85.3475 32.1712 85.3943 32.137C85.5067 32.0549 85.6194 31.973 85.7318 31.8909C85.8407 31.8114 85.9544 31.7329 86.0781 31.6779C86.115 31.6615 86.1513 31.6472 86.1854 31.6252C86.1983 31.6168 86.2088 31.6061 86.2235 31.6061" stroke="#F1A33B" stroke-width="0.1" stroke-linecap="round"/>
<path d="M86.4381 31.6538C86.4212 31.6842 86.3877 31.7094 86.3629 31.7338C86.3587 31.7379 86.3215 31.7672 86.3234 31.7598C86.336 31.7095 86.3743 31.6677 86.3979 31.6226C86.4023 31.614 86.4343 31.5581 86.4175 31.5635C86.3795 31.5755 86.3429 31.6009 86.3091 31.621C86.2603 31.65 86.2121 31.68 86.1636 31.7097C86.1111 31.7419 86.0568 31.7713 86.0026 31.8006C85.9783 31.8137 85.9444 31.8353 85.9167 31.839C85.9005 31.8412 85.9689 31.7728 85.9724 31.7699C86.0076 31.7398 86.0452 31.7126 86.082 31.6845C86.1102 31.6631 86.1437 31.6277 86.1764 31.6141C86.2194 31.5961 86.2115 31.7443 86.214 31.763C86.2154 31.7735 86.2165 31.8009 86.2315 31.8085C86.2339 31.8098 86.2411 31.8057 86.2447 31.8067C86.2511 31.8085 86.1842 31.913 86.1769 31.9246C86.1729 31.9309 86.1385 31.9863 86.1536 31.9712C86.1843 31.9405 86.2099 31.9075 86.2421 31.878C86.2515 31.8693 86.2881 31.8306 86.2596 31.8647C86.23 31.9 86.1968 31.9447 86.1472 31.9447" stroke="#F1A33B" stroke-width="0.1" stroke-linecap="round"/>
<path d="M71.1323 41.5056C71.1903 41.4441 71.256 41.3855 71.3215 41.3309C71.392 41.2722 71.4677 41.2152 71.5346 41.1526C71.611 41.0811 71.6961 41.0186 71.7724 40.9468C71.824 40.8983 71.8823 40.8534 71.9389 40.8106C71.9812 40.7787 72.0275 40.7448 72.0651 40.708C72.0913 40.6823 72.1239 40.6641 72.1525 40.6409C72.1996 40.6025 72.2491 40.5681 72.2987 40.533C72.3826 40.4735 72.4682 40.4142 72.5488 40.3502C72.585 40.3215 72.632 40.3033 72.6644 40.2709" stroke="#F1A33B" stroke-width="0.1" stroke-linecap="round"/>
<path d="M71.0376 41.5146C71.421 41.5146 71.8044 41.5146 72.1877 41.5146C72.2909 41.5146 72.3942 41.5101 72.4972 41.5101C72.5664 41.5101 72.6349 41.501 72.704 41.501C72.7669 41.501 72.8366 41.5083 72.8982 41.4943C72.9538 41.4817 73.0267 41.5047 73.079 41.4785" stroke="#F1A33B" stroke-width="0.1" stroke-linecap="round"/>
<path d="M71.2629 41.465C71.5573 41.465 71.8518 41.458 72.1457 41.44C72.2402 41.4342 72.3351 41.4369 72.4291 41.4255C72.5022 41.4166 72.5753 41.4069 72.6484 41.3984C72.767 41.3846 72.8876 41.3839 73.0069 41.3839" stroke="#F1A33B" stroke-width="0.1" stroke-linecap="round"/>
<path d="M71.299 41.4244C71.8261 41.4244 72.3513 41.3874 72.8767 41.3468C72.9975 41.3374 73.1199 41.3336 73.2397 41.3143C73.2678 41.3097 73.2983 41.3027 73.3268 41.3027" stroke="#F1A33B" stroke-width="0.1" stroke-linecap="round"/>
<path d="M72.6149 41.4109C72.6689 41.4109 72.723 41.4109 72.7771 41.4109C72.7873 41.4109 72.8377 41.4184 72.8267 41.4019" stroke="#F1A33B" stroke-width="0.1" stroke-linecap="round"/>
<path d="M71.3666 41.3884C71.536 41.3627 71.6953 41.2827 71.8533 41.2207C72.0758 41.1333 72.2952 41.0378 72.5192 40.954C72.6326 40.9117 72.7449 40.8637 72.8604 40.8274C72.8996 40.8151 72.9391 40.7942 72.9799 40.7891" stroke="#F1A33B" stroke-width="0.1" stroke-linecap="round"/>
<path d="M71.691 41.3839C71.7399 41.3721 71.7857 41.3554 71.8322 41.3363C71.9512 41.2875 72.0695 41.2364 72.1872 41.1846C72.3412 41.1168 72.4894 41.035 72.6446 40.9703C72.6785 40.9562 72.7134 40.9447 72.747 40.9303C72.7753 40.9181 72.8102 40.9097 72.8357 40.8927" stroke="#F1A33B" stroke-width="0.1" stroke-linecap="round"/>
<path d="M72.0155 41.3298C72.2637 41.2116 72.5076 41.085 72.7566 40.9683C72.8631 40.9183 72.9754 40.8764 73.079 40.8206" stroke="#F1A33B" stroke-width="0.1" stroke-linecap="round"/>
<path d="M72.2769 41.2758C72.2998 41.2758 72.3235 41.2634 72.344 41.2547C72.4143 41.225 72.4817 41.1887 72.551 41.1566C72.6198 41.1247 72.687 41.088 72.759 41.064" stroke="#F1A33B" stroke-width="0.1" stroke-linecap="round"/>
<path d="M71.4567 41.402C71.8097 41.402 72.1628 41.3975 72.5157 41.3975" stroke="#F1A33B" stroke-width="0.1" stroke-linecap="round"/>
<path d="M71.8983 41.3929C72.0794 41.3929 72.2598 41.3748 72.4381 41.3429C72.514 41.3293 72.5926 41.3199 72.6674 41.3008C72.6965 41.2934 72.7249 41.2852 72.7545 41.2803" stroke="#F1A33B" stroke-width="0.1" stroke-linecap="round"/>
<path d="M72.2228 41.2802C72.1785 41.2802 72.3113 41.2793 72.3555 41.2757C72.4708 41.2665 72.5852 41.2462 72.7004 41.2352C72.7463 41.2308 72.7943 41.2289 72.8396 41.2206C72.8651 41.216 72.8907 41.2081 72.9168 41.2081" stroke="#F1A33B" stroke-width="0.1" stroke-linecap="round"/>
<path d="M72.2633 41.2667C72.2001 41.2667 72.1371 41.2712 72.0741 41.2712C72.0354 41.2712 72.0571 41.2664 72.0871 41.2667C72.1846 41.2678 72.2835 41.2785 72.3805 41.2893" stroke="#F1A33B" stroke-width="0.1" stroke-linecap="round"/>
<path d="M71.4612 41.3118C71.5193 41.2793 71.5725 41.2356 71.6254 41.1956C71.7784 41.0798 71.9293 40.9612 72.0866 40.8511C72.2868 40.7109 72.5004 40.5911 72.7004 40.451" stroke="#F1A33B" stroke-width="0.1" stroke-linecap="round"/>
<path d="M71.7045 41.046C71.7216 41.0308 71.7487 41.0203 71.7681 41.0084C71.9438 40.9014 72.1168 40.7911 72.2899 40.6799C72.3414 40.6468 72.3938 40.6149 72.4451 40.5813C72.467 40.567 72.4921 40.5541 72.5067 40.5322" stroke="#F1A33B" stroke-width="0.1" stroke-linecap="round"/>
<path d="M72.2904 40.6042C72.0837 40.7895 71.8859 40.9923 71.6595 41.154" stroke="#F1A33B" stroke-width="0.1" stroke-linecap="round"/>
<path d="M71.6099 41.2623C71.6096 41.2623 71.6057 41.2639 71.6067 41.2638C71.6297 41.2599 71.6767 41.2146 71.6915 41.2037C71.8898 41.0574 72.0885 40.9119 72.2949 40.7771C72.3548 40.7379 72.4184 40.7038 72.4776 40.6639C72.4898 40.6557 72.5018 40.645 72.5157 40.6404" stroke="#F1A33B" stroke-width="0.1" stroke-linecap="round"/>
<path d="M71.7902 41.1721C71.8764 41.1236 71.9581 41.0679 72.045 41.0203C72.1524 40.9615 72.2616 40.907 72.3715 40.8531C72.4299 40.8245 72.4898 40.7952 72.5472 40.7665" stroke="#F1A33B" stroke-width="0.1" stroke-linecap="round"/>
<path d="M71.8127 41.145C71.908 41.145 72.0095 41.1091 72.0988 41.0809C72.2491 41.0335 72.394 40.9701 72.5417 40.9157C72.623 40.8858 72.7051 40.8599 72.7861 40.8296" stroke="#F1A33B" stroke-width="0.1" stroke-linecap="round"/>
<path d="M71.9885 41.2262C72.0144 41.2262 72.0387 41.2388 72.0641 41.2397C72.0794 41.2403 72.0958 41.2423 72.1101 41.2477C72.1197 41.2514 72.1527 41.2475 72.1587 41.2578C72.1667 41.2714 72.1534 41.2963 72.1509 41.3098C72.1499 41.3154 72.1507 41.3325 72.1507 41.3269C72.1507 41.2887 72.1683 41.2468 72.178 41.2104C72.1998 41.1286 72.2324 41.0467 72.2496 40.9638C72.253 40.9473 72.2813 40.9265 72.2924 40.9133C72.3042 40.8992 72.3309 40.8758 72.3309 40.8567" stroke="#F1A33B" stroke-width="0.1" stroke-linecap="round"/>
<path d="M72.5382 40.406C72.5478 40.3779 72.5749 40.3532 72.5938 40.3308C72.6098 40.312 72.6233 40.2942 72.6371 40.2735C72.6498 40.2544 72.6692 40.2344 72.6872 40.2209C72.7272 40.1909 72.7632 40.1561 72.8021 40.1243C72.937 40.0139 73.0868 39.9242 73.2322 39.8291C73.3094 39.7786 73.3888 39.7313 73.4678 39.6834C73.6096 39.5974 73.7426 39.4956 73.8891 39.4173C73.9806 39.3684 74.0703 39.3167 74.163 39.2703C74.2086 39.2476 74.2517 39.2183 74.2967 39.1937C74.3169 39.1827 74.3655 39.1668 74.3768 39.1442" stroke="#F1A33B" stroke-width="0.1" stroke-linecap="round"/>
<path d="M72.8762 40.2348C72.8798 40.199 72.9403 40.167 72.9638 40.1497C73.056 40.0819 73.1498 40.016 73.2432 39.9499C73.3126 39.9008 73.3837 39.8556 73.4545 39.8087C73.4852 39.7884 73.5189 39.7699 73.5477 39.7471C73.5488 39.7462 73.5683 39.7317 73.5567 39.7396C73.5214 39.7637 73.4837 39.7845 73.4473 39.8067C73.277 39.9103 73.1125 40.0223 72.9451 40.1302C72.8774 40.1737 72.8136 40.2226 72.7505 40.2724C72.7349 40.2847 72.72 40.2988 72.705 40.3117C72.6972 40.3184 72.6524 40.352 72.6804 40.3302C72.8294 40.2141 72.9791 40.0997 73.1361 39.9945C73.2444 39.9219 73.3569 39.8555 73.4661 39.7842C73.5728 39.7144 73.6612 39.6226 73.7775 39.5679" stroke="#F1A33B" stroke-width="0.1" stroke-linecap="round"/>
<path d="M73.5702 39.6309C73.6252 39.5759 73.6995 39.5396 73.7504 39.4802C73.7757 39.4508 73.8195 39.4282 73.8493 39.4033C73.8669 39.3887 73.8889 39.3785 73.9057 39.363C73.9253 39.3449 73.9477 39.3254 73.9698 39.3107C73.9912 39.2964 74.0118 39.2865 74.0343 39.2739C74.0771 39.25 74.1169 39.213 74.1575 39.185C74.244 39.1254 74.3331 39.0685 74.4199 39.0085C74.4679 38.9754 74.5115 38.9348 74.5636 38.9079C74.6119 38.8829 74.6592 38.8523 74.7058 38.8243C74.7945 38.7708 74.8828 38.7136 74.9682 38.655C75.0873 38.5733 75.2076 38.4942 75.3277 38.4142" stroke="#F1A33B" stroke-width="0.1" stroke-linecap="round"/>
<path d="M75.3772 38.4683C75.3383 38.4715 75.3068 38.4882 75.2731 38.5063C75.208 38.5414 75.1438 38.5764 75.0811 38.6155C75.0384 38.642 74.9879 38.6693 74.9516 38.7046C74.9275 38.7281 74.896 38.7541 74.8678 38.7724C74.8041 38.8138 74.7461 38.8649 74.6837 38.9084C74.6168 38.955 74.5526 39.0047 74.4875 39.0538C74.4584 39.0758 74.4292 39.1043 74.3948 39.1172" stroke="#F1A33B" stroke-width="0.1" stroke-linecap="round"/>
<path d="M75.1069 38.5719C75.1264 38.5524 75.1492 38.5426 75.1745 38.5336C75.1909 38.5278 75.2018 38.514 75.216 38.5043C75.2645 38.4714 75.3062 38.4302 75.3527 38.3947C75.4194 38.3438 75.4815 38.2868 75.5495 38.2375C75.6187 38.1873 75.6897 38.1384 75.7565 38.085C75.8101 38.0422 75.8742 38.0102 75.9305 37.9711C75.9713 37.9428 76.0151 37.9188 76.0552 37.8895C76.0735 37.8761 76.0921 37.8643 76.1113 37.8524C76.3474 37.7068 76.5739 37.5446 76.805 37.3913C76.8869 37.337 76.9822 37.3212 77.0666 37.2743C77.1014 37.255 77.1333 37.2307 77.1673 37.21C77.1861 37.1986 77.2022 37.184 77.2249 37.184" stroke="#F1A33B" stroke-width="0.1" stroke-linecap="round"/>
<path d="M77.2249 37.184C77.2032 37.184 77.1665 37.2072 77.1493 37.2198C77.1034 37.2531 77.0518 37.278 77.0033 37.3071C76.9056 37.3658 76.8095 37.4265 76.7131 37.4874C76.496 37.6246 76.2844 37.7692 76.0702 37.9107C75.9808 37.9698 75.8906 38.0316 75.8079 38.0998C75.7433 38.153 75.678 38.2065 75.6121 38.258C75.5447 38.3106 75.469 38.3607 75.4098 38.4222C75.4076 38.4245 75.3895 38.4406 75.3978 38.43C75.4441 38.3705 75.5138 38.326 75.5743 38.2833C75.7248 38.177 75.8815 38.0806 76.0367 37.9816C76.1116 37.9338 76.1839 37.8827 76.259 37.8354C76.4339 37.7252 76.6167 37.6314 76.7945 37.5262C76.9299 37.4461 77.063 37.3608 77.1993 37.2826C77.2154 37.2734 77.235 37.2606 77.2542 37.2606C77.2637 37.2606 77.2305 37.283 77.2254 37.2861C77.1424 37.3373 77.0525 37.3769 76.969 37.4273C76.8711 37.4863 76.7722 37.5437 76.6731 37.6006C76.4719 37.716 76.2845 37.8554 76.0958 37.9896C76.0296 38.0367 75.964 38.085 75.9 38.1348C75.8779 38.152 75.8497 38.1627 75.8264 38.1789C75.8118 38.189 75.8049 38.1934 75.7873 38.1934" stroke="#F1A33B" stroke-width="0.1" stroke-linecap="round"/>
<path d="M75.918 37.9996C75.9204 37.976 75.9681 37.9456 75.9856 37.931C76.013 37.9084 76.0449 37.8862 76.0687 37.8602C76.0976 37.8287 76.1315 37.7875 76.1726 37.7723C76.2258 37.7527 76.2696 37.7028 76.3191 37.6752C76.3657 37.6491 76.4088 37.6075 76.4518 37.575C76.5705 37.4852 76.6916 37.4029 76.8156 37.3209C76.9764 37.2146 77.1367 37.1088 77.3 37.0057C77.3785 36.9561 77.4546 36.9141 77.5391 36.8771C77.619 36.842 77.6953 36.8025 77.7782 36.7749C77.8358 36.7557 77.8967 36.7377 77.9504 36.7108" stroke="#F1A33B" stroke-width="0.1" stroke-linecap="round"/>
<path d="M77.1753 37.2831C77.261 37.224 77.3435 37.1616 77.4316 37.1058C77.5495 37.0312 77.6702 36.9632 77.7929 36.8968C77.7968 36.8946 77.8684 36.8584 77.8332 36.8785C77.7133 36.947 77.5885 37.0078 77.4672 37.0738C77.3163 37.1559 77.1657 37.2391 77.0221 37.3336C77.0081 37.3428 76.9675 37.3716 76.9823 37.3639C77.0952 37.3051 77.2035 37.2356 77.3137 37.1719C77.4288 37.1054 77.5433 37.0365 77.662 36.9766C77.673 36.9711 77.7093 36.9521 77.7085 36.9526C77.591 37.0289 77.4741 37.1016 77.3638 37.1887C77.3285 37.2166 77.2899 37.2444 77.2594 37.2781C77.2546 37.2833 77.2389 37.2958 77.2459 37.2946C77.2628 37.2916 77.2765 37.279 77.2914 37.2705C77.3419 37.2419 77.4103 37.2017 77.4582 37.1734C77.5604 37.113 77.6631 37.0535 77.7656 36.9937C77.7782 36.9863 77.7924 36.9786 77.8032 36.9686C77.8172 36.9555 77.7642 36.9672 77.7458 36.9726C77.6062 37.0139 77.4715 37.0733 77.3307 37.1098C77.3134 37.1143 77.2992 37.1195 77.3247 37.1011C77.3879 37.0555 77.4553 37.0165 77.5223 36.9771C77.5846 36.9405 77.6465 36.9003 77.7118 36.8692C77.7922 36.8309 77.5474 36.9384 77.4677 36.9781C77.3994 37.0121 77.32 37.0403 77.2571 37.0843C77.174 37.1425 77.4391 36.9945 77.5298 36.9491C77.7666 36.8307 78.0044 36.7154 78.2438 36.6023C78.2791 36.5857 78.3143 36.5691 78.3489 36.551C78.3662 36.542 78.387 36.5355 78.401 36.5215" stroke="#F1A33B" stroke-width="0.1" stroke-linecap="round"/>
<path d="M77.8333 36.7783C77.8352 36.7612 77.8703 36.7413 77.8828 36.7288C77.9009 36.7107 77.9213 36.6955 77.9399 36.6782C77.9634 36.6563 77.995 36.6418 78.016 36.6171C78.026 36.6053 78.0427 36.6019 78.0541 36.5911C78.0628 36.5828 78.0746 36.575 78.0859 36.5708C78.1237 36.5566 78.1626 36.5266 78.1955 36.5037C78.2363 36.4753 78.2792 36.4491 78.3214 36.4228C78.446 36.3455 78.5668 36.2627 78.6905 36.1845C78.9311 36.0323 79.1823 35.8935 79.4035 35.7126C79.4841 35.6466 79.5556 35.5654 79.6423 35.5075C79.6798 35.4826 79.7139 35.459 79.7575 35.4445" stroke="#F1A33B" stroke-width="0.1" stroke-linecap="round"/>
<path d="M77.8828 36.855C78.0198 36.7245 78.1853 36.6258 78.3457 36.528C78.4411 36.4699 78.5366 36.4122 78.6294 36.3497C78.6646 36.3261 78.6977 36.3001 78.7335 36.2771C78.7682 36.2549 78.8068 36.2329 78.8337 36.2015" stroke="#F1A33B" stroke-width="0.1" stroke-linecap="round"/>
<path d="M78.8382 36.1925C78.7822 36.1925 78.7317 36.2068 78.6804 36.2291C78.5679 36.2778 78.4622 36.3566 78.3637 36.4286C78.2882 36.4839 78.205 36.5331 78.1342 36.5943C78.098 36.6256 78.0577 36.6527 78.018 36.6792" stroke="#F1A33B" stroke-width="0.1" stroke-linecap="round"/>
<path d="M78.6714 36.206C78.6725 36.1975 78.6924 36.1876 78.6985 36.1825C78.7199 36.1643 78.7361 36.1415 78.7581 36.1239C78.7937 36.0954 78.8284 36.0666 78.863 36.0373C78.9005 36.0056 78.9348 35.9701 78.9739 35.9397C79.0108 35.911 79.0536 35.8754 79.095 35.8535C79.1513 35.8239 79.1948 35.7728 79.2478 35.7389C79.3236 35.6902 79.3979 35.6395 79.4736 35.5909C79.5286 35.5555 79.5886 35.5203 79.6386 35.478C79.6747 35.4475 79.7261 35.4215 79.771 35.4074C79.7937 35.4003 79.8114 35.379 79.8343 35.3721C79.8497 35.3675 79.8899 35.3509 79.8972 35.3363" stroke="#F1A33B" stroke-width="0.1" stroke-linecap="round"/>
<path d="M80.2712 35.0974C80.2763 35.1039 80.5519 34.9031 80.6072 34.8741C80.6376 34.8582 80.6637 34.8231 80.69 34.8C80.7011 34.7903 80.7117 34.7833 80.7253 34.7775C80.7428 34.77 80.7552 34.7536 80.7719 34.7439C80.8589 34.6938 80.9358 34.6254 81.0212 34.5725C81.051 34.5541 81.0759 34.528 81.1049 34.5094C81.1187 34.5004 81.1473 34.4808 81.1544 34.4666" stroke="#F1A33B" stroke-width="0.1" stroke-linecap="round"/>
<path d="M73.7039 41.468C73.8254 41.468 73.947 41.468 74.0686 41.468C74.121 41.468 74.2024 41.5036 74.2509 41.5254C74.2822 41.5395 74.3383 41.5288 74.3725 41.5288" stroke="#F1A33B" stroke-width="0.1" stroke-linecap="round"/>
<path d="M74.0258 41.5522C74.0899 41.5522 74.1469 41.5753 74.206 41.5957C74.2584 41.6139 74.3138 41.6268 74.3688 41.6349C74.4901 41.6528 74.6099 41.6684 74.7317 41.6821C75.0025 41.7126 75.2816 41.7153 75.5527 41.7256" stroke="#F1A33B" stroke-width="0.1" stroke-linecap="round"/>
<path d="M74.283 41.5522C74.0786 41.5522 74.692 41.5522 74.8964 41.5522C75.1169 41.5522 75.3383 41.5634 75.5583 41.5634" stroke="#F1A33B" stroke-width="0.1" stroke-linecap="round"/>
<path d="M74.4285 41.5579C74.4968 41.5579 74.5652 41.5579 74.6336 41.5579C74.7325 41.5579 74.8293 41.5735 74.926 41.5942C75.0214 41.6147 75.1076 41.6438 75.2059 41.6501C75.2927 41.6558 75.3797 41.656 75.4663 41.6629C75.4963 41.6653 75.5484 41.6775 75.5751 41.6641" stroke="#F1A33B" stroke-width="0.1" stroke-linecap="round"/>
<path d="M74.5459 41.6306H75.0325" stroke="#F1A33B" stroke-width="0.1" stroke-linecap="round"/>
<path d="M74.9486 41.7032C75.0168 41.7032 75.0793 41.7027 75.1388 41.7424" stroke="#F1A33B" stroke-width="0.1" stroke-linecap="round"/>
<path d="M74.9598 41.7368C75.0217 41.7368 75.0864 41.7636 75.1444 41.7844C75.1595 41.7898 75.176 41.7917 75.1919 41.7931C75.2208 41.7956 75.2472 41.8109 75.2758 41.8151C75.327 41.8227 75.3816 41.8371 75.4315 41.8521C75.5218 41.8792 75.615 41.8914 75.7068 41.9102C75.8255 41.9345 75.947 41.9533 76.0672 41.973C76.1736 41.9904 76.2803 42.0085 76.3864 42.0218C76.4689 42.0321 76.5542 42.0277 76.6374 42.0277C76.6792 42.0277 76.7279 42.0351 76.7676 42.0233C76.816 42.009 76.873 42.0275 76.923 42.0121C76.9605 42.0006 77.0097 42.0053 77.0492 42.0053C77.1054 42.0053 77.1317 42.002 77.1859 41.9773" stroke="#F1A33B" stroke-width="0.1" stroke-linecap="round"/>
<path d="M75.3625 41.7816C75.4359 41.7816 75.5102 41.7782 75.5834 41.7844C75.6797 41.7926 75.7774 41.8184 75.8721 41.8382C75.9736 41.8594 76.0758 41.8857 76.1766 41.9103C76.2116 41.9188 76.245 41.9299 76.2785 41.9426C76.2958 41.9491 76.4381 42.0229 76.4438 42.0153C76.4652 41.9868 76.2296 41.8861 76.2145 41.8805C76.0244 41.8087 75.839 41.7816 75.6397 41.7816C75.6336 41.7816 75.5584 41.7728 75.5539 41.7773C75.5507 41.7805 75.5823 41.7952 75.5862 41.7972C75.6269 41.8175 75.6593 41.834 75.7037 41.8444C75.732 41.8511 75.6987 41.841 75.6894 41.8376C75.6608 41.8272 75.6397 41.8059 75.6142 41.7903C75.6107 41.7882 75.5649 41.7516 75.5729 41.7484C75.5971 41.7387 75.6265 41.7593 75.6481 41.768C75.7097 41.7928 75.77 41.821 75.8323 41.8444C75.8488 41.8506 75.8977 41.8709 75.8817 41.8634C75.8237 41.8357 75.7671 41.805 75.7086 41.7779C75.6943 41.7713 75.651 41.7524 75.6645 41.7605C75.6849 41.7727 75.7032 41.7875 75.7242 41.799C75.7738 41.8265 75.8188 41.8609 75.8702 41.8854C75.918 41.9082 75.9694 41.9251 76.0191 41.9432C76.1595 41.9943 76.3118 41.983 76.4588 41.983C76.5781 41.983 76.6974 41.983 76.8167 41.983C76.8488 41.983 76.881 41.983 76.9131 41.983C76.949 41.983 76.9827 41.9925 77.0181 41.9942C77.0495 41.9957 77.0767 42.011 77.1076 42.011" stroke="#F1A33B" stroke-width="0.1" stroke-linecap="round"/>
<path d="M76.8447 42.011C76.8727 42.011 76.9007 42.011 76.9286 42.011C76.9596 42.011 76.9866 42.0222 77.0181 42.0222C77.0461 42.0222 77.074 42.0222 77.102 42.0222C77.1139 42.0222 77.1497 42.0222 77.1378 42.0222C77.0647 42.0222 76.9917 42.0222 76.9187 42.0222C76.9026 42.0222 76.8545 42.0222 76.8705 42.0222C76.8913 42.0222 76.9122 42.0222 76.933 42.0222C76.9632 42.0222 76.9935 42.0222 77.0237 42.0222C77.053 42.0222 77.0797 42.0254 77.1064 42.0346C77.1208 42.0396 77.1916 42.0611 77.1971 42.0501" stroke="#F1A33B" stroke-width="0.1" stroke-linecap="round"/>
<path d="M77.9969 42.1843C78.0503 42.1843 78.1132 42.1767 78.1644 42.1927C78.2065 42.2058 78.2509 42.1932 78.2921 42.2054C78.3352 42.2182 78.3964 42.2235 78.4413 42.2235C78.4636 42.2235 78.4922 42.23 78.5143 42.235C78.5236 42.237 78.5335 42.2419 78.5423 42.2458C78.5623 42.2547 78.5838 42.2559 78.6035 42.2651C78.6659 42.2942 78.7478 42.2907 78.8142 42.3074C78.851 42.3166 78.8907 42.3174 78.9267 42.3285C78.9907 42.3482 79.065 42.3448 79.1271 42.372C79.1984 42.4032 79.2832 42.4053 79.3574 42.4292C79.3938 42.4409 79.4328 42.4474 79.4705 42.454C79.5013 42.4595 79.5258 42.4696 79.5575 42.4696" stroke="#F1A33B" stroke-width="0.1" stroke-linecap="round"/>
<path d="M78.1703 42.2235C78.2446 42.2235 78.3163 42.2403 78.3913 42.2403C78.4548 42.2403 78.5196 42.2434 78.5787 42.267C78.5871 42.2704 78.5976 42.2697 78.6066 42.2726C78.6904 42.3001 78.7767 42.3198 78.8608 42.3466C78.9036 42.3602 78.9436 42.3795 78.9882 42.3901C79.0522 42.4052 79.1207 42.4223 79.1827 42.4444C79.2558 42.4705 79.3395 42.482 79.4173 42.4917C79.4775 42.4992 79.5399 42.4976 79.601 42.4976C79.6542 42.4976 79.7107 42.5026 79.7632 42.4932C79.7966 42.4873 79.8321 42.4797 79.8654 42.4755C79.9045 42.4706 79.9419 42.4647 79.9801 42.4556C80.0056 42.4495 80.0361 42.4334 80.0609 42.4305C80.0857 42.4275 80.1263 42.4028 80.1469 42.3885C80.1832 42.3634 80.2044 42.3542 80.2231 42.313" stroke="#F1A33B" stroke-width="0.1" stroke-linecap="round"/>
<path d="M77.8068 42.2123C77.8621 42.2123 77.9145 42.2263 77.969 42.2291C78.0347 42.2323 78.1003 42.24 78.1654 42.2502C78.201 42.2558 78.2406 42.2514 78.2766 42.2514C78.3136 42.2514 78.3525 42.2626 78.3897 42.2626C78.4948 42.2626 78.5958 42.2883 78.6986 42.3061C78.8097 42.3254 78.9235 42.3366 79.036 42.3509C79.1413 42.3642 79.2451 42.3872 79.3496 42.4052C79.3915 42.4125 79.4368 42.4304 79.4791 42.4304" stroke="#F1A33B" stroke-width="0.1" stroke-linecap="round"/>
<path d="M78.6961 42.2234C78.9427 42.2234 79.1905 42.217 79.4363 42.2396C79.5618 42.2512 79.6878 42.2644 79.8135 42.2725C79.8375 42.2741 79.8616 42.2749 79.8856 42.2763C79.9119 42.2778 79.9409 42.2707 79.9645 42.2825C79.9955 42.298 79.8954 42.2857 79.8607 42.2862C79.7395 42.2882 79.6183 42.2892 79.4972 42.2934C79.3939 42.2969 79.2917 42.3073 79.1883 42.3073C79.1203 42.3073 79.0478 42.3148 78.9801 42.3061C78.9706 42.3049 78.9312 42.3061 78.9254 42.299C78.9231 42.296 78.9145 42.2896 78.9242 42.2974C78.9349 42.306 78.9518 42.3114 78.9646 42.3185C79.0445 42.3635 79.1295 42.3994 79.2132 42.4366C79.3756 42.5089 79.5769 42.5145 79.7514 42.5019C79.8113 42.4975 79.8671 42.4815 79.9241 42.4652C79.9582 42.4555 79.9803 42.4481 79.931 42.4385C79.856 42.4239 79.7798 42.42 79.7041 42.4111C79.6442 42.4041 79.585 42.3923 79.5251 42.3856C79.5125 42.3842 79.4745 42.3801 79.4872 42.3801C79.5569 42.3801 79.627 42.38 79.6964 42.3742C79.7203 42.3721 79.8225 42.3429 79.7464 42.3409C79.6718 42.3389 79.5757 42.333 79.5056 42.3605C79.48 42.3705 79.5318 42.3742 79.5394 42.3745C79.5565 42.375 79.4794 42.3745 79.4683 42.3745C79.4262 42.3745 79.3001 42.3745 79.3421 42.3745C79.5078 42.3745 79.6725 42.3882 79.8381 42.3686C79.9422 42.3562 80.0462 42.315 80.1432 42.2769C80.1761 42.264 80.2168 42.2423 80.2287 42.2067" stroke="#F1A33B" stroke-width="0.1" stroke-linecap="round"/>
<path d="M81.1292 41.0713C81.1244 41.0998 81.1048 41.1192 81.0906 41.1428C81.0684 41.1797 81.049 41.2182 81.0241 41.2534C81.0013 41.2857 80.988 41.3283 80.9639 41.3593C80.9118 41.4262 80.8775 41.5174 80.8411 41.5943C80.8184 41.6421 80.7811 41.6826 80.7513 41.726C80.7313 41.7551 80.7106 41.7892 80.6873 41.8152C80.6587 41.8471 80.6363 41.8943 80.6171 41.9326C80.5918 41.9832 80.5652 42.0321 80.5319 42.0781C80.4895 42.1368 80.4503 42.2028 80.394 42.2512C80.3543 42.2852 80.3118 42.3312 80.2591 42.3462C80.2481 42.3494 80.2369 42.355 80.2259 42.3574C80.2181 42.3591 80.2155 42.3609 80.2091 42.3658C80.1897 42.3809 80.1302 42.3798 80.1106 42.3829C80.0689 42.3895 80.0281 42.3969 79.986 42.3969C79.9803 42.3969 79.9641 42.3997 79.9689 42.3966C79.9777 42.3907 79.9927 42.3806 80.0006 42.3733C80.042 42.3346 80.0893 42.3021 80.1323 42.2651C80.1686 42.234 80.2009 42.1931 80.2392 42.1654C80.2553 42.1538 80.2633 42.131 80.2818 42.1228C80.2963 42.1164 80.3025 42.1279 80.2902 42.134" stroke="#F1A33B" stroke-width="0.1" stroke-linecap="round"/>
<path d="M80.4244 42.1005C80.4214 42.1246 80.3913 42.1467 80.3796 42.1676C80.3667 42.1909 80.3477 42.2153 80.3293 42.2347C80.3111 42.2539 80.2966 42.273 80.2777 42.2919C80.246 42.3236 80.2116 42.3554 80.1755 42.3829C80.1663 42.3899 80.1062 42.4267 80.1062 42.4333C80.1062 42.4478 80.1466 42.4253 80.1503 42.4249C80.183 42.4214 80.2124 42.4089 80.2426 42.4022C80.2785 42.3942 80.3196 42.3667 80.3427 42.3385C80.3799 42.293 80.4262 42.2488 80.4548 42.1974C80.4796 42.1529 80.4986 42.1082 80.5251 42.0644C80.551 42.0215 80.5822 41.9763 80.6006 41.9296C80.6223 41.8745 80.643 41.8211 80.6621 41.7652C80.676 41.7245 80.6834 41.6712 80.7097 41.6362" stroke="#F1A33B" stroke-width="0.1" stroke-linecap="round"/>
<path d="M82.08 39.4325C82.08 39.4847 82.0305 39.5472 82.0011 39.5897C81.947 39.6678 81.901 39.7511 81.8529 39.8327C81.6973 40.0965 81.5046 40.3365 81.3485 40.6002C81.3017 40.6793 81.2719 40.7705 81.2323 40.8535C81.1697 40.9846 81.0997 41.1127 81.0437 41.2472C81.0292 41.282 81.0162 41.3177 80.998 41.3507C80.9917 41.3621 80.9796 41.3768 80.9781 41.3901C80.9762 41.4076 80.9439 41.4519 80.9278 41.4573" stroke="#F1A33B" stroke-width="0.1" stroke-linecap="round"/>
<path d="M80.1895 42.3018C80.1918 42.2769 80.21 42.247 80.2212 42.2251C80.2491 42.1704 80.2788 42.1165 80.3057 42.0613C80.3509 41.9691 80.3894 41.8629 80.4188 41.7649" stroke="#F1A33B" stroke-width="0.1" stroke-linecap="round"/>
<path d="M80.7208 41.5859C80.7208 41.5413 80.782 41.4868 80.8053 41.4523C80.831 41.4142 80.8578 41.3779 80.8805 41.3379C80.9374 41.2381 80.9814 41.131 81.0266 41.025C81.1285 40.7863 81.268 40.5619 81.3948 40.3358C81.4944 40.1583 81.6142 39.9919 81.7127 39.8134C81.7556 39.7357 81.8051 39.662 81.8528 39.5872C81.8922 39.5256 81.9262 39.4552 81.9781 39.4033C81.983 39.3983 82.0218 39.3522 82.0237 39.366C82.025 39.3745 82.0257 39.3874 82.0237 39.3961C82.0068 39.4724 81.9649 39.5439 81.9358 39.617C81.9067 39.6902 81.868 39.7657 81.8258 39.8321C81.752 39.9481 81.6656 40.0524 81.5921 40.1689C81.5583 40.2225 81.5322 40.2806 81.4983 40.3342C81.4796 40.3637 81.4654 40.3957 81.4486 40.4262C81.435 40.4509 81.4164 40.4714 81.406 40.498C81.397 40.5209 81.38 40.5404 81.3684 40.5623C81.344 40.6084 81.3166 40.654 81.2901 40.699C81.2698 40.7335 81.2457 40.7647 81.2236 40.7978C81.211 40.8168 81.2047 40.839 81.1907 40.8575C81.1635 40.8932 81.1355 40.9295 81.1068 40.9638C81.0533 41.0275 81.0146 41.101 80.9669 41.1689C80.9243 41.2295 80.8767 41.2932 80.8507 41.3634C80.8392 41.3944 80.8327 41.4381 80.8327 41.4712C80.8327 41.4939 80.8236 41.5411 80.7991 41.5411" stroke="#F1A33B" stroke-width="0.1" stroke-linecap="round"/>
<path d="M81.9681 39.5891C81.946 39.6112 81.9346 39.6334 81.9178 39.6587C81.893 39.696 81.8599 39.7054 81.8239 39.7289C81.7821 39.7563 81.754 39.7975 81.7223 39.8349C81.7181 39.8399 81.6835 39.8794 81.6835 39.8772C81.6835 39.8732 81.7082 39.8597 81.7102 39.8582C81.7457 39.8315 81.7766 39.7997 81.8115 39.7724C81.8406 39.7497 81.8694 39.7271 81.8979 39.7038C81.9288 39.6785 82.0318 39.6172 81.9961 39.6351C81.9714 39.6475 81.9685 39.6848 81.9513 39.7041C81.932 39.7258 81.9186 39.7607 81.9066 39.7877C81.897 39.8092 81.8735 39.8301 81.8606 39.852C81.8487 39.8723 81.8268 39.9103 81.8087 39.9247C81.8015 39.9305 81.8008 39.9441 81.7935 39.9514C81.7821 39.9628 81.7709 39.98 81.764 39.9946C81.7402 40.0447 81.7134 40.1076 81.6748 40.1484C81.6598 40.1643 81.6494 40.1798 81.6394 40.1988C81.604 40.2655 81.5411 40.3151 81.5095 40.3861C81.4865 40.4379 81.4551 40.4842 81.4222 40.53C81.3837 40.5835 81.3613 40.6467 81.3193 40.6966C81.2963 40.7238 81.2834 40.7657 81.2659 40.7976C81.2492 40.8278 81.2267 40.8575 81.2158 40.8902C81.2011 40.9343 81.1831 40.9765 81.1627 41.0185C81.1572 41.0298 81.1511 41.0436 81.1403 41.0489" stroke="#F1A33B" stroke-width="0.1" stroke-linecap="round"/>
<path d="M81.6494 40.2155C81.6494 40.277 81.5763 40.3246 81.549 40.3746C81.5226 40.423 81.4852 40.4678 81.4523 40.512C81.4226 40.552 81.3963 40.5942 81.3666 40.6338C81.3232 40.6917 81.276 40.7562 81.2466 40.8224C81.2161 40.8912 81.1919 40.9632 81.1528 41.0278C81.1495 41.0333 81.1337 41.0707 81.1264 41.0707C81.1186 41.0707 81.1578 41.002 81.1593 40.9995C81.1812 40.9635 81.2011 40.9225 81.2268 40.8895C81.2605 40.8461 81.2915 40.8058 81.3305 40.7668C81.3678 40.7296 81.3892 40.6746 81.42 40.6322C81.4831 40.5455 81.5263 40.4433 81.5698 40.3454C81.6043 40.2678 81.645 40.1908 81.6829 40.1149" stroke="#F1A33B" stroke-width="0.1" stroke-linecap="round"/>
<path d="M82.9973 37.7433C82.9973 37.7797 82.9659 37.8151 82.9467 37.8446C82.91 37.9008 82.8696 37.9543 82.8351 38.0118C82.7829 38.0988 82.7116 38.1768 82.6474 38.2551C82.5826 38.334 82.5157 38.4107 82.4548 38.4928C82.3847 38.5871 82.3221 38.6865 82.2546 38.7824C82.1986 38.8621 82.1557 38.9536 82.1061 39.0375C82.0712 39.0967 82.034 39.1553 82.0033 39.2168C81.9914 39.2406 81.9615 39.3374 81.9234 39.3374" stroke="#F1A33B" stroke-width="0.1" stroke-linecap="round"/>
<path d="M83.0029 37.8104C83.0029 37.8674 82.9731 37.909 82.9441 37.9558C82.9139 38.0048 82.8844 38.0582 82.8574 38.1094C82.8283 38.1647 82.7881 38.2094 82.7549 38.2625C82.7237 38.3125 82.6912 38.3611 82.6604 38.4114C82.5956 38.5174 82.5137 38.6131 82.451 38.7212C82.3872 38.8312 82.3226 38.9408 82.259 39.0509C82.2206 39.1172 82.1821 39.1831 82.1502 39.2529C82.1242 39.3099 82.0989 39.3694 82.0561 39.4163C82.0353 39.4391 82.01 39.4548 81.9793 39.4548" stroke="#F1A33B" stroke-width="0.1" stroke-linecap="round"/>
<path d="M82.9637 37.6985C82.9271 37.768 82.8557 37.8253 82.8031 37.8824C82.6956 37.999 82.5958 38.1205 82.52 38.2603C82.4244 38.4365 82.3407 38.6178 82.2279 38.7842C82.1271 38.9329 82.0339 39.0815 81.9572 39.2444C81.9226 39.3179 81.8828 39.3999 81.8786 39.4827C81.8784 39.4865 81.8765 39.497 81.8786 39.4939C82.061 39.2371 82.2186 38.9593 82.3845 38.6916C82.443 38.5971 82.4969 38.4997 82.556 38.4057C82.6068 38.325 82.6446 38.2385 82.6928 38.1568C82.7161 38.1173 82.7512 38.088 82.7748 38.0496C82.7831 38.036 82.7959 38.0201 82.7959 38.0033C82.7959 37.9856 82.7959 37.9679 82.7959 37.9502C82.7959 37.9352 82.7952 37.9479 82.8043 37.9499C82.8157 37.9524 82.832 37.9509 82.8432 37.9489C82.8721 37.9439 82.8996 37.9117 82.9271 37.9117C82.9336 37.9117 82.9085 37.9583 82.9075 37.9648C82.9007 38.0085 82.8789 38.058 82.8618 38.0993C82.8232 38.1925 82.7837 38.2854 82.7387 38.3753C82.6825 38.4878 82.602 38.5876 82.543 38.6997C82.497 38.787 82.427 38.8637 82.3907 38.957C82.3662 39.0201 82.33 39.0789 82.2994 39.1391C82.2821 39.173 82.2517 39.209 82.2478 39.2478C82.2461 39.2646 82.235 39.2855 82.2229 39.2954C82.1945 39.3186 82.1629 39.3408 82.1372 39.3665C82.1123 39.3914 82.0888 39.4196 82.0744 39.452C82.0666 39.4695 82.0576 39.4767 82.0576 39.4967C82.0576 39.516 82.0573 39.5336 82.0464 39.5499" stroke="#F1A33B" stroke-width="0.1" stroke-linecap="round"/>
<path d="M82.1024 39.2479C82.1024 39.3504 82.0657 39.4804 81.9905 39.5556" stroke="#F1A33B" stroke-width="0.1" stroke-linecap="round"/>
<path d="M82.1527 39.3654C82.1527 39.3901 82.1295 39.4125 82.1161 39.4312C82.0789 39.4828 82.0432 39.5339 82.0073 39.5891" stroke="#F1A33B" stroke-width="0.1" stroke-linecap="round"/>
<path d="M83.6573 36.5408C83.6739 36.5429 83.5971 36.6481 83.5939 36.6526C83.5209 36.7548 83.4546 36.8612 83.3882 36.9677C83.3091 37.0948 83.2363 37.2264 83.1583 37.3543C83.0462 37.5378 82.9198 37.7137 82.8239 37.9055" stroke="#F1A33B" stroke-width="0.1" stroke-linecap="round"/>
<path d="M83.7076 36.5854C83.7076 36.717 83.5899 36.8268 83.5305 36.9363C83.4807 37.0281 83.4126 37.1077 83.3534 37.1932C83.2936 37.2796 83.2412 37.3706 83.1878 37.4608C83.1184 37.578 83.0538 37.7022 82.9961 37.8253C82.9475 37.929 82.8836 38.0255 82.8295 38.1264C82.8126 38.1579 82.796 38.1892 82.7795 38.2209C82.7702 38.2386 82.7668 38.2466 82.7456 38.2466" stroke="#F1A33B" stroke-width="0.1" stroke-linecap="round"/>
<path d="M83.4559 37.033C83.4559 37.0554 83.4547 37.075 83.4507 37.097C83.4461 37.1219 83.4276 37.1451 83.4221 37.17C83.408 37.2331 83.3637 37.299 83.3248 37.349C83.2882 37.396 83.2502 37.4503 83.221 37.5028C83.2024 37.5363 83.1737 37.5636 83.1539 37.5966C83.1321 37.6329 83.1085 37.6704 83.0837 37.7048C83.0447 37.7587 83.0095 37.8179 82.9805 37.8775C82.9267 37.9882 82.9051 38.1207 82.8155 38.2103C82.8077 38.2182 82.7962 38.2282 82.7851 38.2296C82.7634 38.2323 82.798 38.2265 82.804 38.2243C82.84 38.2112 82.8733 38.1907 82.8969 38.16C82.9442 38.0986 82.9781 38.0092 82.996 37.9335C83.0055 37.8937 83.0189 37.8547 83.0265 37.8148C83.0395 37.7467 83.0703 37.6782 83.0911 37.6122C83.0997 37.5848 83.1092 37.5638 83.1092 37.5364" stroke="#F1A33B" stroke-width="0.1" stroke-linecap="round"/>
<path d="M83.2434 37.5139C83.2408 37.5401 83.2273 37.5771 83.2185 37.6028C83.2024 37.6504 83.1828 37.6986 83.1617 37.7442C83.1228 37.8278 83.0648 37.9063 83.011 37.981C82.9559 38.0573 82.8849 38.1225 82.8338 38.2019C82.7524 38.3286 82.6661 38.4475 82.5943 38.5804C82.5492 38.6637 82.5234 38.7532 82.4631 38.828C82.441 38.8555 82.4094 38.8954 82.3708 38.8954" stroke="#F1A33B" stroke-width="0.1" stroke-linecap="round"/>
<path d="M84.4068 35.3942C84.4068 35.4564 84.3551 35.5206 84.3316 35.5753C84.2974 35.6552 84.2455 35.725 84.2024 35.8C84.0961 35.9844 83.9858 36.1655 83.8699 36.3438C83.8218 36.4177 83.7759 36.4951 83.7313 36.5712C83.685 36.6503 83.6285 36.7261 83.5915 36.8105C83.5756 36.8466 83.5497 36.8785 83.5405 36.9177C83.5346 36.9426 83.5232 36.9656 83.5119 36.9882" stroke="#F1A33B" stroke-width="0.1" stroke-linecap="round"/>
<path d="M84.3397 35.3942C84.3397 35.4198 84.3328 35.4433 84.3241 35.4675C84.2933 35.5536 84.2544 35.6374 84.2135 35.7192C84.146 35.8543 84.0748 35.9855 83.9976 36.1154C83.8984 36.282 83.7841 36.4395 83.6837 36.606C83.6462 36.6683 83.6179 36.7359 83.5812 36.7981C83.5673 36.8215 83.5583 36.8311 83.5672 36.7943C83.5906 36.6969 83.629 36.6023 83.6697 36.511C83.7447 36.3429 83.8208 36.1753 83.8938 36.0063C83.9203 35.9448 83.9542 35.8781 83.9674 35.8118C83.9693 35.8022 83.9774 35.7757 83.9705 35.7826C83.9664 35.7867 83.9662 35.7934 83.9634 35.7984C83.934 35.8518 83.9022 35.9041 83.8698 35.9557C83.7326 36.1744 83.5982 36.3966 83.4917 36.6324C83.451 36.7226 83.4 36.8181 83.4 36.9183C83.4 36.9342 83.4025 36.9527 83.3997 36.9684C83.3982 36.9765 83.3941 36.9842 83.3944 36.9702C83.3953 36.9354 83.42 36.8989 83.4373 36.8702C83.4966 36.7718 83.5465 36.6727 83.5793 36.5635C83.5887 36.5322 83.6118 36.5027 83.6281 36.4749C83.651 36.4358 83.6711 36.3943 83.6927 36.3543C83.8393 36.0839 84.0184 35.8319 84.1831 35.5719C84.1982 35.548 84.2235 35.4675 84.2197 35.4955C84.2146 35.5339 84.1931 35.576 84.1803 35.6123C84.1638 35.659 84.1447 35.7046 84.1271 35.7509C84.0965 35.8318 84.0587 35.9094 84.0209 35.987C83.9924 36.0454 83.962 36.1049 83.9258 36.1592C83.8723 36.2394 83.8169 36.3186 83.7654 36.4003C83.7079 36.4916 83.668 36.5874 83.6293 36.6874C83.585 36.8021 83.5126 36.9029 83.4628 37.015C83.4396 37.0672 83.4314 37.1309 83.4031 37.1797C83.3937 37.1958 83.3829 37.2317 83.3665 37.2399" stroke="#F1A33B" stroke-width="0.1" stroke-linecap="round"/>
<path d="M85.5702 33.5652C85.5702 33.5911 85.5448 33.6209 85.5323 33.6422C85.5154 33.6711 85.5045 33.703 85.4875 33.7317C85.4359 33.8191 85.3812 33.9061 85.3213 33.9878C85.2431 34.0944 85.1677 34.2074 85.1087 34.3252C85.0938 34.3551 85.0726 34.3821 85.0581 34.4126C85.0381 34.4543 85.0012 34.4962 84.9767 34.5328C84.8995 34.6478 84.8243 34.7641 84.748 34.8796C84.6953 34.9593 84.6399 35.0442 84.5802 35.1189C84.5366 35.1734 84.5147 35.238 84.4789 35.2969C84.4608 35.3266 84.4449 35.3555 84.4323 35.388C84.4227 35.4125 84.4205 35.4398 84.4096 35.4638C84.3985 35.4882 84.3732 35.6 84.3732 35.5116" stroke="#F1A33B" stroke-width="0.1" stroke-linecap="round"/>
<path d="M85.3689 33.7441C85.364 33.8119 85.3158 33.87 85.2769 33.9225C85.1101 34.1479 84.9318 34.3643 84.7716 34.5949C84.6125 34.8241 84.4614 35.059 84.3093 35.2928C84.2806 35.3369 84.2424 35.3853 84.2235 35.4345C84.2196 35.4446 84.2111 35.4644 84.2111 35.4644C84.2111 35.4644 84.2706 35.3601 84.3068 35.3124C84.3258 35.2874 84.3444 35.256 84.3683 35.2351C84.3849 35.2205 84.3978 35.209 84.4096 35.19C84.4194 35.1742 84.4404 35.154 84.4404 35.1341C84.4404 35.1112 84.4386 35.1369 84.4323 35.153C84.4205 35.183 84.4043 35.2129 84.3894 35.2416C84.3755 35.2684 84.3606 35.2963 84.3484 35.3239C84.3437 35.3347 84.3341 35.368 84.3341 35.3562C84.3341 35.3402 84.3344 35.3005 84.3204 35.3385C84.3178 35.3457 84.2954 35.3953 84.303 35.3792C84.3239 35.3355 84.3681 35.2959 84.3981 35.2574C84.4372 35.2073 84.487 35.1656 84.5274 35.1157C84.5879 35.041 84.6504 34.969 84.6765 34.874C84.6911 34.821 84.7125 34.7663 84.7424 34.7205C84.7684 34.6808 84.7882 34.6332 84.8179 34.5968C84.8854 34.5144 84.9374 34.4207 84.9891 34.3283C85.0201 34.273 85.0319 34.215 85.0476 34.1546C85.0627 34.0964 85.0836 34.0397 85.0836 33.9791" stroke="#F1A33B" stroke-width="0.1" stroke-linecap="round"/>
<path d="M85.8834 32.9835C85.8834 33.062 85.8688 33.1353 85.8219 33.2004C85.7721 33.2695 85.7079 33.3318 85.6712 33.4114C85.6461 33.4658 85.609 33.5178 85.5758 33.5677C85.5081 33.6692 85.4419 33.7724 85.3735 33.8737C85.2979 33.9855 85.2284 34.1102 85.1308 34.2059C85.1075 34.2288 85.0822 34.2492 85.0578 34.2708C85.0288 34.2966 84.9937 34.3183 84.9661 34.3451C84.9313 34.3791 84.8994 34.4176 84.871 34.457C84.8597 34.4727 84.8468 34.4869 84.835 34.502C84.8264 34.5131 84.8314 34.4648 84.8331 34.4545C84.8427 34.3981 84.8804 34.3462 84.9033 34.2948C84.942 34.2081 84.9934 34.1254 85.0435 34.0449C85.0823 33.9826 85.1178 33.9139 85.1631 33.856C85.1935 33.8173 85.2246 33.7791 85.2464 33.7345C85.279 33.6678 85.33 33.6081 85.3564 33.5384C85.3792 33.4783 85.4261 33.4172 85.4689 33.3697C85.5344 33.2969 85.5805 33.198 85.6609 33.1401C85.676 33.1293 85.7192 33.094 85.7013 33.1401C85.6458 33.2829 85.5577 33.4035 85.4695 33.5291C85.3725 33.6674 85.2693 33.8001 85.1625 33.9309C85.1202 33.9827 85.0689 34.0322 85.0329 34.0884C85.0254 34.1002 84.9985 34.132 85.0062 34.1205C85.048 34.0577 85.1162 34.008 85.1693 33.9548C85.2263 33.8979 85.2854 33.8444 85.3365 33.7821C85.372 33.7388 85.4129 33.7001 85.4381 33.6497C85.5045 33.5169 85.6014 33.4028 85.6709 33.2712C85.7298 33.1595 85.8445 33.0745 85.8921 32.9567C85.9009 32.935 85.9118 32.8981 85.931 32.8828C85.9641 32.8562 85.9203 32.9281 85.9139 32.9418C85.8956 32.9811 85.8746 33.0241 85.8486 33.0587C85.8101 33.11 85.7774 33.1661 85.7358 33.215C85.6973 33.2602 85.6588 33.3089 85.6274 33.3595C85.6015 33.401 85.5842 33.4477 85.531 33.4477" stroke="#F1A33B" stroke-width="0.1" stroke-linecap="round"/>
<path d="M86.8548 31.2921C86.8548 31.3492 86.8299 31.4112 86.8045 31.4619C86.7911 31.4887 86.7853 31.5166 86.7722 31.5428C86.6612 31.7647 86.5021 31.9653 86.3665 32.1726C86.3107 32.258 86.2674 32.3545 86.2259 32.4475C86.1653 32.5835 86.0578 32.6973 85.9977 32.8325C85.9703 32.8942 85.9105 32.9473 85.8724 33.0023C85.8582 33.0228 85.8339 33.0557 85.8279 33.0796C85.8128 33.1399 85.7618 33.1847 85.7452 33.2445C85.721 33.3316 85.6753 33.4128 85.6581 33.5032C85.6475 33.5587 85.6012 33.5724 85.553 33.5724" stroke="#F1A33B" stroke-width="0.1" stroke-linecap="round"/>
<path d="M85.084 32.0441C85.1383 32.0441 85.1829 32.0489 85.2313 32.0199C85.3097 31.9728 85.3924 31.933 85.4712 31.8864C85.5371 31.8475 85.6068 31.819 85.6738 31.7813C85.7289 31.7504 85.7936 31.7286 85.8459 31.6964C85.9109 31.6564 85.986 31.6264 86.0543 31.5913C86.1761 31.5288 86.2955 31.4591 86.4142 31.3932C86.4294 31.3847 86.4534 31.3692 86.4708 31.3653C86.5558 31.3465 86.6274 31.2921 86.7174 31.2921" stroke="#F1A33B" stroke-width="0.1" stroke-linecap="round"/>
<path d="M71.7318 42.5217C72.1964 42.5217 72.6611 42.5217 73.1257 42.5217C73.2503 42.5217 73.3749 42.5217 73.4995 42.5217C73.5992 42.5217 73.6972 42.5322 73.7964 42.535C73.8809 42.5373 73.9775 42.5619 74.0576 42.5747C74.2034 42.598 74.3985 42.6289 74.5446 42.6527C74.5967 42.6612 74.6861 42.6804 74.7481 42.6869C74.769 42.6891 74.7842 42.6966 74.8036 42.7035C74.8469 42.7187 74.8852 42.7357 74.9298 42.7469C74.9511 42.7522 74.9882 42.76 75.0063 42.77C75.0376 42.7874 75.0872 42.8112 75.1222 42.8131C75.182 42.8162 75.2396 42.8406 75.2878 42.8727" stroke="#F1A33B" stroke-width="0.1" stroke-linecap="round"/>
<path d="M71.7252 42.5416C71.7252 42.5921 71.767 42.6439 71.7925 42.6855C71.8281 42.7433 71.8642 42.8002 71.8989 42.858C71.9397 42.926 71.9814 42.9942 72.0181 43.0648C72.1159 43.2529 72.2216 43.4388 72.3182 43.6284C72.3697 43.7292 72.4239 43.8274 72.4735 43.9293C72.5252 44.0354 72.5627 44.1486 72.6192 44.2515C72.6413 44.2919 72.6582 44.3332 72.6821 44.3729C72.6982 44.3998 72.7027 44.4339 72.7185 44.4605C72.7614 44.5329 72.7742 44.621 72.8178 44.6937" stroke="#F1A33B" stroke-width="0.1" stroke-linecap="round"/>
<path d="M72.8311 44.7003C72.8345 44.7307 72.8763 44.783 72.8973 44.8063C72.9279 44.8403 72.9552 44.8833 72.9797 44.9218C73.0262 44.9949 73.0673 45.068 73.1026 45.1473C73.1135 45.1718 73.1202 45.1933 73.132 45.2168C73.1359 45.2247 73.1352 45.2313 73.1357 45.2397C73.1371 45.2666 73.1536 45.2857 73.1666 45.3081C73.1975 45.3612 73.2315 45.414 73.26 45.4685C73.2827 45.5117 73.3081 45.5542 73.3395 45.5891C73.3708 45.6239 73.3154 45.5721 73.3093 45.5612C73.286 45.5191 73.2394 45.4889 73.2115 45.4482C73.1717 45.3904 73.1156 45.3459 73.0842 45.2831C73.0711 45.257 73.0542 45.2331 73.0397 45.2069C73.0258 45.1819 73.0132 45.1544 73.0102 45.1267C73.0063 45.0896 72.99 45.0539 72.99 45.0167C72.99 44.9781 72.9686 44.927 72.9536 44.8924C72.9052 44.7807 72.85 44.6712 72.798 44.5613" stroke="#F1A33B" stroke-width="0.1" stroke-linecap="round"/>
<path d="M75.2878 42.8926C75.2878 42.9835 75.2226 43.0684 75.1852 43.1475C75.1667 43.1865 75.1305 43.2156 75.1075 43.2516C75.0754 43.3021 75.0231 43.3449 74.9828 43.3892C74.9103 43.469 74.8304 43.5384 74.7544 43.6144C74.6387 43.73 74.5403 43.8612 74.427 43.9786C74.3852 44.0218 74.3393 44.0592 74.3011 44.1059C74.2669 44.1476 74.2313 44.1897 74.1952 44.2298C74.1522 44.2776 74.1151 44.3291 74.0745 44.3788C74.0492 44.4099 74.0277 44.4449 74.0054 44.4782C73.9891 44.5023 73.9602 44.5315 73.9572 44.5617C73.9507 44.6268 73.9245 44.6722 73.9042 44.7331C73.8889 44.779 73.8805 44.8253 73.8391 44.8563C73.7828 44.8985 73.7443 44.9387 73.6721 44.9387" stroke="#F1A33B" stroke-width="0.1" stroke-linecap="round"/>
<path d="M73.6853 44.9984C73.6755 45.1064 73.5918 45.1973 73.5543 45.2949C73.5435 45.3231 73.5255 45.3543 73.5094 45.3795C73.4919 45.4071 73.4733 45.4356 73.4601 45.4653C73.453 45.4813 73.4353 45.4977 73.4248 45.512C73.4078 45.5351 73.3942 45.6077 73.3674 45.601" stroke="#F1A33B" stroke-width="0.1" stroke-linecap="round"/>
<path d="M72.6125 43.0847C72.7409 43.0847 72.8705 43.08 72.9981 43.0928C73.2531 43.1183 73.5113 43.1112 73.7677 43.1112C73.8793 43.1112 73.9909 43.1112 74.1025 43.1112C74.1317 43.1112 74.2835 43.117 74.2732 43.1377C74.2667 43.1507 74.2461 43.1599 74.2345 43.1678C74.2039 43.1889 74.1801 43.2202 74.1488 43.2403C74.0865 43.2804 74.0386 43.3436 73.973 43.3797C73.9209 43.4084 73.8765 43.4448 73.828 43.4783C73.7329 43.5442 73.6506 43.646 73.5801 43.7362C73.5497 43.775 73.5282 43.8112 73.5065 43.8558C73.4827 43.9046 73.4636 43.9623 73.4539 44.0154C73.4473 44.0516 73.4291 44.0879 73.427 44.1243C73.4256 44.1502 73.4166 44.2108 73.4039 44.2336C73.3869 44.2642 73.4015 44.3262 73.3564 44.256C73.2809 44.1386 73.1956 44.0285 73.1165 43.9135C73.0936 43.8802 73.038 43.8272 73.0301 43.7837C73.0283 43.7737 73.0181 43.7554 73.0312 43.791C73.0798 43.9234 73.1445 44.0574 73.1739 44.1957C73.1766 44.2081 73.1971 44.2462 73.182 44.2237" stroke="#F1A33B" stroke-linecap="round"/>
<path d="M72.375 42.8398C72.3804 42.8398 72.3667 42.8399 72.3648 42.8396C72.3529 42.8377 72.3416 42.8309 72.3296 42.8281C72.3112 42.8237 72.2979 42.8196 72.2804 42.8133C72.2656 42.808 72.2511 42.7988 72.2363 42.7949C72.2172 42.7898 72.2101 42.7846 72.2109 42.8077C72.2116 42.825 72.2197 42.8421 72.2248 42.8576C72.2327 42.8811 72.2357 42.9043 72.247 42.9257C72.2487 42.929 72.2709 42.9645 72.2734 42.9626C72.2855 42.9536 72.324 42.9608 72.3359 42.9648" stroke="#F1A33B" stroke-width="0.5" stroke-linecap="round"/>
<path d="M72.3945 42.8516C72.4349 42.8516 72.4753 42.8516 72.5156 42.8516C72.5409 42.8516 72.5674 42.8542 72.592 42.8485C72.6333 42.839 72.6769 42.8432 72.7188 42.8381C72.7698 42.8319 72.8209 42.8342 72.872 42.8281C72.9864 42.8145 73.1014 42.8125 73.2166 42.8125C73.4491 42.8125 73.6816 42.8125 73.9141 42.8125" stroke="#F1A33B" stroke-width="0.5" stroke-linecap="round"/>
<path d="M72.7617 43.2109C72.7585 43.2114 72.7733 43.2264 72.7765 43.2287C72.7843 43.2345 72.7911 43.2466 72.7932 43.2559C72.798 43.2778 72.8109 43.2983 72.8164 43.3203C72.8243 43.3525 72.8281 43.3927 72.8281 43.4258C72.8281 43.4919 72.8316 43.5556 72.8357 43.6211C72.8402 43.6934 72.8701 43.7654 72.8867 43.8359C72.8884 43.8431 72.904 43.9027 72.8928 43.8859C72.8729 43.856 72.8468 43.833 72.8227 43.8069C72.8049 43.7875 72.7881 43.7664 72.7695 43.7478C72.7628 43.7411 72.759 43.7324 72.7519 43.7261C72.7377 43.7135 72.7308 43.6882 72.7218 43.6719C72.7139 43.6576 72.7048 43.6437 72.6975 43.6289C72.6792 43.5924 72.6587 43.5581 72.6345 43.5252C72.6082 43.4893 72.5741 43.4582 72.5577 43.4171C72.5549 43.4101 72.5477 43.4024 72.5429 43.3965C72.5347 43.3862 72.5427 43.4025 72.5429 43.4062C72.5437 43.4199 72.5559 43.4302 72.5588 43.4434C72.5613 43.4545 72.5749 43.4833 72.582 43.4922C72.5903 43.5026 72.5969 43.5208 72.6015 43.5334C72.6088 43.5533 72.6183 43.5713 72.625 43.5916C72.638 43.6315 72.6517 43.6712 72.6658 43.7109C72.6994 43.8061 72.7328 43.9004 72.7604 43.9974C72.7721 44.0385 72.7879 44.0859 72.8359 44.0859" stroke="#F1A33B" stroke-width="0.5" stroke-linecap="round"/>
<path d="M73.1055 44.4453C73.1055 44.4877 73.1226 44.5289 73.1385 44.5677C73.1545 44.6069 73.1745 44.6557 73.2031 44.6875C73.2343 44.7221 73.2608 44.7843 73.2695 44.8301C73.2821 44.896 73.3031 44.9602 73.3127 45.0273C73.3175 45.0611 73.3242 45.0925 73.3242 45.127C73.3242 45.1379 73.3308 45.1725 73.3242 45.1758" stroke="#F1A33B" stroke-width="0.5" stroke-linecap="round"/>
<path d="M73.1523 44.5039C73.1565 44.5044 73.1613 44.5382 73.1649 44.5451C73.172 44.5586 73.1743 44.5721 73.1788 44.5868C73.183 44.6005 73.1836 44.6184 73.1836 44.6328C73.1836 44.6548 73.1866 44.6725 73.1912 44.6934C73.1971 44.7199 73.1612 44.6479 73.1465 44.625C73.1316 44.6019 73.1133 44.5882 73.1133 44.5586" stroke="#F1A33B" stroke-width="0.5" stroke-linecap="round"/>
<path d="M74.4531 43.5508C74.4164 43.5916 74.3863 43.6398 74.3526 43.6827C74.2462 43.8188 74.1457 43.9599 74.0347 44.0924C73.9775 44.1608 73.9179 44.2296 73.8672 44.303C73.8492 44.329 73.825 44.3495 73.8066 44.375C73.7182 44.498 73.5988 44.592 73.4883 44.6953" stroke="#F1A33B" stroke-width="0.5" stroke-linecap="round"/>
<path d="M73.1875 44.8398C73.1875 44.8452 73.1875 44.8303 73.1875 44.8281C73.1875 44.8236 73.187 44.8352 73.1855 44.8379C73.1777 44.8519 73.1758 44.8707 73.1758 44.8867C73.1758 44.9088 73.1755 44.888 73.1901 44.8787C73.2415 44.8458 73.3022 44.8407 73.3585 44.8203C73.392 44.8082 73.4285 44.8017 73.4631 44.7938C73.4754 44.791 73.4838 44.7949 73.4941 44.7869C73.5056 44.778 73.5244 44.7698 73.5382 44.7647C73.5654 44.7547 73.5767 44.7317 73.5946 44.7118C73.6046 44.7007 73.6051 44.6809 73.6113 44.6662C73.6216 44.6422 73.5986 44.6944 73.5968 44.6983C73.5662 44.7652 73.5207 44.8268 73.4852 44.8906C73.4805 44.8992 73.458 44.9529 73.4531 44.9336" stroke="#F1A33B" stroke-width="0.5" stroke-linecap="round"/>
<path d="M74.4609 43.5117C74.4726 43.4986 74.4816 43.4817 74.492 43.4674C74.5008 43.4553 74.513 43.448 74.5234 43.4375C74.543 43.4179 74.564 43.4014 74.582 43.3798C74.6241 43.3292 74.6729 43.2834 74.7205 43.2383C74.7329 43.2265 74.7547 43.2044 74.7695 43.1962C74.78 43.1904 74.8015 43.1669 74.8077 43.1562C74.8239 43.1288 74.8711 43.1168 74.8711 43.0781" stroke="#F1A33B" stroke-width="0.5" stroke-linecap="round"/>
<path d="M74.3633 43.0079C74.3824 43.0079 74.4003 43.0024 74.418 42.9998C74.4384 42.9969 74.452 42.9768 74.4696 42.9688C74.481 42.9636 74.4928 42.9493 74.5059 42.9493C74.5131 42.9493 74.5217 42.9434 74.5293 42.9417C74.5463 42.9379 74.5677 42.9415 74.5851 42.9415C74.6179 42.9415 74.6508 42.9415 74.6836 42.9415" stroke="#F1A33B" stroke-width="0.5" stroke-linecap="round"/>
<path d="M75.0781 43.164C75.0781 43.1126 75.1084 43.0599 75.1289 43.0136C75.1373 42.9948 75.1499 42.9738 75.166 42.9609C75.1783 42.951 75.1885 42.9149 75.1834 42.9585C75.1796 42.9908 75.1567 43.0272 75.1428 43.0562C75.131 43.0809 75.1258 43.1115 75.1111 43.1345C75.1083 43.139 75.1055 43.1504 75.1055 43.1425C75.1055 43.1148 75.1222 43.0868 75.1346 43.0631C75.1516 43.0303 75.1894 43.002 75.1995 42.967C75.2025 42.9562 75.2031 42.946 75.2031 42.9335C75.2031 42.9095 75.1808 42.9179 75.1602 42.9179C75.1259 42.9179 75.0919 42.9145 75.0577 42.914C75.043 42.9138 75.0299 42.9155 75.0159 42.9097C74.9948 42.9009 74.9621 42.8841 74.9438 42.8747C74.9236 42.8644 74.8852 42.8495 74.8672 42.832C74.8589 42.8239 74.8993 42.8164 74.9015 42.8164C74.938 42.8164 74.9739 42.8129 75.0078 42.8289C75.0522 42.85 75.1007 42.8708 75.1485 42.8828" stroke="#F1A33B" stroke-width="0.1" stroke-linecap="round"/>
<path d="M72.1133 42.9766C72.0879 42.948 72.07 42.9138 72.0426 42.8863C72.0124 42.8561 71.9739 42.8181 71.9536 42.78C71.9435 42.7611 71.9243 42.7524 71.9102 42.7383C71.8933 42.7214 71.8794 42.7015 71.8633 42.6836C71.8492 42.668 71.8426 42.6467 71.8303 42.6309C71.8251 42.6242 71.8089 42.6055 71.8245 42.6055C71.9175 42.6055 72.0104 42.6016 72.1035 42.6016C72.1064 42.6016 72.128 42.6016 72.1183 42.6016C72.0824 42.6016 72.0481 42.5994 72.0139 42.6125C72.0006 42.6175 71.9207 42.6414 71.961 42.6593C71.9728 42.6646 71.9868 42.6545 71.9961 42.6661C72.0009 42.672 72.0096 42.6653 72.0148 42.6659C72.0173 42.6661 72.0144 42.6726 72.0139 42.6734C72.0052 42.688 72.0455 42.661 72.061 42.6539C72.1499 42.6132 72.2474 42.5874 72.3459 42.586C72.4128 42.585 72.4796 42.586 72.5465 42.586C72.7549 42.586 72.9634 42.586 73.1719 42.586" stroke="#F1A33B" stroke-width="0.1" stroke-linecap="round"/>
<path d="M73.9414 44.4453C73.9414 44.4642 73.9379 44.4834 73.9336 44.5017C73.9275 44.5274 73.9274 44.5518 73.9238 44.5777C73.9178 44.621 73.9051 44.6495 73.8765 44.6821C73.8472 44.7154 73.8167 44.7474 73.786 44.7795C73.7564 44.8104 73.7258 44.8406 73.6955 44.8709C73.6829 44.8835 73.6706 44.8985 73.6562 44.9093C73.6347 44.9254 73.6003 44.9243 73.5744 44.9256C73.5116 44.9287 73.4451 44.9289 73.3828 44.9201C73.3552 44.9163 73.3269 44.9182 73.299 44.916C73.2554 44.9127 73.2117 44.9106 73.168 44.9082C73.1338 44.9063 73.0857 44.9106 73.0516 44.8993C73.0438 44.8967 73.023 44.8715 73.0195 44.875" stroke="#F1A33B" stroke-width="0.1" stroke-linecap="round"/>
<path d="M72.8359 44.6641C72.8359 44.704 72.871 44.7416 72.8837 44.7782C72.8993 44.8235 72.9096 44.8696 72.9236 44.9156C72.9392 44.9669 72.9667 45.012 72.9883 45.0605C73.0172 45.1256 73.0425 45.1946 73.082 45.2539" stroke="#F1A33B" stroke-width="0.1" stroke-linecap="round"/>
<path d="M73.332 45.4648C73.3342 45.4668 73.3576 45.4138 73.3728 45.4182C73.3773 45.4195 73.3729 45.4278 73.375 45.4288C73.3832 45.4327 73.4246 45.3728 73.4306 45.3652C73.4458 45.3457 73.4603 45.3252 73.4757 45.3056C73.5186 45.2509 73.5611 45.1952 73.6046 45.1413C73.634 45.1048 73.6564 45.0622 73.6821 45.023C73.6971 45 73.7159 44.9694 73.7352 44.9501C73.744 44.9413 73.7556 44.9305 73.7617 44.9197C73.7781 44.8911 73.795 44.865 73.8125 44.8359C73.8239 44.817 73.8362 44.7977 73.8453 44.7776C73.8494 44.7684 73.85 44.7582 73.8555 44.75" stroke="#F1A33B" stroke-width="0.1" stroke-linecap="round"/>
<path d="M73.3793 45.5496C73.3759 45.5159 73.3559 45.4843 73.3453 45.4524" stroke="#F1A33B" stroke-width="0.1" stroke-linecap="round"/>
</svg>
