<svg width="119" height="106" viewBox="0 0 119 106" fill="none" xmlns="http://www.w3.org/2000/svg">
<path d="M63.0993 24.2794C63.8314 24.2794 64.621 24.2184 65.3422 24.1057C65.8164 24.0316 66.2252 23.7662 66.6533 23.5686C67.0298 23.3949 67.3946 23.4626 67.7905 23.4186C69.7311 23.203 71.6927 23 73.6506 23C78.5159 23 82.2616 28.2165 83.0726 32.5957C83.3703 34.2032 82.8028 35.7116 82.7172 37.2949C82.6961 37.6844 82.1373 39.0121 81.8642 39.2851C81.8432 39.3062 81.6591 38.9221 81.6589 38.9218C81.4986 38.6349 81.1944 38.3523 80.9165 38.1794C80.0319 37.629 79.1005 37.0503 78.1681 36.5841C77.9723 36.4861 76.7697 35.9361 76.636 36.2524C76.2734 37.1092 75.5023 38.0068 74.6852 38.4874C73.0709 39.437 71.453 40.059 69.5596 40.059C68.9053 40.059 68.3729 40.1128 67.7905 39.8063C67.4289 39.616 67.1287 39.6326 66.7243 39.6326C66.2212 39.6326 65.6883 40.5458 65.4291 40.9278C64.9703 41.604 64.5096 42.3659 63.9207 42.9338C63.0655 43.7585 61.0384 44.964 59.9718 43.8973C59.0961 43.0217 58.5059 41.884 57.1207 42.0572C56.1517 42.1783 55.0536 43.9945 54.8541 44.8924C54.6436 45.8395 54.4351 47.4643 55.17 48.2727C55.9302 49.1089 57.941 49.1572 58.9767 49.1572" stroke="black" stroke-linecap="round"/>
<path d="M53.5746 50.1523C53.5712 50.1762 52.1391 49.1795 52.0109 48.7307C51.8561 48.1891 51.7266 47.7383 51.7266 47.167" stroke="black" stroke-width="2" stroke-linecap="round"/>
<path d="M54.2855 49.2993C54.2855 50.5566 53.0325 51.9247 52.469 52.9954C52.0915 53.7127 51.8913 55.472 51.158 55.8386" stroke="black" stroke-linecap="round"/>
<path d="M50.305 41.9071C50.305 39.218 48.974 36.502 49.531 33.7961C49.8301 32.3435 50.8574 31.1191 51.7266 29.9658C52.5315 28.8978 53.176 27.9137 54.4197 27.3437C55.5316 26.8341 56.8608 26.0214 58.1237 25.9853C59.2293 25.9537 60.2655 25.7624 61.2591 25.2034C61.6602 24.9779 62.0484 24.5637 62.5307 24.5637" stroke="black" stroke-width="2" stroke-linecap="round"/>
<path d="M52.4373 51.7159C51.9261 51.7159 51.4829 51.7035 51.0157 51.9371C50.4481 52.2209 50.3921 52.9629 50.0206 53.4218C49.5692 53.9795 49.1811 55.2737 49.0492 55.9333C48.9075 56.6419 48.7412 57.2437 48.7412 57.9788C48.7412 59.4569 48.5659 61.118 49.531 62.3462C50.4487 63.5143 51.8937 63.7621 53.077 64.5813C54.3299 65.4486 56.0109 65.7136 57.484 65.9318C59.2902 66.1994 61.129 66.2669 62.9571 66.2161C64.0686 66.1853 65.5319 65.6365 66.44 65.0078C67.1556 64.5123 67.724 63.8982 68.2169 63.1834C68.4664 62.8216 68.9277 62.4161 68.9277 61.9514" stroke="black" stroke-linecap="round"/>
<path d="M47.8246 44.4424C47.8377 44.3374 47.9418 44.3143 48.0201 44.2522C48.4419 43.9177 48.8539 43.5678 49.2619 43.2165C49.9253 42.6453 50.5741 42.0733 51.2488 41.515C51.946 40.938 52.6547 40.3871 53.3096 39.7606C54.4001 38.7175 55.8353 38.0921 57.0191 37.1713C58.43 36.074 59.8507 34.7654 61.4685 33.9797C62.5045 33.4764 63.4908 32.6256 64.565 32.2676" stroke="black" stroke-linecap="round"/>
<path d="M49.7269 47.5812C50.5748 46.7334 51.5597 46.024 52.3902 45.1558C53.0676 44.4476 53.8034 43.755 54.599 43.1848C55.467 42.5627 56.1722 41.745 57.0139 41.0975C57.7615 40.5224 58.5292 39.9683 59.3284 39.4488C60.7373 38.533 61.9941 37.416 63.4712 36.5953C64.1617 36.2117 64.7484 35.6928 65.3999 35.2584C65.8727 34.9432 66.4044 34.7149 66.8478 34.3601" stroke="black" stroke-linecap="round"/>
<path d="M64.7 32.2419C64.7 32.431 64.9451 32.6367 65.074 32.7655C65.213 32.9046 65.3958 32.9778 65.5602 33.0834C65.8036 33.2399 66.0376 33.3964 66.2687 33.5696C66.38 33.6531 66.5033 33.7191 66.6074 33.8128C66.6839 33.8817 66.8245 33.9104 66.8692 33.9998" stroke="black" stroke-linecap="round"/>
<path d="M64.4756 31.9801C64.757 31.9545 65.0735 31.7008 65.3171 31.5687C65.7057 31.3579 66.0918 31.1301 66.4557 30.8788C67.06 30.4616 67.7494 30.1666 68.4109 29.8566C68.9803 29.5897 69.5737 29.3757 70.1376 29.1023C70.5447 28.9049 70.9686 28.7288 71.3946 28.5767" stroke="black" stroke-linecap="round"/>
<path d="M67.0935 34.1867C67.1285 33.9297 67.3259 33.672 67.455 33.4553C67.6066 33.201 67.7874 32.9606 67.9537 32.7156C68.1747 32.3899 68.3876 32.0565 68.6352 31.7494C69.1406 31.1228 69.6236 30.4945 70.152 29.8857C70.5228 29.4585 71.1021 29.0868 71.3571 28.5767" stroke="black" stroke-linecap="round"/>
<path d="M69.001 29.8481C69.1171 29.8554 69.2288 29.9615 69.3376 29.9977" stroke="black" stroke-linecap="round"/>
<path d="M49.6077 47.5881C49.1653 47.5881 48.7536 47.6116 48.3876 47.3473C48.089 47.1317 47.9334 46.8448 47.8239 46.4964C47.7088 46.1302 47.7133 45.7567 47.7133 45.3797C47.7133 45.1526 47.6812 44.9277 47.6812 44.6982" stroke="black" stroke-linecap="round"/>
<path d="M51.5985 45.5332C51.3686 45.5332 51.1292 45.5544 50.9099 45.469C50.7122 45.392 50.5554 45.1552 50.4568 44.9766C50.2911 44.6766 50.2178 44.3072 50.2178 43.967C50.2178 43.4681 50.3175 43.0504 50.4747 42.5791" stroke="black" stroke-linecap="round"/>
<path d="M57.2034 44.6797C57.0377 45.1585 56.8495 45.6213 56.8495 46.1349C56.8495 46.3118 56.8495 46.4888 56.8495 46.6658" stroke="black" stroke-linecap="round"/>
<path d="M56.9479 45.5253C57.1872 45.4341 57.5032 45.687 57.7061 45.8006C57.9019 45.9102 58.125 45.9565 58.3244 46.0562" stroke="black" stroke-linecap="round"/>
<path d="M65.0178 44.1572C66.4916 44.1572 67.9423 44.6924 69.3574 45.0656C69.9054 45.2101 70.4615 45.3476 71.003 45.5142C71.0745 45.5362 71.517 45.7472 71.3739 45.5564" stroke="black" stroke-linecap="round"/>
<path d="M73.1328 50.1534C72.9732 50.1534 72.8289 50.0791 72.6886 50.009C72.3727 49.8511 72.0393 49.6806 71.7537 49.4716C71.3201 49.1543 71.0629 48.7129 70.9919 48.1857C70.8455 47.0979 70.9497 45.8835 71.7137 45.021C72.0004 44.6972 72.3889 44.3572 72.773 44.1571C73.2193 43.9245 73.659 43.6409 74.1455 43.4997C75.1218 43.2162 76.1049 43.0952 77.0415 43.5263C77.3545 43.6704 77.5735 43.8024 77.7699 44.0971C78.0125 44.461 78.1497 44.8233 78.2874 45.2364C78.7119 46.5098 78.1984 47.6053 77.5301 48.6832C77.1425 49.3083 76.5472 49.8139 75.8556 50.0823C75.596 50.183 74.8243 50.4982 74.6519 50.1534" stroke="black" stroke-linecap="round"/>
<path d="M78.8494 46.196C78.8494 45.4553 79.3847 44.6612 79.8887 44.1572C80.0621 43.9838 80.2566 43.7909 80.5061 43.7486C80.7996 43.6987 81.102 43.7148 81.3989 43.7175C82.1946 43.7247 82.6892 44.4288 83.0779 45.0367C83.3897 45.5244 83.7793 46.4102 83.4443 46.9755C83.0959 47.5634 82.6706 48.1711 82.1873 48.6544C81.714 49.1278 81.1395 49.4721 80.5083 49.696C80.0658 49.8531 79.7093 49.9497 79.2313 49.9115C78.966 49.8902 78.8157 49.6233 78.6895 49.434" stroke="black" stroke-linecap="round"/>
<path d="M75.8911 46.4756C75.7935 46.5305 75.7869 46.6894 75.931 46.6688C76.0645 46.6497 76.0076 46.421 75.9621 46.3556C75.83 46.1653 75.5321 46.1583 75.6201 46.4445C75.6748 46.6222 76.0816 46.7509 76.091 46.5067C76.0994 46.286 76.0432 46.1558 75.8111 46.1558" stroke="black" stroke-linecap="round"/>
<path d="M81.4877 46.9953C81.3595 46.9953 81.1297 47.0334 81.0902 46.8554C81.0336 46.6007 81.1178 46.5156 81.3589 46.5156C81.7568 46.5156 81.4926 46.9517 81.3278 47.0753" stroke="black" stroke-linecap="round"/>
<path d="M74.0522 41.159C74.7784 41.159 75.4959 41.0391 76.2242 41.0391C76.4683 41.0391 76.6555 41.0725 76.8883 41.119C77.009 41.1432 77.0627 41.243 77.1703 41.2789" stroke="black" stroke-linecap="round"/>
<path d="M79.6089 41.5586C80.2749 41.6744 80.9479 41.4742 81.6054 41.6385C81.8869 41.7089 81.9275 41.917 81.9275 42.1582" stroke="black" stroke-linecap="round"/>
<path d="M72.9205 56.2783C73.3882 56.2783 73.8558 56.2783 74.3235 56.2783C74.6833 56.2783 75.0359 56.361 75.4004 56.361" stroke="black" stroke-linecap="round"/>
<path d="M66.3765 60.6007C66.7094 60.6007 66.9825 60.7683 67.2734 60.9068C67.5027 61.016 67.7777 61.0395 68.0173 61.1133C68.8146 61.3586 69.4734 61.9364 70.281 62.1383C70.747 62.2548 71.1483 62.4476 71.6442 62.4587C72.1203 62.4692 72.655 62.5191 73.1213 62.4231C74.4287 62.1539 75.1006 61.2763 75.6661 60.1451C76.0935 59.2905 76.6358 58.4277 76.9475 57.5255C77.2453 56.6633 77.722 55.9301 77.9085 55.0198C78.2202 53.498 79.1258 52.1249 79.1258 50.5422" stroke="black" stroke-linecap="round"/>
<path d="M46.7448 45.6799C45.9388 46.7546 44.8979 47.6429 44.0831 48.7203C42.7831 50.4393 41.4978 52.3103 40.7623 54.3532C40.2439 55.7934 40.013 57.4323 39.9321 58.9557C39.8292 60.8952 39.7397 62.9041 40.2635 64.7925C40.6971 66.3557 41.3066 67.6281 42.623 68.5975C43.3032 69.0984 43.9987 69.5964 44.6329 70.1559C44.7796 70.2854 44.8704 70.3694 45.0407 70.4545" stroke="black" stroke-linecap="round"/>
<path d="M45.1062 70.4546C45.4966 70.8804 45.7926 71.4977 46.3114 71.7909C46.7653 72.0474 47.2516 72.2444 47.7133 72.4864C49.5751 73.4623 51.6881 74.1527 53.714 74.6929C55.6776 75.2166 57.6907 75.7057 59.7437 75.4867C60.2538 75.4323 60.7332 75.108 61.2293 75.108" stroke="black" stroke-linecap="round"/>
<path d="M62.0486 67.5227C62.0486 69.8774 62.4037 72.1911 62.4037 74.5359" stroke="black" stroke-linecap="round"/>
<path d="M62.4037 74.5359C62.0727 74.6505 61.6762 74.891 61.3384 74.891" stroke="black" stroke-width="2" stroke-linecap="round"/>
<path d="M70.6597 62.9951C70.6597 63.85 70.6597 64.7048 70.6597 65.5597C70.6597 66.3978 70.787 67.3201 70.6399 68.144C70.3713 69.6485 69.4448 70.9834 68.317 71.9564C67.2112 72.9104 65.9865 73.7754 64.6625 74.4026C64.281 74.5833 63.2235 75.0527 62.8475 74.8021" stroke="black" stroke-linecap="round"/>
<path d="M26.0063 82.1706C26.0063 79.1898 25.8843 76.0805 26.7165 73.1847C27.0723 71.9462 27.6113 70.7362 28.2848 69.6386C29.086 68.3329 30.2334 67.4086 31.382 66.4132C32.8583 65.1338 34.4756 63.9298 36.1364 62.9017C37.1073 62.3006 38.0829 61.8413 39.2336 61.8413" stroke="black" stroke-linecap="round"/>
<path d="M37.4581 74.0032C37.4581 76.5482 37.5469 84.1828 37.5469 81.6377" stroke="black" stroke-linecap="round"/>
<path d="M61.4271 76.4888C61.4271 77.8872 61.4678 79.2093 61.7625 80.5724C61.9055 81.2339 62.0485 82.0266 62.0485 82.703" stroke="black" stroke-linecap="round"/>
<path d="M71.2811 65.3921C73.5183 65.3921 75.4551 67.4018 76.7259 69.0811C78.0153 70.7849 79.5029 72.3762 80.1142 74.4816C80.5621 76.0247 81.0463 77.5818 81.0463 79.2014C81.0463 79.7866 81.0463 80.3719 81.0463 80.9571C81.0463 81.1601 81.161 81.969 80.9575 81.4602" stroke="black" stroke-linecap="round"/>
<path d="M74.4769 74.8022C74.5347 75.6104 75.143 76.3544 75.3647 77.1301C75.5316 77.7144 75.8033 78.2789 75.9072 78.876C76.0359 79.6164 76.1636 80.4038 76.1636 81.1595C76.1636 81.3012 76.2166 82.0723 75.9861 81.7266" stroke="black" stroke-linecap="round"/>
<path d="M62.9363 75.7788C62.9363 77.2649 63.064 78.7153 63.4887 80.1485C63.7573 81.055 63.824 82.1095 63.824 83.0583" stroke="black" stroke-linecap="round"/>
<path d="M59.7216 69.6611C59.5596 69.6449 59.4173 69.4407 59.4461 69.2821C59.4739 69.1294 59.6519 69.141 59.77 69.1455C59.892 69.1502 60.0248 69.2781 59.997 69.4033C59.9702 69.5238 59.8068 69.5303 59.7612 69.6215" stroke="black" stroke-linecap="round"/>
<path d="M59.9596 72.9134C59.5878 72.7166 59.6222 72.3812 60.0874 72.3978C60.3909 72.4087 60.32 72.9134 59.9992 72.9134" stroke="black" stroke-linecap="round"/>
<path d="M53.3877 45.4672C53.3877 46.1703 53.4727 46.9495 53.3281 47.6402C53.2657 47.9382 52.9563 48.8597 52.7912 48.1004C52.7098 47.7257 52.5441 47.318 52.5441 46.9329C52.5441 46.3742 52.8529 46.0088 53.1662 45.578C53.2263 45.4954 53.6627 45.0209 53.4559 45.3607C53.2223 45.7446 52.9307 46.1092 52.6762 46.4813C52.6534 46.5146 52.3635 46.7455 52.3737 46.5835C52.4086 46.0246 53.1636 45.0567 53.6434 44.7514C53.756 44.6797 53.5479 45.0986 53.5326 45.1349C53.2849 45.7233 53.2811 46.3067 53.3196 46.9414C53.3448 47.357 53.5411 47.7828 53.5411 48.1899C53.5411 48.2881 53.5411 48.6707 53.5411 48.6117" stroke="black" stroke-linecap="round"/>
<path d="M52.6208 48.9185H53.3878" stroke="black" stroke-linecap="round"/>
<path d="M56.8391 32.2759C57.8566 31.3366 59.1858 30.7955 60.2903 29.975C60.6503 29.7076 61.3127 29.4448 61.5941 29.0931C61.6742 28.9929 62.0087 28.8858 62.131 28.8246C62.5018 28.6392 62.87 28.4696 63.2558 28.3176C64.2773 27.9152 65.2394 27.5043 66.298 27.214C67.0835 26.9987 67.8609 26.7807 68.65 26.5834C69.2233 26.4401 69.8904 26.5238 70.4779 26.5238C71.2831 26.5238 72.0884 26.5238 72.8937 26.5238C73.9838 26.5238 72.758 26.5063 72.408 26.5238C72.0161 26.5434 71.6342 26.6772 71.2235 26.6772C70.5624 26.6772 69.8869 26.9105 69.2465 27.0607C68.631 27.205 68.1216 27.4172 67.555 27.687C66.8461 28.0245 66.1704 28.3215 65.4544 28.6371C64.4728 29.0699 63.4357 29.4179 62.4718 29.8813C62.1372 30.0422 61.7927 30.2133 61.4365 30.3202C60.6942 30.5428 60.1575 30.9313 59.4808 31.2788C58.4912 31.787 57.5968 32.4682 56.6388 33.0513C56.0577 33.405 55.3945 33.6444 54.845 34.0441C54.4706 34.3164 53.8753 34.8068 53.3878 34.8068" stroke="black" stroke-width="4" stroke-linecap="round"/>
<path d="M50.7035 39.3319C50.82 38.9045 51.4421 38.5106 51.7772 38.2752C52.3063 37.9036 52.8229 37.5086 53.3537 37.1418C54.0544 36.6577 54.7218 36.0551 55.4245 35.6079C56.6379 34.8358 57.6689 33.8812 58.816 33.0429C59.6172 32.4575 60.4181 31.893 61.3299 31.5091C62.2914 31.1042 63.353 30.3586 64.4318 30.3586" stroke="black" stroke-width="4" stroke-linecap="round"/>
<path d="M50.7801 36.6475C50.7801 36.2689 50.6988 35.7581 50.8227 35.3863C50.9088 35.1281 51.0289 34.8818 51.1039 34.6193C51.2282 34.1843 51.5446 33.8122 51.7004 33.3837C52.0504 32.4212 53.0033 31.3803 53.8308 30.8187C55.1795 29.9035 56.1338 28.766 57.7891 28.3687C58.8515 28.1138 59.9378 27.9944 60.9634 27.6146C62.1383 27.1794 63.4347 26.6005 64.7001 26.6005C65.9329 26.6005 67.1661 26.2937 68.4027 26.2937C70.4206 26.2937 72.4521 26.217 74.4786 26.217" stroke="black" stroke-width="4" stroke-linecap="round"/>
<path d="M70.1838 24.7598C71.117 24.7598 72.0501 24.7598 72.9832 24.7598C74.2858 24.7598 75.5226 24.6919 76.5665 25.6971C77.6353 26.7263 78.4858 27.8375 78.8119 29.3231C78.9824 30.0997 79.2173 30.8288 79.2338 31.6367C79.2476 32.3135 79.1571 32.9929 79.1571 33.6563" stroke="black" stroke-width="4" stroke-linecap="round"/>
<path d="M58.9098 41.9393C59.5268 41.9393 59.9779 41.8697 60.5545 41.705C61.0208 41.5717 61.4593 41.2994 61.9009 41.0786C63.1506 40.4538 64.2286 39.5595 65.4458 38.8375C67.7899 37.4469 70.1094 35.9996 72.5614 34.8067C73.6666 34.2691 74.5673 33.2525 75.4289 32.3909C75.798 32.0218 76.09 31.7377 76.3194 31.2788" stroke="black" stroke-width="4" stroke-linecap="round"/>
<path d="M60.8271 40.6356C61.2372 40.6356 61.638 40.3288 62.0543 40.3288C62.3493 40.3288 62.6548 40.1853 62.9362 40.0987C63.5873 39.8984 64.328 39.4471 64.9175 39.1187C65.1503 38.9891 65.4858 38.8297 65.6759 38.6586C65.833 38.5172 65.7158 38.7135 65.5779 38.7566C65.1304 38.8964 64.624 38.9017 64.1591 39.008C63.7939 39.0914 63.4557 39.2547 63.0896 39.336C63.0402 39.347 62.7614 39.4711 62.7956 39.4809C62.9747 39.5321 63.197 39.32 63.3325 39.238C63.741 38.991 64.1543 38.7443 64.5681 38.5052C64.8487 38.3431 65.1298 38.1229 65.4245 37.9939C65.6638 37.8892 65.8594 37.6365 66.085 37.5721C66.4192 37.4766 66.5816 37.3804 66.886 37.2014C67.4605 36.8634 68.0872 36.5967 68.5733 36.1106C68.9778 35.7061 69.3336 35.3503 69.7237 34.9602C70.1511 34.5328 69.9865 35.1136 70.2222 35.1136C70.5162 35.1136 70.8102 35.1136 71.1042 35.1136" stroke="black" stroke-width="4" stroke-linecap="round"/>
<path d="M70.7207 35.1904C70.7597 34.8007 71.0567 34.4035 71.2064 34.0485C71.4277 33.5238 71.5463 32.8849 71.641 32.3271C71.7919 31.4385 71.7652 30.4576 72.1012 29.6087C72.1926 29.3778 73.1737 27.8019 72.9448 28.6458C72.6519 29.7257 72.3515 30.7731 71.837 31.7775C71.3519 32.7247 70.965 33.6478 70.1838 34.3467C69.9619 34.5453 69.2233 35.0431 69.4339 34.8325C69.7396 34.5268 69.8312 34.0858 70.1455 33.7715C70.6169 33.3001 70.7701 32.6917 71.1979 32.2163C71.5526 31.8222 72.1576 31.5178 72.5613 31.1256C73.1334 30.5699 73.7263 29.8344 74.402 29.4C74.7384 29.1837 75.0328 29.1144 75.3905 28.9355C75.6751 28.7932 76.096 28.1803 76.3194 28.535C76.7757 29.2599 77.1533 30.0486 77.5806 30.7932C77.8863 31.3261 78.2938 31.7851 78.5691 32.3356C78.8545 32.9066 78.633 33.2815 78.1472 33.6394C76.3373 34.9731 74.3519 36.1609 72.7531 37.7596C72.1243 38.3884 71.2529 38.5772 70.4309 38.8121C70.1799 38.8838 69.9244 38.9257 69.664 38.9654C69.5999 38.9752 69.1731 39.0728 69.2209 39.0251C69.5962 38.6498 70.1976 38.4111 70.6184 38.0792C71.6331 37.279 72.5667 36.3882 73.601 35.6079C75.4524 34.2113 77.2956 32.692 79.353 31.6028C79.7152 31.4111 80.0284 31.0535 80.2649 30.7251C80.5507 30.328 80.6142 30.9687 80.6142 31.1682C80.6142 32.1018 80.921 33.0133 80.921 33.9633C80.921 34.564 80.921 35.1648 80.921 35.7656C80.921 36.0683 80.6489 35.8281 80.5375 35.6889C80.4798 35.6167 80.0734 35.5547 79.9964 35.5355C79.6654 35.4527 79.3338 35.4098 79.0037 35.3438" stroke="black" stroke-width="4" stroke-linecap="round"/>
<path d="M52.0589 43.9116C52.0542 43.9498 51.9681 44.0105 51.9377 44.0341C51.8841 44.0758 51.8518 44.1569 51.8152 44.2117C51.7722 44.2763 51.7184 44.2943 51.6671 44.3354C51.6267 44.3676 51.6249 44.402 51.5911 44.4358C51.5205 44.5064 51.3489 44.4848 51.2543 44.4848C51.1382 44.4848 51.1772 44.2693 51.1772 44.1982" stroke="#F1A33B" stroke-linecap="round"/>
<path d="M51.3169 44.0909C51.3169 44.0278 51.2976 43.9606 51.2976 43.903C51.2976 43.8801 51.2783 43.8564 51.2783 43.8307C51.2783 43.7911 51.2783 43.7515 51.2783 43.7118C51.2783 43.478 51.3169 43.2466 51.3169 43.0115C51.3169 42.9525 51.3214 42.8969 51.3367 42.8434C51.3551 42.7791 51.4161 42.7365 51.4497 42.6795C51.4887 42.6131 51.5627 42.5667 51.6103 42.5055C51.6395 42.4679 51.716 42.4264 51.7602 42.4043" stroke="#F1A33B" stroke-linecap="round"/>
<path d="M50.9989 44.3996C50.9989 44.3508 50.9725 44.3101 50.97 44.2646C50.9667 44.2062 50.9603 44.1493 50.9603 44.089C50.9603 43.9341 50.9603 43.7792 50.9603 43.6242C50.9603 43.5474 50.9814 43.485 50.9989 43.4106C51.012 43.355 51.0444 43.3065 51.0546 43.2505C51.0597 43.222 51.0566 43.1872 51.0712 43.1611C51.1128 43.0861 51.2474 42.9924 51.3362 42.9924" stroke="#F1A33B" stroke-linecap="round"/>
<path d="M51.1145 44.6212C51.1637 44.6212 51.1965 44.6699 51.2441 44.6785C51.3017 44.689 51.364 44.6586 51.4197 44.648C51.6445 44.6052 51.7988 44.3803 51.953 44.2261" stroke="#F1A33B" stroke-linecap="round"/>
<path d="M54.9312 40.7661C54.7489 40.9823 54.5379 41.1849 54.3326 41.3792C54.0812 41.6171 53.8267 41.8513 53.5819 42.0961C53.3277 42.3503 53.085 42.6178 52.8258 42.8666C52.6397 43.0453 52.4562 43.2286 52.2786 43.4165C52.1791 43.5219 52.0839 43.6324 52.0013 43.7517C51.9795 43.7832 51.9282 43.8599 51.8856 43.8599" stroke="#F1A33B" stroke-linecap="round"/>
<path d="M51.6543 43.9271C51.7182 43.9271 51.797 43.9141 51.8471 43.8693C51.8789 43.8408 51.9328 43.8342 51.9675 43.8072C52.0532 43.7406 52.1751 43.7154 52.2476 43.6305C52.2872 43.5841 52.3495 43.5402 52.3996 43.5041C52.5165 43.42 52.6114 43.3074 52.7129 43.2059C52.8907 43.028 53.0881 42.8681 53.259 42.6833C53.478 42.4465 53.7182 42.229 53.9492 42.0038C54.099 41.8577 54.2523 41.7102 54.4161 41.5798C54.5522 41.4714 54.6795 41.3485 54.8214 41.2478C54.9106 41.1845 55.0184 41.122 55.095 41.0454" stroke="#F1A33B" stroke-linecap="round"/>
<path d="M51.3748 43.2526C51.5209 43.0919 51.6797 42.9409 51.8342 42.7878C52.0013 42.6222 52.1803 42.4689 52.3519 42.3081C52.5071 42.1627 52.6594 42.0164 52.8226 41.8797C53.2856 41.4918 53.7479 41.1029 54.2088 40.7125C54.315 40.6225 54.418 40.5211 54.5344 40.4453C54.6697 40.3572 54.8045 40.2754 54.9509 40.2065C55.0554 40.1573 55.1632 40.1186 55.269 40.0726C55.3586 40.0337 55.4688 39.9784 55.5672 39.9661" stroke="#F1A33B" stroke-linecap="round"/>
<path d="M51.712 42.5009C51.712 42.4753 51.7364 42.4355 51.7565 42.4185C51.8251 42.3604 51.8954 42.3053 51.9658 42.2493C52.0294 42.1987 52.0888 42.1431 52.1511 42.0908C52.218 42.0346 52.2821 41.9607 52.3556 41.9151C52.4068 41.8835 52.4699 41.8574 52.5168 41.8209C52.578 41.7733 52.6351 41.7253 52.7026 41.6838C52.815 41.6148 52.9214 41.534 53.033 41.4643C53.088 41.4299 53.1316 41.3825 53.1781 41.3379C53.2404 41.2782 53.3208 41.2323 53.3912 41.1827C53.673 40.9837 53.9771 40.8196 54.295 40.6869C54.5128 40.5959 54.7366 40.5044 54.9493 40.402C55.0588 40.3493 55.1664 40.2895 55.2716 40.2285C55.3713 40.1707 55.449 40.0833 55.5436 40.0186C55.696 39.9146 55.8377 39.7951 55.9913 39.6915C56.0737 39.6359 56.1446 39.5704 56.2247 39.5132C56.2811 39.4729 56.3393 39.4274 56.3923 39.3825C56.4337 39.3475 56.5123 39.2915 56.5695 39.2915" stroke="#F1A33B" stroke-linecap="round"/>
<path d="M52.2384 43.7651C52.2517 43.7567 52.3516 43.6961 52.3498 43.7279C52.349 43.7429 52.3346 43.779 52.315 43.779C52.2947 43.779 52.279 43.79 52.2645 43.8045C52.2479 43.8211 52.2267 43.8317 52.2083 43.846C52.1961 43.8555 52.1788 43.8573 52.1665 43.8672C52.159 43.8732 52.1512 43.8839 52.1549 43.8764" stroke="#F1A33B" stroke-linecap="round"/>
<path d="M52.1735 43.9692H52.1827" stroke="#F1A33B" stroke-linecap="round"/>
<path d="M52.3033 43.4124C52.3051 43.3986 52.4676 43.4031 52.4913 43.4031C52.5222 43.4031 52.5373 43.4019 52.5632 43.3881C52.5738 43.3825 52.6211 43.3578 52.6097 43.3521" stroke="#F1A33B" stroke-linecap="round"/>
<path d="M60.1245 36.7874C59.8832 37.0045 59.5932 37.1808 59.3309 37.3711C59.1254 37.5203 58.912 37.6572 58.7032 37.8017C58.4978 37.9439 58.3097 38.1107 58.1077 38.2577C57.8851 38.4195 57.6796 38.6076 57.4478 38.7551C57.3723 38.8031 57.3039 38.8701 57.2312 38.9226C57.1226 39.0011 57.0189 39.0858 56.9106 39.1646C56.6518 39.3528 56.3884 39.5495 56.1424 39.7542C55.8207 40.022 55.5083 40.3005 55.1992 40.5824C55.1462 40.6307 55.0979 40.6857 55.0232 40.6857" stroke="#F1A33B" stroke-linecap="round"/>
<path d="M60.9164 36.4219C60.8741 36.4346 60.817 36.5062 60.7844 36.5319C60.6642 36.6268 60.5504 36.7229 60.441 36.8296C60.1554 37.1082 59.8182 37.3427 59.5172 37.6046C59.2057 37.8755 58.8858 38.1344 58.5527 38.3778C58.2764 38.5798 57.9904 38.7709 57.7254 38.9877C57.5071 39.1663 57.2735 39.331 57.052 39.5063C56.8445 39.6706 56.6165 39.8207 56.3989 39.9708C56.057 40.2066 55.7163 40.4629 55.4082 40.7423C55.2125 40.9198 54.9807 41.0893 54.8101 41.2914C54.7556 41.3559 54.6864 41.41 54.6274 41.4707C54.5885 41.5107 54.5322 41.5355 54.4979 41.5773C54.4516 41.6339 54.3682 41.7364 54.2924 41.7364" stroke="#F1A33B" stroke-linecap="round"/>
<path d="M59.6524 36.5132C59.5663 36.5837 59.4316 36.636 59.3293 36.6841C59.2006 36.7445 59.0768 36.847 58.9672 36.9362C58.6965 37.1564 58.4138 37.3678 58.1297 37.5698C57.9536 37.695 57.7581 37.8106 57.5992 37.9581C57.4789 38.0699 57.3344 38.1455 57.2084 38.25C56.943 38.4701 56.6448 38.6529 56.3819 38.8735C56.2894 38.9511 56.1887 39.0185 56.0892 39.0867C55.9761 39.1641 55.8765 39.2598 55.7626 39.3371C55.6736 39.3974 55.5909 39.4721 55.5088 39.5418C55.3992 39.635 55.2826 39.7232 55.1755 39.8184C54.9325 40.0345 54.6736 40.24 54.4065 40.4259C54.3218 40.4848 54.2358 40.5433 54.1527 40.6044C54.0697 40.6654 54.0001 40.7444 53.8964 40.7617" stroke="#F1A33B" stroke-linecap="round"/>
<path d="M61.6625 36.3457C61.4687 36.3606 61.2586 36.5078 61.0991 36.6063C60.8315 36.7715 60.5705 36.9462 60.3089 37.1206C60.0831 37.2712 59.835 37.3888 59.6169 37.5504C58.9395 38.0522 58.315 38.6208 57.6356 39.1214C57.0666 39.5407 56.5005 39.9672 55.942 40.4005C55.567 40.6915 55.1892 41.0102 54.8786 41.3709C54.7581 41.5107 54.6359 41.6839 54.4903 41.7972C54.4261 41.8471 54.2989 41.9059 54.2618 41.98" stroke="#F1A33B" stroke-linecap="round"/>
<path d="M64.0686 33.7722C64.0073 33.8267 63.9295 33.8655 63.8706 33.9245C63.8051 33.99 63.7058 34.0102 63.6337 34.0692C63.5999 34.0968 63.5388 34.1281 63.4992 34.1436C63.4266 34.172 63.3667 34.2197 63.2996 34.2603C63.1614 34.3439 63.0433 34.4577 62.9104 34.5488C62.7709 34.6445 62.6236 34.7364 62.495 34.8466C62.0286 35.2464 61.5419 35.6316 61.0179 35.9549C60.6325 36.1927 60.2445 36.427 59.8615 36.6689C59.5358 36.8745 59.2229 37.0917 58.9216 37.3321C58.7369 37.4795 58.5629 37.6425 58.3582 37.7619" stroke="#F1A33B" stroke-linecap="round"/>
<path d="M63.9163 33.6504C63.8848 33.6539 63.8545 33.6917 63.8283 33.7079C63.7725 33.7425 63.7162 33.7733 63.6574 33.8027C63.548 33.8574 63.4217 33.9011 63.3224 33.9736C63.2343 34.0379 63.1344 34.1009 63.0551 34.169C62.7941 34.3927 62.5264 34.6094 62.2446 34.8077C61.9039 35.0475 61.5523 35.2772 61.2058 35.5082C60.9627 35.6702 60.7068 35.8111 60.4774 35.9946C60.3128 36.1262 60.1618 36.2665 60.0036 36.4049C59.9596 36.4434 59.8828 36.4917 59.8539 36.5437C59.8307 36.5853 59.7736 36.5905 59.7439 36.635" stroke="#F1A33B" stroke-linecap="round"/>
<path d="M65.0126 34.3203C64.7217 34.3203 64.4567 34.4517 64.1861 34.5479C63.9735 34.6234 63.7613 34.6974 63.5474 34.7687C63.4206 34.8109 63.3044 34.8796 63.1777 34.9218C63.1054 34.9459 63.0419 34.9623 62.9755 35.0022C62.4679 35.3067 61.9706 35.6279 61.4595 35.9285C60.8845 36.2668 60.3004 36.5876 59.7616 36.9835C59.5819 37.1155 59.3961 37.2387 59.2159 37.3701C59.1587 37.4118 59.1083 37.4465 59.0433 37.4725" stroke="#F1A33B" stroke-linecap="round"/>
<path d="M64.2969 34.5793C64.2145 34.5793 64.1088 34.6506 64.0364 34.6868C63.8836 34.7632 63.7562 34.8737 63.6142 34.966C63.4655 35.0626 63.32 35.1573 63.1718 35.2561C62.9121 35.4292 62.6347 35.5767 62.3639 35.729C62.1805 35.8322 61.9931 35.9407 61.8199 36.0598C61.6301 36.1903 61.4255 36.3001 61.2277 36.4177C61.0622 36.5161 60.9227 36.5731 60.7336 36.6046" stroke="#F1A33B" stroke-linecap="round"/>
<path d="M58.8436 36.8608C58.8912 36.8608 58.9316 36.8328 58.9682 36.8056C58.9965 36.7846 59.029 36.772 59.0594 36.7537C59.163 36.6916 59.2231 36.5791 59.3073 36.495C59.3633 36.4389 59.4092 36.3912 59.4741 36.3449C59.5206 36.3116 59.5591 36.2657 59.5995 36.2253C59.6267 36.1981 59.6549 36.1549 59.6864 36.1346C59.861 36.0224 60.0162 35.8863 60.1798 35.7596C60.303 35.6641 60.419 35.5765 60.5594 35.5046C60.5808 35.4936 60.6121 35.4992 60.6313 35.487C60.694 35.4471 60.7769 35.4283 60.8453 35.4009" stroke="#F1A33B" stroke-width="0.5" stroke-linecap="round"/>
<path d="M59.0769 36.4395C59.1307 36.4335 59.1869 36.3803 59.2349 36.355C59.2935 36.3242 59.3436 36.2778 59.3971 36.2401C59.4671 36.1908 59.5373 36.1417 59.6078 36.0933C59.7151 36.0197 59.8036 35.9252 59.9206 35.8634C59.9579 35.8436 59.9906 35.8146 60.0276 35.7931C60.1195 35.7398 60.2088 35.6838 60.3027 35.6334C60.3554 35.6051 60.4115 35.5861 60.4645 35.559C60.5046 35.5385 60.5382 35.5183 60.5819 35.5063" stroke="#F1A33B" stroke-width="0.5" stroke-linecap="round"/>
<path d="M61.082 35.1602C61.082 35.1624 61.082 35.1391 61.082 35.1345C61.082 35.1135 61.0886 35.1024 61.1033 35.0877C61.1175 35.0735 61.1375 35.0679 61.1541 35.0556C61.2007 35.0209 61.264 35.0077 61.3038 34.9679C61.3198 34.9519 61.3377 34.9379 61.3555 34.9238C61.3802 34.9042 61.4102 34.8868 61.4336 34.8672C61.4569 34.8475 61.488 34.8358 61.5132 34.8184C61.5264 34.8093 61.5406 34.8021 61.5538 34.793C61.571 34.7811 61.5888 34.7758 61.6063 34.7656C61.6528 34.7387 61.698 34.7078 61.7454 34.6821C61.765 34.6715 61.7869 34.6502 61.8095 34.6484C61.8304 34.6468 61.8534 34.6321 61.8728 34.625C61.907 34.6126 61.9415 34.6065 61.9766 34.5968C62.0501 34.5764 62.1237 34.5359 62.184 34.49C62.2375 34.4493 62.2793 34.3977 62.3398 34.3674C62.3564 34.3591 62.3873 34.3477 62.4062 34.3477" stroke="#F1A33B" stroke-width="0.5" stroke-linecap="round"/>
<path d="M55.6901 40.0582C55.6781 40.118 55.5697 40.1682 55.5253 40.201C55.369 40.3163 55.2164 40.4371 55.0648 40.5585C54.7669 40.7968 54.4673 41.0331 54.1724 41.2751C53.9728 41.4389 53.7677 41.5956 53.5673 41.7585C53.4923 41.8194 53.4059 41.8662 53.3324 41.9292C53.3091 41.9491 53.2767 41.9624 53.2487 41.9748C53.201 41.996 53.2588 41.9273 53.2682 41.9106C53.4121 41.6528 53.5896 41.4116 53.7853 41.1906C54.0941 40.8419 54.4104 40.5003 54.7166 40.1503C54.7582 40.1028 54.8126 40.0455 54.8391 39.988C54.8522 39.9596 54.874 39.9379 54.8941 39.9145C54.9598 39.8379 55.0338 39.7666 55.1036 39.694C55.1703 39.6246 55.2429 39.5265 55.3259 39.4726C55.4735 39.3766 55.5909 39.2438 55.7281 39.1371C55.7457 39.1234 55.8101 39.0701 55.8101 39.0466C55.8101 39.036 55.7137 39.0976 55.7045 39.1083C55.6253 39.2007 55.4899 39.2598 55.3935 39.3348C55.3221 39.3904 55.2429 39.4426 55.1695 39.4954C55.0449 39.5851 54.9099 39.669 54.796 39.7726C54.747 39.8171 54.6932 39.8621 54.6405 39.9027C54.5801 39.9493 54.5289 40.0154 54.4698 40.0582C54.2868 40.1908 54.1071 40.328 53.9222 40.4571C53.6614 40.6392 53.3835 40.8111 53.1329 41.0038C52.9057 41.1787 52.65 41.3295 52.4341 41.5185C52.348 41.5938 52.2514 41.6707 52.1603 41.739C52.0799 41.7993 52.0308 41.8423 52.0099 41.9368C51.9952 42.0028 51.9634 42.056 51.9634 42.1269" stroke="#F1A33B" stroke-width="0.5" stroke-linecap="round"/>
<path d="M51.5039 42.3438C51.5039 42.3078 51.5303 42.29 51.546 42.2617C51.5583 42.2396 51.5901 42.2361 51.6055 42.2168C51.6251 42.1922 51.6507 42.1732 51.676 42.1543C51.6912 42.1429 51.7035 42.1209 51.7207 42.1133C51.7336 42.1076 51.7444 42.0961 51.7548 42.0868C51.7626 42.0798 51.7785 42.0703 51.7891 42.0703C51.8086 42.0703 51.817 42.0541 51.8299 42.0412C51.8543 42.0168 51.8833 41.9951 51.9021 41.9668C51.9111 41.9533 51.929 41.943 51.9412 41.9319C51.9533 41.9208 51.9648 41.9078 51.9785 41.8987C52.0124 41.8761 52.046 41.85 52.082 41.832" stroke="#F1A33B" stroke-width="0.5" stroke-linecap="round"/>
<path d="M51.3906 42.6055C51.4196 42.5765 51.4579 42.5504 51.4727 42.51C51.477 42.4981 51.4922 42.4824 51.5002 42.4724C51.5256 42.4408 51.5421 42.4034 51.5642 42.3696C51.5979 42.3181 51.6269 42.2635 51.6602 42.2118C51.6784 42.1835 51.7023 42.1745 51.7253 42.1515C51.7424 42.1343 51.7621 42.1034 51.7871 42.0979C51.8153 42.0916 51.8287 42.0523 51.8572 42.0471C51.9165 42.0363 51.9739 41.9706 52.0195 41.9358C52.0601 41.9048 52.1037 41.8778 52.1484 41.8555" stroke="#F1A33B" stroke-width="0.5" stroke-linecap="round"/>
<path d="M51.5117 42.25C51.5117 42.1962 51.589 42.1766 51.623 42.1502C51.6896 42.0984 51.7667 42.0527 51.8281 41.9944C51.8859 41.9395 51.9595 41.9083 52.0217 41.8574C52.0554 41.8298 52.104 41.8184 52.1367 41.7891C52.157 41.7709 52.1833 41.7712 52.207 41.7617" stroke="#F1A33B" stroke-width="0.5" stroke-linecap="round"/>
<path d="M56.1349 38.9373C56.0578 38.9373 55.9808 38.9373 55.9037 38.9373C55.8515 38.9373 55.762 38.938 55.7213 38.9746C55.6968 38.9966 55.6012 39.0289 55.6302 39.0131C55.69 38.9805 55.7202 38.93 55.7727 38.8885C55.8378 38.8371 55.9103 38.795 55.9872 38.764C56.0688 38.731 56.1633 38.6516 56.253 38.6484C56.3598 38.6446 56.4498 38.5509 56.5227 38.4802C56.5524 38.4514 56.5866 38.4311 56.6062 38.3941C56.6231 38.3621 56.5714 38.3926 56.5599 38.4031C56.5257 38.4342 56.4855 38.4467 56.4559 38.4866C56.4306 38.5206 56.4038 38.5763 56.3545 38.579C56.3184 38.581 56.2877 38.5906 56.2504 38.5906C56.2378 38.5906 56.1605 38.5906 56.2042 38.5906" stroke="#F1A33B" stroke-width="0.5" stroke-linecap="round"/>
<path d="M56.2043 38.5792C56.1929 38.5891 56.2065 38.5464 56.2389 38.5445C56.2597 38.5433 56.2824 38.533 56.3083 38.533" stroke="#F1A33B" stroke-width="0.5" stroke-linecap="round"/>
<path d="M52.5404 41.3879C52.6375 41.3771 52.7167 41.2685 52.8037 41.2351C52.853 41.2161 52.89 41.167 52.9392 41.1452C52.9598 41.136 52.9877 41.1116 53.0046 41.0964C53.0792 41.0293 53.1522 40.9623 53.223 40.8916C53.3158 40.7987 53.3923 40.6978 53.4824 40.6078C53.6495 40.4406 53.8657 40.3127 54.0494 40.1653C54.1087 40.1177 54.1834 40.0529 54.2266 39.9907C54.3672 39.788 54.5645 39.6865 54.7595 39.5528C54.8585 39.4849 54.9793 39.3792 55.1005 39.3537C55.1322 39.347 55.2049 39.3167 55.2308 39.2934C55.2658 39.2619 55.3134 39.2554 55.3548 39.2324C55.4044 39.2048 55.4666 39.1502 55.5249 39.1457C55.5707 39.1422 55.6444 39.1077 55.6841 39.0879" stroke="#F1A33B" stroke-width="0.5" stroke-linecap="round"/>
<path d="M52.448 41.4342C52.4516 41.4016 52.5046 41.3595 52.5244 41.3353C52.5545 41.2984 52.5888 41.2651 52.6214 41.2325C52.6686 41.1853 52.7336 41.1582 52.7857 41.108C53.0133 40.8888 53.2626 40.6878 53.5023 40.4813C53.6523 40.3521 53.7966 40.2146 53.9415 40.0793C53.9923 40.0319 54.0605 40.0136 54.1162 39.9727C54.2085 39.9051 54.3114 39.8491 54.4038 39.7801C54.6765 39.5766 54.9659 39.4017 55.2681 39.2433C55.3591 39.1956 55.4697 39.1546 55.5506 39.0879C55.5654 39.0757 55.642 39.0341 55.6264 39.0186" stroke="#F1A33B" stroke-width="0.5" stroke-linecap="round"/>
<path d="M54.7578 39.6289C54.759 39.6093 54.7903 39.587 54.8056 39.5764C54.8191 39.567 54.8358 39.5542 54.8477 39.543C54.8603 39.531 54.8733 39.5255 54.8876 39.5156C54.9323 39.4847 54.9806 39.4562 55.0145 39.4134C55.0301 39.3938 55.0449 39.3729 55.0605 39.3537C55.0666 39.3464 55.0754 39.3359 55.084 39.332C55.1162 39.3177 55.1409 39.2771 55.166 39.252C55.1917 39.2262 55.219 39.2195 55.25 39.204C55.2683 39.1948 55.2864 39.1862 55.3047 39.1766C55.3181 39.1696 55.3299 39.1609 55.3429 39.1532C55.3551 39.1459 55.3688 39.1444 55.3806 39.1359C55.4008 39.1213 55.4212 39.107 55.4423 39.0938C55.4611 39.0819 55.4845 39.0739 55.502 39.0603C55.5143 39.0507 55.5301 39.0418 55.5449 39.0352C55.5639 39.0267 55.5906 39.0157 55.6111 39.0119C55.6291 39.0087 55.6495 39.0017 55.6662 38.9941C55.6841 38.986 55.6979 38.9727 55.668 38.9727" stroke="#F1A33B" stroke-width="0.5" stroke-linecap="round"/>
<path d="M52.6133 43.9297C52.6133 43.9308 52.6281 43.9128 52.6322 43.9091C52.702 43.8444 52.7666 43.7742 52.837 43.7101C52.8901 43.6617 52.9415 43.6132 52.9922 43.5625C53.0821 43.4726 53.1717 43.3824 53.255 43.2862C53.4294 43.0847 53.6503 42.9309 53.8464 42.7522C53.8805 42.721 53.9167 42.6892 53.9531 42.661C53.9725 42.646 54.0035 42.6094 54.0312 42.6094" stroke="#F1A33B" stroke-width="0.5" stroke-linecap="round"/>
<path d="M52.4609 43.9688C52.4618 43.9756 52.4753 43.9723 52.4805 43.9727C52.4874 43.9731 52.4928 43.988 52.498 43.9922C52.5089 44.0009 52.5095 44.0078 52.5234 44.0078" stroke="#F1A33B" stroke-width="0.5" stroke-linecap="round"/>
<path d="M53.168 43.4219C53.2073 43.4219 53.2418 43.3813 53.2687 43.3572C53.2902 43.3379 53.3102 43.3187 53.3301 43.2988C53.3742 43.2547 53.4129 43.2034 53.457 43.1584C53.5188 43.0955 53.5748 43.0274 53.6337 42.9618C53.6866 42.9029 53.7431 42.8467 53.799 42.7908C53.8269 42.763 53.853 42.7315 53.8826 42.7057C53.9348 42.6604 53.9849 42.6108 54.0395 42.5681C54.1092 42.5137 54.1835 42.4619 54.2578 42.4141" stroke="#F1A33B" stroke-width="0.5" stroke-linecap="round"/>
<path d="M54.7383 42.1641C54.7284 42.1653 54.7282 42.1781 54.7227 42.1836C54.7128 42.1934 54.6998 42.1994 54.6879 42.2053C54.6674 42.2156 54.6487 42.233 54.6298 42.2461C54.5798 42.2807 54.5212 42.3014 54.4729 42.3401C54.4412 42.3654 54.4038 42.4039 54.365 42.418C54.3423 42.4262 54.3249 42.4472 54.3047 42.4579C54.2845 42.4686 54.2656 42.4787 54.247 42.4922C54.2328 42.5024 54.2231 42.5179 54.2092 42.5293C54.1873 42.5472 54.1679 42.566 54.1482 42.5857C54.1328 42.6011 54.1128 42.6182 54.0938 42.6289C54.0673 42.6438 54.0447 42.6707 54.0213 42.6899C53.9811 42.7228 53.937 42.7551 53.8993 42.7899C53.884 42.8041 53.8649 42.8196 53.8457 42.8281C53.8178 42.8405 53.7978 42.8716 53.7713 42.8867C53.752 42.8977 53.7345 42.9089 53.7157 42.9219C53.7043 42.9298 53.6897 42.9546 53.6758 42.9453" stroke="#F1A33B" stroke-width="0.5" stroke-linecap="round"/>
<path d="M56.4805 40.4023C56.4805 40.4352 56.4794 40.4629 56.4724 40.4941C56.4675 40.5165 56.4426 40.5347 56.4271 40.5495C56.3656 40.6082 56.3013 40.6636 56.2413 40.7235C56.2182 40.7466 56.2006 40.7726 56.1719 40.791C56.1373 40.8132 56.1138 40.8472 56.082 40.872C56.0461 40.8999 56.0167 40.9407 55.9846 40.9729C55.949 41.0085 55.9098 41.0433 55.8672 41.0712C55.8203 41.1019 55.7763 41.1395 55.7344 41.1766C55.7171 41.1919 55.7002 41.2076 55.6832 41.2231C55.6618 41.2426 55.6344 41.259 55.6157 41.281C55.5843 41.3179 55.5393 41.3456 55.5026 41.3765C55.4574 41.4146 55.4073 41.4468 55.365 41.4883C55.3006 41.5516 55.2294 41.6044 55.1658 41.668C55.1268 41.707 55.104 41.7743 55.0547 41.8016C55.0245 41.8184 54.9787 41.8438 54.9414 41.8438" stroke="#F1A33B" stroke-width="0.5" stroke-linecap="round"/>
<path d="M55.8047 41.1016C55.813 41.1109 55.8118 41.1259 55.8038 41.1359C55.7992 41.1416 55.8041 41.1502 55.7999 41.1554C55.7953 41.1611 55.788 41.1647 55.7826 41.1701C55.7628 41.1899 55.746 41.2141 55.7287 41.2363C55.7157 41.253 55.6999 41.2632 55.6866 41.2765C55.6639 41.2992 55.6326 41.3154 55.6068 41.3346C55.5758 41.3577 55.5392 41.3757 55.5098 41.4006C55.4851 41.4215 55.4603 41.442 55.4375 41.4648C55.424 41.4783 55.4183 41.4966 55.4043 41.5078C55.3884 41.5206 55.3745 41.5353 55.3572 41.5469C55.3062 41.5809 55.2506 41.6168 55.2062 41.6593C55.189 41.6757 55.168 41.6879 55.151 41.7044C55.135 41.72 55.1187 41.7366 55.1007 41.75C55.0731 41.7705 55.0518 41.8018 55.0256 41.8242C54.9983 41.8476 54.9725 41.8742 54.9455 41.8984C54.9248 41.9171 54.9023 41.9337 54.8828 41.9531C54.8612 41.9747 54.8383 41.9954 54.8145 42.0139C54.8006 42.0247 54.777 42.0597 54.7578 42.0469" stroke="#F1A33B" stroke-width="0.5" stroke-linecap="round"/>
<path d="M55.6758 41.3047C55.6533 41.3047 55.6197 41.3313 55.6007 41.3438C55.5787 41.3581 55.559 41.3741 55.5352 41.3867C55.506 41.4021 55.4764 41.426 55.4531 41.4492C55.4397 41.4626 55.4238 41.473 55.4141 41.49C55.4066 41.5031 55.3886 41.5239 55.377 41.533C55.3586 41.5473 55.3444 41.5661 55.3262 41.5803C55.2772 41.6184 55.2221 41.6585 55.1853 41.7101C55.1554 41.752 55.1147 41.7818 55.0781 41.8164C55.0533 41.8399 55.0196 41.8593 55 41.8876C54.9919 41.8994 54.9782 41.9108 54.9668 41.9197C54.9604 41.9247 54.9545 41.9343 54.9473 41.9375C54.9281 41.946 54.9164 41.973 54.9002 41.9863C54.8785 42.0041 54.8616 42.0251 54.8418 42.0449C54.826 42.0608 54.8109 42.0758 54.7949 42.0918C54.7825 42.1042 54.7701 42.1166 54.7578 42.1289C54.7439 42.1429 54.7255 42.1406 54.707 42.1406" stroke="#F1A33B" stroke-width="0.5" stroke-linecap="round"/>
<path d="M58.2188 38.7422C58.2288 38.7434 58.25 38.7628 58.2539 38.7715C58.2596 38.7843 58.2752 38.7892 58.2812 38.8027C58.2867 38.815 58.2943 38.8233 58.2999 38.8359C58.3065 38.8508 58.3078 38.8741 58.3086 38.8906C58.3098 38.9147 58.3086 38.939 58.3086 38.9631C58.3086 38.9961 58.3116 39.0346 58.3027 39.0664C58.296 39.0907 58.2962 39.1147 58.2873 39.1387C58.2769 39.1671 58.2478 39.193 58.2246 39.2127C58.1258 39.2962 58.0293 39.3818 57.9266 39.4609C57.8419 39.5263 57.7542 39.5876 57.6662 39.6482C57.5771 39.7097 57.4871 39.7687 57.4015 39.8355C57.3099 39.907 57.2235 39.9855 57.1389 40.0651C57.1002 40.1015 57.0616 40.1375 57.0178 40.168C56.9567 40.2104 56.892 40.2333 56.8203 40.25" stroke="#F1A33B" stroke-width="0.5" stroke-linecap="round"/>
<path d="M60.1719 37.2969C60.1719 37.3152 60.1793 37.3344 60.1895 37.3479C60.2362 37.4102 60.2646 37.4742 60.2656 37.5547C60.267 37.6636 60.2231 37.7703 60.1528 37.8533C60.1077 37.9064 60.0529 37.9375 59.995 37.9742C59.9414 38.0082 59.8851 38.0368 59.8329 38.0734C59.7991 38.0971 59.762 38.1213 59.7266 38.1421C59.4993 38.2755 59.2745 38.4116 59.0608 38.5662C59.0273 38.5904 58.9945 38.6138 58.9646 38.6426C58.9407 38.6657 58.9099 38.6811 58.8859 38.704C58.8414 38.7464 58.7694 38.7637 58.7109 38.7734" stroke="#F1A33B" stroke-width="0.5" stroke-linecap="round"/>
<path d="M61.7266 36.6367C61.7266 36.6745 61.7133 36.6969 61.6866 36.7235C61.6342 36.7759 61.572 36.8158 61.5082 36.8529C61.3943 36.919 61.2846 37.0025 61.1853 37.089C61.1307 37.1366 61.0734 37.18 61.0174 37.2257C60.9594 37.2729 60.8937 37.3098 60.8346 37.3555C60.7423 37.427 60.6467 37.4937 60.5547 37.5655C60.5235 37.5898 60.4954 37.6173 60.4679 37.6454C60.4518 37.6618 60.4434 37.6875 60.418 37.6875" stroke="#F1A33B" stroke-width="0.5" stroke-linecap="round"/>
<path d="M63.4844 35.5195C63.4844 35.5367 63.4886 35.5596 63.4826 35.576C63.4622 35.6321 63.4012 35.6729 63.3537 35.7044C63.301 35.7394 63.2473 35.7718 63.1923 35.803C63.0858 35.8631 62.9869 35.9328 62.8854 36.0004C62.8165 36.0464 62.7398 36.0831 62.6675 36.1233C62.5658 36.1797 62.4703 36.2468 62.3694 36.3043C62.2307 36.3831 62.0947 36.4662 61.9601 36.5516C61.9149 36.5803 61.8714 36.6197 61.8203 36.6367" stroke="#F1A33B" stroke-width="0.5" stroke-linecap="round"/>
<path d="M64.8008 34.6719C64.7894 34.6731 64.7765 34.6913 64.7684 34.6979C64.7181 34.7395 64.6631 34.7758 64.6109 34.8149C64.5165 34.8855 64.4176 34.9515 64.326 35.0256C64.2696 35.0712 64.2086 35.1117 64.151 35.1558C64.0828 35.2081 64.0145 35.2587 63.9395 35.301C63.8366 35.3589 63.736 35.4198 63.6489 35.5C63.6076 35.5379 63.5655 35.5753 63.5226 35.6111C63.5095 35.622 63.4735 35.6659 63.4531 35.6523" stroke="#F1A33B" stroke-width="0.5" stroke-linecap="round"/>
<path d="M64.3398 33.2578C64.3665 33.2711 64.391 33.2935 64.4141 33.3116C64.4718 33.3569 64.5281 33.4039 64.5833 33.4523C64.6649 33.5237 64.7442 33.5976 64.8253 33.6695C64.9355 33.7671 65.0452 33.8677 65.1606 33.9592C65.1726 33.9687 65.1885 33.9834 65.2031 33.9883" stroke="#F1A33B" stroke-width="0.5" stroke-linecap="round"/>
<path d="M64.5625 33.7617C64.6613 33.844 64.7617 33.926 64.8539 34.0163C64.874 34.0359 64.9036 34.0733 64.9297 34.082" stroke="#F1A33B" stroke-width="0.5" stroke-linecap="round"/>
<path d="M64.8164 33.457C64.8331 33.4587 64.8507 33.4754 64.8646 33.4835C64.8951 33.5014 64.9233 33.5198 64.9527 33.5395C64.9976 33.5696 65.0376 33.6053 65.0812 33.6367C65.1481 33.6849 65.2062 33.746 65.2726 33.7951C65.2953 33.812 65.3159 33.8349 65.3377 33.8533C65.3629 33.8747 65.3893 33.8941 65.4132 33.9171C65.4259 33.9294 65.4411 33.9416 65.4553 33.9523C65.4658 33.9601 65.4772 33.9727 65.4883 33.9787C65.5329 34.0031 65.5676 34.046 65.6172 34.0625" stroke="#F1A33B" stroke-width="0.5" stroke-linecap="round"/>
<path d="M63.8242 33.4688C63.8525 33.4405 63.8762 33.405 63.9149 33.3898C63.9388 33.3804 63.9635 33.3715 63.9881 33.3633C64.01 33.356 64.0304 33.3415 64.0516 33.332C64.0766 33.3209 64.0958 33.2875 64.123 33.2815C64.14 33.2777 64.1627 33.2581 64.1773 33.248C64.208 33.2268 64.247 33.208 64.2743 33.1827C64.2986 33.1602 64.3395 33.1523 64.3711 33.1523" stroke="#F1A33B" stroke-width="0.5" stroke-linecap="round"/>
<path d="M64.0938 33.3789C64.0897 33.3784 64.0783 33.3664 64.0751 33.3624C64.0712 33.3575 64.0742 33.3402 64.0742 33.334C64.0742 33.308 64.0622 33.3086 64.0391 33.3086" stroke="#F1A33B" stroke-width="0.5" stroke-linecap="round"/>
<path d="M64.2461 33.3164C64.2477 33.2865 64.2603 33.25 64.293 33.25C64.3059 33.25 64.3187 33.2447 64.3299 33.2391C64.3452 33.2315 64.3451 33.2231 64.3563 33.2118C64.3683 33.1999 64.3878 33.2041 64.4023 33.1992" stroke="#F1A33B" stroke-width="0.5" stroke-linecap="round"/>
<path d="M64.4922 33.1173C64.4913 33.1099 64.4558 33.0808 64.4531 33.0861" stroke="#F1A33B" stroke-width="0.5" stroke-linecap="round"/>
<path d="M64.5781 33.625C64.5781 33.6187 64.5844 33.6005 64.5881 33.5957C64.5967 33.5847 64.5977 33.5691 64.6035 33.5564C64.6181 33.5243 64.6214 33.4862 64.6387 33.4551C64.6497 33.4353 64.668 33.4162 64.6827 33.4015C64.6847 33.3995 64.6875 33.3745 64.6875 33.3711C64.6875 33.3609 64.6951 33.352 64.6992 33.3438" stroke="#F1A33B" stroke-width="0.5" stroke-linecap="round"/>
<path d="M64.6133 33.2773C64.6133 33.2721 64.6193 33.2617 64.6172 33.2617" stroke="#F1A33B" stroke-width="0.5" stroke-linecap="round"/>
<path d="M65.3242 33.8125C65.3424 33.8145 65.3629 33.8409 65.3798 33.8485C65.3973 33.8564 65.4099 33.8712 65.4273 33.8789C65.4348 33.8823 65.4378 33.8929 65.4453 33.8976C65.4553 33.9038 65.4655 33.9093 65.4761 33.9158C65.5196 33.9424 65.5618 33.9741 65.6046 34.0022C65.6409 34.0259 65.6782 34.058 65.7188 34.0742" stroke="#F1A33B" stroke-width="0.5" stroke-linecap="round"/>
<path d="M65.4961 34.0938C65.5074 34.095 65.5097 34.1146 65.5165 34.122C65.524 34.1301 65.5366 34.1429 65.5421 34.1523C65.55 34.1657 65.565 34.1748 65.576 34.1858C65.5877 34.1975 65.599 34.2116 65.6094 34.2246C65.6177 34.235 65.632 34.2444 65.6367 34.2539" stroke="#F1A33B" stroke-width="0.5" stroke-linecap="round"/>
<path d="M65.5703 34.1914H65.7617" stroke="#F1A33B" stroke-width="0.5" stroke-linecap="round"/>
<path d="M66.0938 34.1641C66.0427 34.1641 65.9921 34.1631 65.9414 34.1602C65.9326 34.1596 65.9204 34.1521 65.911 34.1493C65.8992 34.1458 65.8849 34.1487 65.8789 34.1367" stroke="#F1A33B" stroke-width="0.5" stroke-linecap="round"/>
<path d="M57.8821 37.5822C57.9118 37.5789 57.9346 37.5555 57.9599 37.541C57.9781 37.5306 58.017 37.5124 58.0303 37.4957C58.0408 37.4826 58.0582 37.4864 58.0715 37.4797C58.0952 37.4679 58.1184 37.4438 58.1374 37.4257C58.1753 37.3897 58.2286 37.3606 58.261 37.3205C58.2979 37.2747 58.3552 37.2361 58.3964 37.191C58.4541 37.1278 58.5068 37.0587 58.5621 36.9933C58.6333 36.9091 58.6991 36.8155 58.7767 36.738C58.8154 36.6992 58.8576 36.6579 58.8915 36.6121C58.9084 36.5893 58.87 36.6485 58.8604 36.6579C58.8175 36.6998 58.7639 36.7308 58.7122 36.7604C58.6253 36.81 58.5053 36.8815 58.4422 36.9603C58.4073 37.0039 58.3443 37.0334 58.3104 37.0816C58.2489 37.169 58.163 37.2354 58.088 37.3104" stroke="#F1A33B" stroke-width="0.5" stroke-linecap="round"/>
<path d="M57.8986 37.4502C57.9306 37.4467 57.9706 37.4119 58.0011 37.4008C58.0381 37.3873 58.0553 37.3549 58.088 37.3367C58.1259 37.3157 58.1601 37.2783 58.1905 37.248C58.2115 37.227 58.2663 37.1924 58.2775 37.1702" stroke="#F1A33B" stroke-width="0.5" stroke-linecap="round"/>
<path d="M59.2164 36.3054C59.2719 36.3054 59.3311 36.2712 59.3784 36.244C59.4112 36.2253 59.4543 36.2087 59.4841 36.1855C59.5268 36.1523 59.5859 36.133 59.6328 36.1031C59.6961 36.0629 59.7592 35.9911 59.8305 35.9695C59.87 35.9575 59.9204 35.9167 59.9559 35.8935C60.1129 35.7909 60.2499 35.6527 60.419 35.5682C60.5669 35.4942 60.6911 35.3601 60.8144 35.2529C60.8714 35.2033 60.9611 35.1028 61.045 35.1028" stroke="#F1A33B" stroke-width="0.5" stroke-linecap="round"/>
<path d="M59.2494 36.1654C59.316 36.1587 59.3818 36.1083 59.4388 36.0766C59.505 36.0399 59.573 36.0095 59.6393 35.9714C59.7295 35.9195 59.8121 35.8582 59.9033 35.8076C59.9903 35.7592 60.0773 35.709 60.1618 35.6566C60.2471 35.6037 60.3366 35.5535 60.4236 35.506C60.4962 35.4664 60.5651 35.4206 60.6387 35.3825C60.7495 35.325 60.8443 35.2375 60.9453 35.1646C60.9616 35.1529 60.984 35.1223 61.0038 35.1193C61.0376 35.1143 61.0796 35.09 61.1109 35.0759C61.2375 35.0187 61.3423 34.9229 61.4706 34.8686C61.4896 34.8605 61.5386 34.8487 61.5475 34.8311" stroke="#F1A33B" stroke-width="0.5" stroke-linecap="round"/>
<path d="M62.6346 34.2051C62.5845 34.2051 62.545 34.2437 62.4987 34.254C62.4699 34.2604 62.4352 34.2822 62.4122 34.3039C62.354 34.3589 62.271 34.3912 62.1985 34.4229C62.1757 34.4329 62.1498 34.4296 62.1271 34.4366C62.1022 34.4443 62.0722 34.4604 62.0457 34.4604C62.0101 34.4604 61.9699 34.4823 61.9363 34.4952C61.8947 34.5112 61.849 34.552 61.8064 34.5597C61.7841 34.5638 61.7568 34.5785 61.735 34.5858C61.709 34.5944 61.6791 34.6102 61.6563 34.6252C61.6251 34.6455 61.5834 34.659 61.5556 34.6828C61.5309 34.704 61.4884 34.7348 61.4586 34.7469C61.4164 34.7641 61.3888 34.8039 61.3497 34.827C61.3066 34.8524 61.2701 34.8848 61.2266 34.9093C61.1575 34.9482 61.071 34.9842 61.012 35.037C60.9884 35.0581 60.9389 35.0814 60.909 35.0947C60.851 35.1205 60.7905 35.1778 60.7406 35.2177C60.7083 35.2436 60.6815 35.2684 60.656 35.3006C60.6369 35.3245 60.6018 35.3619 60.5754 35.3765C60.5529 35.3891 60.5364 35.4169 60.5132 35.4324C60.484 35.4519 60.4576 35.4681 60.4349 35.4946C60.4044 35.5302 60.3457 35.5384 60.3036 35.5495C60.2635 35.5601 60.2326 35.5955 60.1965 35.6136" stroke="#F1A33B" stroke-width="0.5" stroke-linecap="round"/>
<path d="M55.5376 41.2268C55.5888 41.2211 55.6587 41.1237 55.6925 41.091C55.7501 41.0353 55.8097 40.977 55.8717 40.9261C56.0454 40.7834 56.2087 40.6385 56.3968 40.515C56.4692 40.4675 56.535 40.4102 56.609 40.3655C56.6542 40.3381 56.7177 40.3141 56.7548 40.2769C56.7667 40.2651 56.8392 40.2217 56.8243 40.2647C56.8068 40.3152 56.7369 40.3465 56.6965 40.3729C56.5298 40.4816 56.377 40.6123 56.2366 40.7526C56.1525 40.8368 55.881 41.0628 55.9863 41.0072C56.062 40.9673 56.1305 40.8927 56.2022 40.8444C56.3039 40.7759 56.4073 40.707 56.5125 40.6439C56.5651 40.6123 56.6126 40.5755 56.662 40.5394C56.6782 40.5276 56.6788 40.504 56.7023 40.5012C56.7331 40.4976 56.8384 40.3999 56.8169 40.3676" stroke="#F1A33B" stroke-width="0.5" stroke-linecap="round"/>
<path d="M57.1128 39.9953C57.1943 39.9953 57.278 39.9496 57.3536 39.9264C57.3895 39.9153 57.4172 39.8865 57.4517 39.8712C57.4901 39.8541 57.5348 39.8229 57.571 39.7996C57.7192 39.7044 57.8543 39.5987 57.9916 39.4888C58.0443 39.4466 58.0949 39.3861 58.1534 39.3535C58.1842 39.3365 58.2069 39.3036 58.2383 39.2851C58.2824 39.2591 58.3198 39.2365 58.3571 39.1997C58.442 39.1158 58.525 39.0348 58.617 38.9595C58.6639 38.9211 58.7282 38.8983 58.7856 38.8762C58.8969 38.8334 58.9806 38.7442 59.0837 38.6879C59.1051 38.6763 59.1198 38.6662 59.1373 38.6487C59.1519 38.6341 59.1661 38.6207 59.1845 38.611C59.2952 38.5528 59.3901 38.4618 59.4889 38.3861C59.6117 38.2922 59.7401 38.1968 59.8729 38.1183C59.9898 38.0492 60.0938 37.9686 60.2156 37.9066C60.27 37.8789 60.3246 37.8453 60.3779 37.8186" stroke="#F1A33B" stroke-width="0.5" stroke-linecap="round"/>
<path d="M60.292 37.9619C60.2227 37.9619 60.1467 38.0263 60.0862 38.0574C59.9283 38.1386 59.774 38.2364 59.6333 38.3459C59.5273 38.4284 59.426 38.5182 59.3172 38.5968C59.2338 38.657 59.1263 38.706 59.0562 38.7824C58.977 38.8688 58.8572 38.9088 58.7719 38.9856C58.7247 39.0281 58.6463 39.0912 58.5879 39.1171C58.5629 39.1282 58.5435 39.1504 58.5211 39.1654C58.4998 39.1795 58.4686 39.2041 58.4495 39.2221C58.4238 39.2463 58.3933 39.2746 58.3635 39.2937C58.3261 39.3178 58.2935 39.3588 58.2681 39.308" stroke="#F1A33B" stroke-width="0.5" stroke-linecap="round"/>
<path d="M63.7385 35.6323C63.6928 35.6374 63.6214 35.6678 63.5815 35.6896C63.4875 35.7409 63.3922 35.7857 63.3068 35.8519C63.1631 35.9633 63.0122 36.0479 62.8602 36.1468C62.5299 36.3617 62.2345 36.6323 61.9108 36.8565C61.7487 36.9687 61.5738 37.0671 61.4069 37.1726C61.199 37.304 60.9897 37.4332 60.7906 37.5778C60.6871 37.6529 60.5896 37.7355 60.4851 37.809C60.4491 37.8343 60.3876 37.8853 60.3684 37.9236" stroke="#F1A33B" stroke-width="0.5" stroke-linecap="round"/>
<path d="M65.6861 34.4868C65.449 34.4868 65.2208 34.606 65.0051 34.6926C64.8944 34.7371 64.7858 34.7881 64.6794 34.8422C64.5386 34.9137 64.3879 34.9775 64.2535 35.0596C64.0479 35.1853 63.8107 35.2554 63.6054 35.3837C63.5841 35.397 63.3809 35.5422 63.3757 35.537" stroke="#F1A33B" stroke-width="0.5" stroke-linecap="round"/>
<path d="M64.9318 34.8208C64.9069 34.8236 64.8713 34.8562 64.8512 34.8707C64.8025 34.9057 64.7486 34.938 64.6974 34.9693C64.5312 35.071 64.3778 35.1979 64.2164 35.3077C64.1202 35.3731 64.0236 35.4323 63.9289 35.4986C63.9158 35.5078 63.7715 35.622 63.7576 35.5941" stroke="#F1A33B" stroke-width="0.5" stroke-linecap="round"/>
<path d="M66.0202 34.2671C65.9548 34.2671 65.8865 34.3265 65.8335 34.3583C65.729 34.421 65.6294 34.4841 65.5327 34.5583C65.3387 34.7071 65.1235 34.8228 64.9217 34.9592C64.6836 35.1203 64.4323 35.266 64.1956 35.4286C64.0128 35.5543 63.8037 35.6296 63.6334 35.7755" stroke="#F1A33B" stroke-width="0.5" stroke-linecap="round"/>
<path d="M61.1078 34.9819C61.0611 35.0193 60.9889 35.0356 60.9371 35.0711C60.8688 35.1178 60.8025 35.1693 60.7382 35.2212C60.6313 35.3076 60.5186 35.3859 60.4091 35.4681C60.154 35.6594 59.903 35.8889 59.6128 36.0243" stroke="#F1A33B" stroke-width="0.5" stroke-linecap="round"/>
<path d="M51.7153 45.3356C51.7701 45.3295 51.8087 45.2624 51.8494 45.2324C51.9376 45.1674 52.009 45.1038 52.0856 45.0273C52.2436 44.8692 52.4323 44.7424 52.5922 44.5825C52.729 44.4458 52.8944 44.3415 53.0151 44.1905C53.0402 44.1592 53.0894 44.1348 53.1229 44.1137C53.1643 44.0877 53.1932 44.038 53.2329 44.0163C53.3164 43.9708 53.3724 43.9054 53.4381 43.8398C53.5547 43.7231 53.7032 43.6343 53.8198 43.5177C54.0773 43.2602 54.3726 43.0497 54.6347 42.7876C54.7034 42.7188 54.7795 42.6618 54.8514 42.5962C54.9645 42.4929 55.0853 42.3361 55.2227 42.2615C55.3908 42.1702 55.5829 42.0154 55.7225 41.8855C55.9758 41.6496 56.2751 41.4519 56.5523 41.2459C56.6516 41.1721 56.7398 41.0918 56.8366 41.0144C56.9388 40.9326 57.0635 40.8619 57.1575 40.7714C57.2925 40.6414 57.466 40.5649 57.616 40.4505C57.8217 40.2934 58.032 40.1692 58.251 40.0332C58.379 39.9538 58.5406 39.8909 58.6843 39.843C58.8312 39.794 58.9144 39.7031 59.0809 39.7031" stroke="black" stroke-width="0.5" stroke-linecap="round"/>
<path d="M63.5796 36.2812C63.631 36.2812 63.7064 36.2233 63.7509 36.1979C63.8272 36.1543 63.922 36.0908 64.0068 36.0578C64.0896 36.0256 64.163 35.9756 64.2412 35.9322C64.333 35.8812 64.4255 35.8376 64.5173 35.7863C64.5812 35.7506 64.6488 35.7228 64.7117 35.6851C64.8037 35.6299 64.8881 35.5644 64.978 35.5079C65.0202 35.4814 65.0569 35.4683 65.1053 35.4558C65.1619 35.4413 65.2097 35.4139 65.2639 35.391C65.3319 35.3623 65.4002 35.3259 65.4654 35.2915C65.5373 35.2534 65.6229 35.2339 65.7004 35.2081C65.8042 35.1735 65.9393 35.1526 66.028 35.0935" stroke="black" stroke-width="0.5" stroke-linecap="round"/>
<path d="M65.9446 33.416C65.9507 33.4649 66.0792 33.5425 66.1148 33.5711C66.1708 33.6164 66.2219 33.6621 66.2728 33.7129C66.2987 33.7389 66.3437 33.7661 66.3613 33.7969C66.3738 33.8187 66.4024 33.8588 66.4238 33.8721C66.4474 33.8868 66.4594 33.9242 66.4817 33.9369C66.5316 33.9655 66.473 33.9304 66.4574 33.9057C66.4362 33.8721 66.3663 33.8337 66.3324 33.8119C66.2705 33.7721 66.1768 33.7182 66.1009 33.7182C66.0722 33.7182 66.0503 33.7189 66.0239 33.7083C66.0088 33.7023 66.056 33.7154 66.0702 33.7234C66.1252 33.7543 66.1658 33.8038 66.2074 33.8507C66.2773 33.9296 66.3418 34.0178 66.4082 34.099C66.4463 34.1455 66.5062 34.2334 66.5593 34.2599" stroke="black" stroke-width="0.5" stroke-linecap="round"/>
<path d="M58.3569 36.3139C58.4435 36.2857 58.5254 36.2275 58.5852 36.1579C58.5996 36.141 58.622 36.1203 58.6412 36.1089C58.6608 36.0974 58.6873 36.0852 58.7053 36.0711C58.7263 36.0548 58.7553 36.0505 58.7778 36.038C58.8231 36.0128 58.8725 35.9923 58.9144 35.9615C58.9421 35.9411 58.9736 35.9257 59.0008 35.9045C59.0283 35.8831 59.0768 35.8566 59.1095 35.8457" stroke="black" stroke-width="0.5" stroke-linecap="round"/>
<path d="M58.3125 39.8086C58.3322 39.8047 58.3499 39.7861 58.3689 39.7804C58.3888 39.7744 58.4131 39.7659 58.4319 39.7569C58.4631 39.7421 58.4943 39.7266 58.5239 39.7083C58.5574 39.6876 58.594 39.6749 58.6289 39.6571C58.6648 39.6388 58.7094 39.6274 58.7422 39.6055" stroke="black" stroke-width="0.5" stroke-linecap="round"/>
<path d="M101.78 54.4823V54.7035" stroke="#F1A33B" stroke-width="0.1" stroke-linecap="round"/>
<path d="M66.0779 24.7575C66.9883 24.7575 67.729 24.6675 68.6269 24.4034" stroke="black" stroke-width="0.1" stroke-linecap="round"/>
<path d="M68.6268 24.4035C67.5925 24.4035 66.3467 24.2195 65.3698 24.5451" stroke="black" stroke-width="0.1" stroke-linecap="round"/>
<path d="M65.3698 24.545H67.494" stroke="black" stroke-width="0.1" stroke-linecap="round"/>
<path d="M73.8664 25.6072C73.92 26.0896 73.9372 26.5724 73.9372 27.0705C73.9372 28.1494 74.2564 29.1537 74.362 30.2095" stroke="black" stroke-width="0.1" stroke-linecap="round"/>
<path d="M79.6016 27.4481C79.8244 27.4729 79.781 28.2183 79.8494 28.3961C80.0442 28.9025 80.3609 29.2461 80.7345 29.6431" stroke="black" stroke-width="0.1" stroke-linecap="round"/>
<path d="M69.8305 24.4742C69.1303 24.4742 68.4302 24.4742 67.73 24.4742C67.0286 24.4742 66.3767 24.484 65.6963 24.6867C65.2956 24.806 64.8184 24.8561 64.4493 25.0407" stroke="black" stroke-width="0.1" stroke-linecap="round"/>
<path d="M68.5087 24.1148C67.8691 24.1148 67.2295 24.1148 66.5899 24.1148C66.4533 24.1148 66.8574 24.0594 66.9912 24.032C67.3825 23.9519 67.7682 23.8495 68.158 23.7629C68.3019 23.7309 68.4452 23.7075 68.5902 23.6814C68.6368 23.673 68.7399 23.6658 68.7803 23.6369C68.8371 23.5963 68.6425 23.661 68.5753 23.6801C68.2973 23.7596 68.0219 23.8467 67.7456 23.932C67.5756 23.9845 67.4112 24.0426 67.2468 24.1098C67.2378 24.1135 67.1124 24.1475 67.1505 24.1543C67.3028 24.1816 67.499 24.1327 67.6493 24.1098C67.7596 24.093 67.8805 24.0811 67.9876 24.0481C68.0199 24.0382 68.1186 24.0157 68.0864 24.0259C67.9634 24.0647 67.7943 24.0786 67.6752 24.1024C67.373 24.1629 67.0757 24.2353 66.78 24.3222C66.5511 24.3895 66.3197 24.4523 66.0923 24.5247C66.0321 24.5439 65.8526 24.565 65.8083 24.6148C65.7832 24.643 65.8833 24.634 65.9207 24.6284C66.1507 24.5942 66.3796 24.5199 66.6035 24.4605C66.9003 24.3817 67.1967 24.3027 67.4912 24.216C67.6183 24.1787 67.7503 24.1478 67.8753 24.1049C67.9936 24.0642 67.7485 24.1052 67.7431 24.1061C67.3666 24.1741 66.9979 24.306 66.6343 24.4247C66.5733 24.4446 66.5134 24.4703 66.4516 24.4877C66.4332 24.4928 66.6745 24.4378 66.7158 24.4259C67.0502 24.3301 67.3914 24.2075 67.716 24.0827C67.8257 24.0405 67.939 24.0058 68.0469 23.9592C68.1657 23.9079 67.7289 23.9785 67.7135 23.9814C67.399 24.0406 67.077 24.0958 66.7751 24.2037" stroke="black" stroke-width="0.1" stroke-linecap="round"/>
<path d="M64.8637 24.7149C65.0135 24.7149 65.1633 24.7149 65.3132 24.7149C65.5885 24.7149 65.8551 24.6387 66.1207 24.5704C66.5519 24.4595 66.9786 24.3712 67.4171 24.2877C67.7377 24.2266 68.2982 24.1176 68.6198 24.0531C68.7335 24.0303 68.8472 24.0074 68.9606 23.9827C69.0882 23.9548 69.0677 23.9592 68.9976 23.9592C68.7674 23.9592 68.5377 23.9663 68.3086 23.9913C67.7177 24.056 67.1266 24.1448 66.5405 24.2432C66.0275 24.3294 65.5125 24.4192 65.0205 24.5914C64.8891 24.6374 64.934 24.6294 65.0674 24.6248C65.3711 24.6143 65.6771 24.5547 65.9737 24.4939C66.5818 24.3692 67.2102 24.2994 67.8271 24.2309C68.136 24.1966 68.4644 24.1593 68.7754 24.1593" stroke="black" stroke-width="0.4" stroke-linecap="round"/>
<path d="M81.6216 29.3377C81.1435 28.7999 80.7088 28.1936 80.3473 27.5671C80.2893 27.4666 80.2319 27.3479 80.1497 27.2658C80.0077 27.1238 80.156 27.3024 80.2065 27.3831C80.38 27.6601 80.5424 27.9439 80.7227 28.2166C80.8109 28.35 80.9112 28.4787 80.9795 28.6228C81.0572 28.7868 81.133 28.952 81.2067 29.1179C81.2308 29.1722 81.2 29.1232 81.1943 29.1105C81.1489 29.0083 81.04 28.9101 80.9659 28.8278C80.878 28.7301 80.7726 28.6443 80.6794 28.5512C80.5686 28.4403 80.5356 28.4193 80.5992 28.582C80.7473 28.9609 80.8785 29.3439 81.0437 29.7155" stroke="black" stroke-width="0.4" stroke-linecap="round"/>
<path d="M82.0661 38.4501C82.0661 38.3531 82.0834 38.2392 82.0438 38.1501C81.9823 38.0116 81.8795 37.974 81.7574 37.8858C81.7399 37.8732 81.666 37.7789 81.666 37.8401C81.666 38.0356 81.666 38.2311 81.666 38.4266C81.666 38.519 81.6809 38.602 81.7265 38.4723C81.7955 38.2759 81.8493 38.0736 81.9228 37.8796C82.0622 37.5123 81.9195 37.9158 81.9105 37.9068C81.8954 37.8917 81.9683 37.6277 81.9722 37.5981C81.986 37.4945 81.9951 37.553 82.0488 37.4993C82.0899 37.4582 82.0908 37.4938 82.0883 37.5389C82.0838 37.62 81.9683 37.6745 81.913 37.7068C81.7176 37.8207 81.6033 37.8722 81.3771 37.8722" stroke="black" stroke-width="0.4" stroke-linecap="round"/>
<path d="M60.2853 43.3175C60.8532 43.3175 61.4591 43.3718 61.988 43.1397C62.3486 42.9813 62.6648 42.7451 62.9943 42.5297C63.0879 42.4685 63.167 42.4094 63.2635 42.3568C63.345 42.3123 63.4413 42.2137 63.4413 42.3507C63.4413 42.4184 63.3982 42.4088 63.3746 42.4618C63.3312 42.5593 63.2455 42.6776 63.1647 42.7445C62.8452 43.0093 62.4473 43.2056 62.051 43.3286C61.6165 43.4634 61.2298 43.5175 60.7779 43.5175C60.6933 43.5175 60.5775 43.4868 60.6964 43.5397C60.7527 43.5647 60.8039 43.6011 60.852 43.6385C60.9507 43.7152 61.1064 43.6953 61.2237 43.6953C61.4 43.6953 61.5413 43.5767 61.7077 43.5397C61.9034 43.4962 62.1194 43.3769 62.2905 43.273C62.5277 43.129 62.7164 42.9523 62.9301 42.7742C63.1088 42.6252 63.2568 42.4284 63.4462 42.2951C63.5354 42.2323 63.5999 42.1445 63.6857 42.0778C63.7213 42.0502 63.8635 41.8568 63.8635 41.963C63.8635 42.0569 63.8684 42.1207 63.8142 42.2037C63.7728 42.2671 63.6805 42.4508 63.6067 42.4297C63.505 42.4006 63.5213 42.4418 63.4857 42.3173" stroke="black" stroke-width="0.4" stroke-linecap="round"/>
<path d="M54.1954 49.8457C54.1954 49.7441 54.2758 49.5357 54.3261 49.4476C54.4332 49.2602 54.4209 48.9882 54.5092 48.7895C54.5521 48.6928 54.5876 48.598 54.5876 48.4859C54.5876 48.397 54.6093 48.3127 54.6138 48.2244C54.6233 48.0341 54.6399 48.2415 54.6399 48.3173C54.6399 48.7011 54.5564 49.0541 54.4452 49.4185C54.4264 49.4802 54.2738 49.8715 54.2738 49.6481C54.2738 49.3771 54.2091 49.0907 54.1576 48.8258C54.0983 48.5207 54.0941 48.1939 54.0908 47.8844C54.089 47.7184 54.0665 47.5537 54.0646 47.3876C54.0633 47.2674 54.0646 47.646 54.0646 47.6752C54.0646 48.0229 54.0385 48.3692 54.0385 48.7154C54.0385 48.8215 54.0385 48.9275 54.0385 49.0336C54.0385 49.1899 54.0334 49.2027 53.9745 49.0263C53.8555 48.6691 53.7148 48.2882 53.6782 47.9106C53.6694 47.8202 53.6288 47.2134 53.6491 47.62C53.6675 47.9866 53.7187 48.3698 53.8031 48.7285C53.8509 48.9316 53.8031 48.311 53.8031 48.1023C53.8031 47.6605 53.8395 47.2142 53.9469 46.7847C54.0099 46.5329 54.1017 46.2827 54.1489 46.0278C54.2061 45.7187 54.3506 45.4274 54.377 45.1111C54.3907 44.9456 54.4135 44.8201 54.4714 44.6622C54.6009 44.309 54.6688 43.9345 54.7765 43.5755C54.7829 43.5541 54.806 43.3874 54.7649 43.4651C54.7065 43.5753 54.7081 43.7007 54.653 43.8152C54.5502 44.0287 54.3443 44.1905 54.2738 44.4195C54.2336 44.5503 54.1652 44.6818 54.1155 44.8103C54.0995 44.8515 54.0135 45.0567 54.0123 45.0283C54.0048 44.8483 54.0971 44.5164 54.2346 44.4065C54.2542 44.3907 54.2879 44.3184 54.2985 44.2917C54.3296 44.214 54.1777 44.4081 54.1111 44.4588C54.0037 44.5405 53.8703 44.5993 53.7508 44.6622C53.6454 44.7177 53.6939 44.666 53.7377 44.6026C53.8181 44.4865 53.8341 44.418 53.976 44.3513C54.0229 44.3292 54.1692 44.1759 54.1692 44.3019C54.1692 44.5206 54.0646 44.7286 54.0646 44.9556C54.0646 45.265 54.0166 45.5733 53.9992 45.8825C53.98 46.2251 53.9862 46.568 53.9862 46.9111C53.9862 46.998 53.9862 46.9847 53.9862 46.9052C53.9862 46.59 53.9862 46.2747 53.9862 45.9595C53.9862 45.7876 53.9862 45.2718 53.9862 45.4438C53.9862 45.7693 54.0314 46.0781 54.0791 46.3997C54.1603 46.9466 54.1795 47.4929 54.1954 48.0471C54.2005 48.2265 54.1425 47.9227 54.13 47.8713C54.0828 47.6775 53.9862 47.4821 53.9615 47.2844C53.9542 47.2261 53.96 47.2613 53.96 47.296C53.96 47.413 53.962 47.5282 53.9862 47.6433C54.0333 47.8678 54.0812 48.106 54.1416 48.3173C54.1526 48.3558 54.122 48.4324 54.1561 48.4597C54.2137 48.5058 54.2461 48.4156 54.268 48.3609C54.3058 48.2664 54.4091 48.2106 54.4322 48.1067C54.4502 48.0257 54.5024 47.8549 54.4046 47.806" stroke="black" stroke-width="0.4" stroke-linecap="round"/>
</svg>
