<svg width="109" height="106" viewBox="0 0 109 106" fill="none" xmlns="http://www.w3.org/2000/svg">
<path d="M52.7872 32.2714L51.0089 29.0254L54.4194 29.0091L52.7872 32.2714Z" fill="white"/>
<path d="M45.8149 65.3448C45.665 66.112 46.4139 66.7469 47.1463 66.4733L78.1631 54.8872C78.6398 54.7091 78.9067 54.2015 78.7833 53.7079L78.0335 50.7084C78.0113 50.6196 77.977 50.5343 77.9316 50.4548L76.0555 47.1717C76.0186 47.1072 75.9746 47.0469 75.9244 46.9921L70.5 41.0746L58.5965 30.6591C58.5324 30.603 58.4614 30.5553 58.3853 30.5172L55.6198 29.1345C55.5403 29.0947 55.4558 29.0658 55.3687 29.0483L53.9849 28.7716C53.4416 28.663 52.9136 29.0167 52.8074 29.5604L45.8149 65.3448Z" fill="white"/>
<path d="M51.5 28.8292H55.5727L60.1545 31.8858L65.2455 35.9613L68.8091 39.0179L72.8818 43.0934L75.4273 46.15L77.9727 50.2254L79.5 55.8292" stroke="black"/>
<path d="M43.5 51.8292L1 94.8292L3.5 98.8292L7 102.329L12 105.329L55.5 62.8292L78.5 55.8292L69 50.8292L62.5 44.8292L56 37.8292L51.5 29.3292L43.5 51.8292Z" fill="black" stroke="black"/>
<circle cx="35.5" cy="76.8293" r="2" fill="#D54A4A"/>
<path d="M78.8857 55.4836L75.0101 53.395L77.9998 52.3292L78.8857 55.4836Z" fill="white"/>
</svg>
