<svg width="110" height="107" viewBox="0 0 110 107" fill="none" xmlns="http://www.w3.org/2000/svg">
<path d="M53.7784 33.0009L52 29.7549L55.4105 29.7386L53.7784 33.0009Z" fill="#F5F18B"/>
<path d="M45.8986 65.6771C45.7178 66.4607 46.4888 67.1264 47.2376 66.8331L108.456 42.8595C109.157 42.585 109.315 41.6634 108.745 41.1714L62.3105 1.08357C61.7406 0.591556 60.852 0.882016 60.6827 1.61564L45.8986 65.6771Z" fill="#F5F18B"/>
<path d="M51.5 29.2549H55.5727L60.1545 32.3115L65.2455 36.387L68.8091 39.4436L72.8818 43.519L75.4273 46.5756L77.9727 50.6511L79.5 56.2549" stroke="black"/>
<path d="M43.5 52.2549L1 95.2549L3.5 99.2549L7 102.755L12 105.755L55.5 63.2549L78.5 56.2549L69 51.2549L62.5 45.2549L56 38.2549L51.5 29.7549L43.5 52.2549Z" fill="black" stroke="black"/>
<circle cx="35.5" cy="77.2549" r="2" fill="#D54A4A"/>
<path d="M78.8857 55.9093L75.0101 53.8206L77.9998 52.7549L78.8857 55.9093Z" fill="#F5F18B"/>
<rect x="81" y="56.2549" width="1" height="1" transform="rotate(180 81 56.2549)" fill="#D9D9D9"/>
</svg>
