<svg width="264" height="225" viewBox="0 0 264 225" fill="none" xmlns="http://www.w3.org/2000/svg">
<path d="M51.2035 173.073V196.073H220.203" stroke="black" stroke-width="2"/>
<path d="M53.7035 31.5732H121.703M173.203 31.5732H220.703M220.703 96.5732V109.323V134.573M220.703 165.573V197.073M53.7035 118.573V77.5732" stroke="black" stroke-width="2"/>
<path d="M119.62 72.1195C118.395 71.0303 117.262 69.9096 117.262 68.161C117.262 67.0749 117.653 65.5161 118.141 64.5394C119.667 61.4887 122.125 58.497 124.505 56.117C127.198 53.4234 129.708 51.4918 133.32 50.3899C136.459 49.4323 139.551 49.3792 142.875 49.3792C144.388 49.3792 145.901 49.3792 147.414 49.3792C148.046 49.3792 148.745 49.2924 149.369 49.3885C150.266 49.5265 151.159 50.053 152.055 50.053C153.992 50.053 156.073 52.21 157.352 53.4219C158.3 54.3199 159.591 55.5376 159.888 56.8751C160.043 57.572 160.563 58.2429 160.758 58.9806C161.077 60.1857 161.52 61.3374 161.769 62.5555C162.207 64.6993 162.574 66.6009 162.574 68.8348C162.574 70.5348 162.574 72.2349 162.574 73.935C162.574 74.9768 162.574 76.0187 162.574 77.0606C162.574 77.4604 162.547 79.1807 162.911 79.3627" stroke="black" stroke-width="3" stroke-linecap="round"/>
<path d="M162.911 79.0259C162.911 79.9125 162.573 81.5519 162.995 82.3106C163.418 83.073 163.664 83.9323 164.09 84.6782C165.091 86.431 166.64 88.0116 168.207 89.2824C170.568 91.1967 173.101 92.8496 175.451 94.7289C177.317 96.2222 178.693 98.3297 180.261 100.082C182.283 102.342 182.594 106.819 181.178 109.449C180.63 110.466 180.203 111.741 179.241 112.463C178.586 112.953 177.953 113.49 177.313 113.988C176.503 114.618 175.745 115.321 174.786 115.747C173.847 116.165 173.123 117.252 172.082 117.441C171.249 117.592 170.157 118.226 169.386 118.611C168.375 119.117 166.783 119.537 165.643 119.622C163.894 119.751 162.199 119.958 160.421 119.958C158.149 119.958 155.854 120.295 153.562 120.295C152.619 120.295 150.674 120.666 149.856 120.211C149.366 119.939 148.673 120.023 148.218 119.659C147.877 119.386 147.291 118.981 146.908 118.742C145.793 118.045 145.386 116.034 144.587 115.036C144.035 114.346 143.865 112.895 143.67 112.041C143.462 111.13 143.202 110.281 143.202 109.346C143.202 108.111 143.202 106.876 143.202 105.64" stroke="black" stroke-width="3" stroke-linecap="round"/>
<path d="M119.115 73.2988C119.115 74.5944 117.95 75.8791 117.262 76.9111C116.213 78.4841 114.878 79.8326 113.818 81.3749C113.237 82.2201 112.407 83.0897 111.703 83.8361C111.23 84.3379 110.787 84.8621 110.271 85.3334C109.21 86.3021 108.161 87.3848 107.061 88.2906C105.276 89.7604 102.979 90.7621 100.922 91.7905C99.939 92.2822 98.7321 92.7148 97.8902 93.5124C97.0696 94.2899 96.1606 95.1533 95.2325 95.7958C93.8117 96.7795 92.73 98.8591 91.9104 100.335C91.1982 101.616 90.3704 102.863 89.2152 103.788C88.1496 104.64 91.8473 102.882 92.9117 102.028C94.1511 101.034 94.7888 99.8144 95.8689 98.7343C96.8554 97.7477 97.9309 96.8088 98.826 95.7397C99.6424 94.7646 100.617 94.1764 101.802 93.8119C102.142 93.7072 103.938 93.546 103.786 93.8493" stroke="black" stroke-width="3" stroke-linecap="round"/>
<path d="M93.679 100.419C95.532 100.419 97.3849 100.419 99.2378 100.419C99.962 100.419 100.587 100.185 100.08 100.961C99.7 101.543 99.4252 102.139 98.9945 102.693C97.4545 104.673 97.2164 107.096 97.2164 109.515C97.2164 111.799 98.7722 113.718 100.988 114.4C102.187 114.769 103.483 115.201 104.628 115.71C105.52 116.106 106.538 116.191 107.407 116.674C108.289 117.163 109.615 117.749 110.599 117.928C111.583 118.107 112.542 118.779 113.556 118.779C114.554 118.779 115.614 119.116 116.625 119.116C118.036 119.116 119.43 119.159 120.724 118.789C122.414 118.306 124.783 118.118 126.227 116.964C126.93 116.401 128.036 116.381 128.548 115.485C128.803 115.038 129.052 114.603 129.306 114.147C129.574 113.664 129.501 113.166 129.727 112.715" stroke="black" stroke-width="3" stroke-linecap="round"/>
<path d="M120.967 72.2881C124.132 72.2881 127.234 72.1196 130.4 72.1196C131.834 72.1196 133.044 72.0844 134.359 71.7921C135.564 71.5242 136.167 70.5673 137.223 70.0983C137.758 69.8604 138.323 69.9298 138.907 69.9298C139.569 69.9298 139.328 70.7504 139.328 71.2774C139.328 73.0317 140.869 73.5766 142.36 72.8309C142.957 72.5325 143.523 72.127 144.045 71.8202C144.401 71.6107 144.956 71.0531 145.317 70.9499C146.368 70.6497 147.669 70.3515 148.845 70.613C149.455 70.7484 149.603 73.2937 149.603 73.8041C149.603 74.844 149.948 76.3202 150.708 77.0795C152.337 78.7089 154.668 79.4059 156.678 80.411C157.323 80.7336 157.883 81.227 158.531 81.5152C158.926 81.6907 159.47 81.8993 159.71 82.32C160.179 83.1413 159.947 84.976 159.701 85.8387C159.376 86.9751 158.39 88.4314 157.52 89.3012C157.108 89.7133 156.456 90.0023 155.929 90.1528C155.282 90.3376 154.994 90.4716 154.994 89.6381" stroke="black" stroke-linecap="round"/>
<path d="M120.967 72.7935C120.967 75.9067 121.136 79.1208 121.136 82.1422C121.136 85.3048 120.541 89.3942 121.81 92.249C122.795 94.4671 124.518 96.352 125.721 98.3973C127.111 100.76 129.427 102.016 131.748 103.245C133.035 103.926 134.005 104.293 135.538 104.293C136.886 104.293 138.233 104.293 139.581 104.293C140.735 104.293 142.554 104.555 143.371 103.535C143.657 103.178 144.403 102.844 144.803 102.534C145.166 102.251 145.72 101.709 146.141 101.588C146.625 101.45 147.084 100.786 147.451 100.456C147.915 100.039 148.443 99.7745 148.892 99.3706C149.753 98.5958 150.894 97.5633 151.494 96.5444C152.128 95.4658 153.275 94.6025 153.852 93.5124C154.235 92.7893 154.441 92.4719 154.488 91.6595C154.518 91.157 154.994 90.6738 154.994 90.1435" stroke="black" stroke-linecap="round"/>
<path d="M155.162 83.4055C156.707 83.4055 155.162 85.0045 155.162 85.7638" stroke="black" stroke-linecap="round"/>
<path d="M126.189 79.026C126.189 80.0086 126.189 80.9912 126.189 81.9738C126.189 82.845 127.303 83.5786 127.368 82.3949C127.397 81.8752 127.601 80.1509 127.106 79.8682C126.729 79.6524 126.526 79.5691 126.526 79.1102C126.526 78.3699 126.54 79.2785 126.526 79.5313C126.498 80.0331 126.526 80.5257 126.526 81.0474C126.526 81.3004 126.695 82.3832 126.695 81.6463C126.695 81.1347 126.695 80.6231 126.695 80.1115C126.695 79.4947 126.215 79.6324 126.189 79.1944C126.119 77.9951 127.031 78.2472 127.031 79.2787C127.031 80.0928 127.031 80.907 127.031 81.7211" stroke="black" stroke-linecap="round"/>
<path d="M142.697 80.542C142.697 79.8121 142.697 79.0822 142.697 78.3522C142.697 78.0545 142.553 77.7457 142.285 77.6691C141.891 77.5565 142.023 77.8201 142.023 78.268C142.023 78.8118 142.013 79.8169 142.276 80.2894C142.412 80.5341 143.371 81.8032 143.371 80.8789C143.371 80.1703 143.442 79.4816 143.165 78.8576C143.018 78.5267 142.282 77.1731 142.613 77.1731C143.626 77.1731 143.371 77.7203 143.371 78.6049C143.371 79.4752 143.371 80.3455 143.371 81.2158" stroke="black" stroke-linecap="round"/>
<path d="M132.59 77.3416C132.59 78.4365 132.59 79.5314 132.59 80.6263C132.59 81.3904 132.766 82.3438 132.291 82.9377C131.862 83.474 132.522 84.8159 133.002 85.0901C133.478 85.3618 133.828 85.9711 134.35 86.2692C135.03 86.6582 134.416 86.7603 133.854 86.5874C133.295 86.4154 132.014 85.3271 131.711 84.7532C131.49 84.3361 130.767 83.011 131.327 82.5634C132.421 81.688 131.916 78.6081 131.916 77.3416" stroke="black" stroke-linecap="round"/>
<path d="M160.384 55.6119C160.384 54.8722 160.88 54.4588 161.226 53.8526C161.328 53.674 162.171 52.8356 162.059 53.3379C161.959 53.7883 161.406 54.3352 161.189 54.7697C160.923 55.3017 160.552 56.0246 160.552 56.6226C160.552 57.232 160.296 57.3929 160.974 56.8659C161.534 56.4301 162.127 56.2857 162.826 56.2857C165.279 56.2857 161.738 57.8154 161.563 57.4648" stroke="black" stroke-linecap="round"/>
<path d="M134.612 93.1753C136.159 93.1753 137.35 91.6442 138.28 90.6112C138.665 90.1832 138.892 89.5922 139.253 89.1326C139.537 88.772 139.974 88.4957 140.208 88.1219C140.839 87.1121 144.04 86.3058 144.887 87.3639C145.414 88.0232 146.066 88.7766 146.066 89.7222C146.066 90.684 145.919 91.3503 145.72 92.2489C145.536 93.0756 143.453 95.2814 142.697 95.5336" stroke="black" stroke-width="2" stroke-linecap="round"/>
<path d="M130.232 112.715C131.886 112.715 133.002 112.749 134.518 112.032C135.908 111.375 137.57 110.206 138.392 108.86C139.15 107.62 140.395 106.314 140.844 104.967" stroke="black" stroke-width="2" stroke-linecap="round"/>
<path d="M128.211 117.095C128.211 118.411 128.211 119.727 128.211 121.044C128.211 122.099 128.548 123.155 128.548 124.169C128.548 125.711 131.65 126.528 132.843 126.528C134.832 126.528 136.501 126.227 138.233 125.264C139.563 124.526 142.134 123.837 142.697 122.148" stroke="black" stroke-width="2" stroke-linecap="round"/>
<path d="M128.042 131.244C128.869 132.072 130.162 132.592 131.327 132.592C132.768 132.592 134.464 132.851 135.791 132.293C136.649 131.931 137.999 131.758 138.664 130.982C139.019 130.568 139.652 130.31 140.086 129.972C140.442 129.695 140.698 129.317 141.078 129.064C141.33 128.896 142.072 128.282 142.192 128.044" stroke="black" stroke-width="2" stroke-linecap="round"/>
<path d="M107.938 125.732C102.929 130.741 98.4814 136.165 93.1343 140.8C92.0562 141.734 90.8535 142.738 89.6136 143.447C88.9077 143.85 88.0353 144.399 87.4235 144.889C87.0267 145.206 86.2259 144.955 85.9819 145.443" stroke="black" stroke-width="2" stroke-linecap="round"/>
<path d="M167.07 121.241C167.295 123.264 169.8 125.009 170.757 126.73C171.608 128.263 173.331 129.621 173.82 131.332C173.999 131.957 174.701 132.973 175.054 133.522C175.699 134.525 175.843 135.66 176.426 136.697C177.706 138.972 178.234 141.598 179.24 143.946C179.585 144.75 180.044 146.181 180.044 147.065C180.044 147.923 180.512 148.65 180.543 149.491C180.594 150.874 180.792 152.141 180.792 153.552C180.792 154.176 180.792 154.799 180.792 155.423C180.792 156.149 180.208 156.618 180.058 157.294C179.945 157.8 179.099 160.012 178.796 160.164" stroke="black" stroke-width="2" stroke-linecap="round"/>
<path d="M148.108 171.391C149.057 171.497 149.919 172.25 150.797 172.583C151.774 172.954 152.766 173.461 153.722 173.886C155.3 174.588 157.076 175.383 158.836 175.383C160.209 175.383 161.581 175.383 162.953 175.383C164.149 175.383 167.464 173.835 168.068 172.777C168.484 172.05 169.597 171.738 170.078 171.017C170.537 170.327 171.33 169.908 171.81 169.201C172.647 167.971 173.739 166.969 174.666 165.777C175.505 164.698 176.698 163.907 177.355 162.659C177.943 161.542 178.494 160.519 179.046 159.415" stroke="black" stroke-width="2" stroke-linecap="round"/>
<path d="M141.87 156.92C141.87 155.335 140.298 153.568 139.07 152.678C137.672 151.666 136.43 150.304 134.884 149.49C133.325 148.67 131.915 148.006 130.393 147.245C128.932 146.514 126.954 144.858 126.207 143.447C125.307 141.747 123.018 140.952 121.286 140.952C120.062 140.952 119.19 140.959 118.071 141.562C116.485 142.415 114.48 142.914 113.067 144.071C110.804 145.922 108.485 148.001 107.065 150.558C105.343 153.657 109.303 152.504 110.683 151.431C111.755 150.597 112.832 150.03 113.801 149.061C114.402 148.46 115.185 147.808 115.922 147.439" stroke="black" stroke-width="2" stroke-linecap="round"/>
<path d="M124.405 147.439C119.492 147.439 116.456 152.046 111.93 153.177" stroke="black" stroke-width="2" stroke-linecap="round"/>
<path d="M122.659 151.681C120.594 151.681 119.004 153.323 117.045 153.926C115.791 154.312 114.615 155.035 113.372 155.479C112.802 155.682 110.938 156.409 110.683 156.92" stroke="black" stroke-width="2" stroke-linecap="round"/>
<path d="M111.431 160.663C112.295 160.663 113.446 159.73 114.3 159.429C115.628 158.96 117.003 158.623 118.279 158.043C120.214 157.163 121.476 157.345 123.033 158.556C125.095 160.16 128.432 162.017 131.142 160.663" stroke="black" stroke-width="2" stroke-linecap="round"/>
<path d="M60.7035 146.573L51.2035 122.073L96.7035 154.573L100.402 164.573M133.703 176.073L110.203 191.073L100.957 166.073L100.402 164.573M122.703 164.573L133.703 172.073M100.402 164.573L123.203 175.573M102.991 171.573L119.703 179.573" stroke="black" stroke-width="2"/>
<path d="M105.703 179.073L113.703 183.073" stroke="black" stroke-width="2"/>
<path d="M133.703 172.073C134.519 172.073 135.703 173.101 135.703 174.025C135.703 174.945 134.199 175.241 133.943 176.073" stroke="black" stroke-width="2" stroke-linecap="round"/>
<path d="M57.0415 139.991C57.0415 140.415 57.0214 140.787 56.8346 141.176C56.3396 142.207 56.0881 143.181 55.772 144.269C55.3182 145.833 55.002 147.522 54.7094 149.131C54.1361 152.284 54.3333 155.587 54.3333 158.788C54.3333 159.716 54.4401 160.643 54.8411 161.468C55.265 162.341 55.2869 163.475 55.9601 164.223C56.8137 165.172 57.2937 166.349 58.1887 167.279C58.8011 167.916 59.3376 168.752 60.0505 169.273C61.8311 170.574 63.0575 172.32 65.4198 172.32C66.3821 172.32 67.4338 172.23 68.3066 172.479C68.8819 172.644 71.2488 172.69 71.4285 172.15" stroke="black" stroke-width="2" stroke-linecap="round"/>
<path d="M59.4111 152.516C60.9172 152.516 63.1445 154.388 64.1504 155.394C65.7702 157.013 66.844 159.409 68.6828 160.772C71.3551 162.753 74.9588 163.179 78.199 163.179" stroke="black" stroke-width="2" stroke-linecap="round"/>
<path d="M67.5356 163.518C68.2001 163.518 68.6685 163.747 69.2846 163.96C70.7776 164.477 72.3422 164.73 73.8358 165.173C74.8154 165.463 75.9814 165.38 77.0141 165.38" stroke="black" stroke-width="2" stroke-linecap="round"/>
<path d="M67.8741 169.104C70.2086 169.104 72.3817 169.95 74.7291 169.95C75.6175 169.95 78.0771 169.855 78.5374 168.934" stroke="black" stroke-width="2" stroke-linecap="round"/>
<path d="M38.9687 148.622C38.9098 149.094 37.68 149.605 37.3423 149.923C36.7797 150.455 35.9712 150.521 35.3184 150.818C33.57 151.613 31.6528 150.303 30.8367 148.875C29.8387 147.129 28.9785 145.534 27.096 144.592C25.7443 143.917 24.2815 143.7 22.9939 142.858C20.5698 141.273 17.9776 139.257 16.4341 136.731C15.9853 135.997 15.1105 134.881 15.0606 133.985C14.9619 132.207 14.9627 130.295 15.2233 128.536C15.377 127.498 16.0522 126.366 16.3979 125.329C16.6939 124.441 16.9406 122.867 17.9068 122.437C19.2862 121.824 20.7747 121.624 22.2891 121.624C23.0541 121.624 23.8191 121.624 24.5841 121.624C26.0336 121.624 27.3447 122.122 28.7224 122.275C29.7357 122.387 30.9802 122.954 31.8397 123.512C32.917 124.213 33.5458 125.095 34.4148 126.015C35.3599 127.016 35.8879 128.452 36.4478 129.684C37.1377 131.202 37.1797 132.594 37.1797 134.229C37.1797 137.02 36.5575 139.863 37.7038 142.442C38.1811 143.516 39.0087 144.81 39.7458 145.731C40.8849 147.155 39.1318 148.329 38.1555 149.11" stroke="#F1A33B" stroke-width="2" stroke-linecap="round"/>
<path d="M36.6918 149.273C34.7042 147.285 32.8353 145.023 31.3608 142.641C30.5568 141.342 29.5491 139.616 29.2194 138.132C28.9634 136.98 28.5947 135.784 28.5598 134.563C28.5313 133.568 28.2911 131.957 28.5688 130.985C28.8229 130.095 30.2952 132.088 30.4301 132.196C30.684 132.399 30.7621 132.951 30.8458 133.244C31.0324 133.897 30.8606 133.803 30.385 134.183C29.529 134.868 27.9626 134.56 26.9424 134.879C25.8244 135.228 24.5546 134.818 23.5179 134.473" stroke="#F1A33B" stroke-width="2" stroke-linecap="round"/>
<path d="M34.3907 154.803C35.2659 154.803 36.1264 153.9 36.9206 153.673C37.5809 153.484 38.0237 153.031 38.4928 152.562C39.3608 151.694 40.0151 150.805 40.8963 149.923" stroke="#F1A33B" stroke-width="2" stroke-linecap="round"/>
<path d="M36.3423 157.242C37.1319 157.242 37.9601 157.079 38.7006 157.079C39.1927 157.079 40.5894 156.731 40.8963 156.348C41.2939 155.851 42.0256 155.604 42.4865 155.092C43.0285 154.489 43.1708 153.669 43.4985 153.013" stroke="#F1A33B" stroke-width="2" stroke-linecap="round"/>
<path d="M136.057 17.8064C136.057 18.4636 135.7 19.053 135.389 19.6105C134.791 20.6805 134.148 21.724 133.54 22.788C132.953 23.8158 132.226 24.7747 131.676 25.8245C130.876 27.3535 129.315 28.8068 128.848 30.4423C128.548 31.4918 133.031 32.4398 133.815 32.6101C135.509 32.9785 136.941 34.0787 138.514 34.778C140.525 35.6717 142.412 36.8265 144.401 37.8516C145.019 38.1697 146.136 38.9206 146.814 38.9206C147.331 38.9206 148.799 39.542 149.153 39.1879" stroke="#F1A33B" stroke-width="2" stroke-linecap="round"/>
<path d="M135.923 18.6082C135.923 17.7353 135.851 17.1382 136.859 17.1382C137.586 17.1382 138.314 17.1382 139.041 17.1382C141.159 17.1382 142.673 18.3117 144.543 19.1427C145.33 19.4928 146.034 19.9988 146.814 20.3454C147.449 20.6274 148.35 21.3401 149.019 21.4145C149.676 21.4874 150.37 22.1743 150.95 22.4836C151.234 22.6351 151.73 22.8144 151.959 23.0181C152.562 23.5539 153.506 23.8304 154.023 24.4881C154.253 24.7807 154.649 25.0081 154.929 25.2602C155.126 25.4375 155.393 25.6961 155.634 25.8838C156.077 26.2282 156.482 26.8543 156.629 27.3686C157.023 28.7486 155.624 30.2976 154.869 31.3034C153.958 32.5187 152.939 33.6613 152.019 34.8447C151.564 35.4288 151.209 36.1966 150.69 36.7156C150.292 37.1137 150.019 38.02 149.554 38.2524" stroke="#F1A33B" stroke-width="2" stroke-linecap="round"/>
<path d="M136.859 15.8018C138.12 15.8018 139.364 15.2023 140.6 15.1336C141.522 15.0824 142.397 15 143.318 15C144.032 15 143.925 15.1541 144.483 15.4677C145.122 15.8273 145.829 16.0789 146.451 16.47C147.408 17.0727 148.452 17.5429 149.353 18.2072C150.305 18.9082 151.602 19.5838 152.694 20.0113C153.634 20.3792 154.437 21.0014 155.367 21.4145C156.253 21.8085 157.184 22.342 158.04 22.8176C158.508 23.0776 159.324 23.4948 159.844 23.5526C161.07 23.6889 162.249 25.1895 162.249 26.3589C162.249 28.4578 160.932 29.9442 159.717 31.5632C158.936 32.6058 157.795 33.6975 157.431 34.9709C157.263 35.5596 156.772 36.07 156.629 36.7156C156.562 37.0169 156.112 38.2575 155.835 38.1187" stroke="#F1A33B" stroke-width="2" stroke-linecap="round"/>
<path d="M132.716 24.0871C134.101 24.0871 135.348 24.7077 136.591 25.2601C137.28 25.5663 137.99 25.6765 138.648 26.0768C139.232 26.4326 140.457 26.6848 140.838 27.2943C141.382 28.1646 141.507 26.8052 141.922 26.3218C142.548 25.591 143.239 24.7979 143.704 23.9535C144.095 23.242 144.504 22.5885 145.077 22.0158C145.469 21.6235 145.658 21.065 146.213 20.8799" stroke="#F1A33B" stroke-width="2" stroke-linecap="round"/>
<path d="M141.536 22.7508C140.792 22.7508 140.165 23.4502 139.405 23.5452C138.892 23.6093 138.043 23.886 137.527 23.6565C136.095 23.0204 136.206 21.3707 137.23 20.4493C138.229 19.5497 140.05 19.5959 140.764 20.8799C140.959 21.2314 141.52 21.864 141.194 22.2831C140.843 22.7348 140.522 22.9849 140.333 23.5526" stroke="#F1A33B" stroke-width="2" stroke-linecap="round"/>
<path d="M148.485 27.8289C147.847 27.8289 149.937 28.0602 150.222 28.6307" stroke="#F1A33B" stroke-width="2" stroke-linecap="round"/>
<path d="M145.01 29.6997C145.063 29.9095 145.44 29.8333 145.612 29.8333C145.916 29.8333 146.187 30.1115 146.436 30.2639C147.663 31.0171 148.937 31.8888 149.955 32.9069" stroke="#F1A33B" stroke-width="2" stroke-linecap="round"/>
<path d="M214.079 61.9424C213.457 61.7869 214.112 59.6544 214.359 59.3373C214.553 59.0869 214.607 58.919 214.718 58.6187C214.895 58.1387 215.368 57.9488 215.666 57.5607C216.104 56.9913 217.33 56.6194 218.032 56.5526C219.929 56.3719 222.333 55.6414 224.14 56.5925C225.57 57.3453 227.012 59.2264 227.194 60.8644C227.318 61.974 227.684 63.1989 226.915 64.1881C226.388 64.865 225.817 65.4597 225.178 66.0346C224.124 66.9831 222.59 67.2968 221.375 67.9509C220.871 68.2224 220.291 68.4446 219.748 68.5997C219.472 68.6785 219.224 69.0919 218.93 69.1287C217.581 69.2973 217.255 71.3328 217.133 72.3625C217.07 72.8985 216.306 74.1578 215.956 74.6082C215.352 75.3847 214.954 76.4415 214.518 77.3131C213.838 78.6729 213.181 80.3572 213.181 81.8844" stroke="#F1A33B" stroke-width="3" stroke-linecap="round"/>
<path d="M208.51 89.4299C209.223 89.4299 209.654 89.7513 210.306 89.9689" stroke="#35C75C" stroke-width="3" stroke-linecap="round"/>
<path d="M214.443 62.3777C214.443 61.4856 214.443 60.5936 214.443 59.7015C214.443 58.6048 215.075 58.1829 215.897 57.5374C216.841 56.7953 218.031 57 219.052 56.5463C219.938 56.1526 220.785 56.1333 221.802 56.1333C222.87 56.1333 223.602 56.0737 224.487 56.5793C225.271 57.0271 225.827 57.344 226.263 58.2147C227.157 60.0024 228.48 63.1906 227.493 65.0538C227.101 65.7952 225.771 66.3129 224.999 66.6562C224.013 67.0944 222.998 67.4824 222.025 67.9943C220.012 69.0543 218.713 71.1817 217.64 73.0906C217.101 74.0474 216.534 75.1202 215.864 75.9815C215.44 76.5269 214.733 77.5366 214.583 78.2117C214.405 79.0162 213.587 79.6463 213.411 80.4418C213.273 81.0619 212.935 81.7479 212.659 82.3003" stroke="#F1A33B" stroke-width="3" stroke-linecap="round"/>
<path d="M210.131 91.3693C208.933 91.3693 208.199 91.1254 208.199 89.7338C208.199 88.9376 209.314 88.4973 209.917 88.8418C210.498 89.1739 211.321 89.5885 211.321 90.3368C211.321 90.8947 211.536 91.8481 210.875 92.1127C210.426 92.2921 210.167 92.5824 209.685 92.2613" stroke="#F1A33B" stroke-width="3" stroke-linecap="round"/>
<path d="M51.9156 61.7498C50.009 61.7498 48.5367 61.3365 46.7906 60.7015C45.9681 60.4024 44.9335 59.9904 44.2572 59.4494C44.0157 59.2562 43.7461 59.4228 44.3154 59.3911C44.7137 59.369 45.2565 59.1087 45.6549 58.998C52.6747 57.0481 59.334 54.5243 66.0095 51.5871C69.057 50.2462 72.0209 48.6975 75.0657 47.3356C76.0265 46.9059 77.2 46.1774 78.2834 46.0107C79.2112 45.8679 80.0824 45.239 81.0061 45.239" stroke="#F1A33B" stroke-width="2" stroke-linecap="round"/>
<path d="M80.458 46.0532C80.3817 46.7399 79.2463 47.5432 78.8095 47.9801C77.7041 49.0854 76.6431 50.2535 75.5338 51.3627C73.9187 52.9778 72.3182 54.7912 70.5669 56.244C69.0912 57.4682 67.2715 58.828 66.0495 60.3118C65.3116 61.2079 63.939 62.322 62.9238 62.8595C62.4937 63.0872 62.4203 63.3146 61.9604 63.5446C61.5613 63.7441 61.1595 63.9286 60.8043 64.1655" stroke="#F1A33B" stroke-width="2" stroke-linecap="round"/>
<path d="M58.6904 65.8818C62.2625 65.8818 64.9478 68.4119 68.401 68.6881C69.5283 68.7783 71.5446 69.5487 72.5213 70.0913C73.178 70.4561 73.8565 70.1013 74.4145 70.6035C75.0321 71.1594 76.0365 71.4325 76.7307 71.8953" stroke="#F1A33B" stroke-width="2" stroke-linecap="round"/>
<path d="M80.7035 45.0732C80.7035 52.4728 79.5419 59.8786 78.5662 67.2392C78.4123 68.4009 77.88 69.5016 77.88 70.6642C77.88 70.8168 77.907 72.2 77.6055 72.0638C76.9981 71.7897 74.9823 70.5896 74.7035 70.266" stroke="#F1A33B" stroke-width="2" stroke-linecap="round"/>
<path d="M61.5577 63.6848C61.141 63.6848 58.771 65.1388 58.6777 64.952" stroke="#F1A33B" stroke-width="2" stroke-linecap="round"/>
<path d="M58.5582 66.4463C58.5582 68.7609 59.0978 70.9576 59.0978 73.2816" stroke="#F1A33B" stroke-width="2" stroke-linecap="round"/>
<path d="M67.1922 68.6047C66.593 68.6713 66.0236 69.2611 65.6133 69.644C64.8033 70.4 63.8056 70.9266 62.9951 71.7226C61.8399 72.8571 60.5507 73.9072 59.4176 75.0403C59.1918 75.2661 59.0978 75.4983 59.0978 75.0803" stroke="#F1A33B" stroke-width="2" stroke-linecap="round"/>
<path d="M58.9135 72.7881C58.9135 73.1013 58.8319 73.5429 58.9176 73.8429C59.0065 74.1539 59.0596 74.4013 59.0596 74.7598" stroke="#F1A33B" stroke-width="2" stroke-linecap="round"/>
<path d="M53.4761 68.2932C53.3872 68.3043 53.3031 68.3797 53.2252 68.4187" stroke="#F1A33B" stroke-width="2" stroke-linecap="round"/>
<path d="M51.218 70.6768C51.0718 70.695 50.6414 70.9516 50.5907 71.0531" stroke="#F1A33B" stroke-width="2" stroke-linecap="round"/>
<path d="M48.3325 73.0605C48.0876 73.0878 47.4339 73.6032 47.3289 73.8133" stroke="#F1A33B" stroke-width="2" stroke-linecap="round"/>
<path d="M44.1926 76.5732C44.0044 76.5941 42.6871 77.7691 42.6871 77.7023" stroke="#F1A33B" stroke-width="2" stroke-linecap="round"/>
<path d="M39.6763 80.9641C39.6483 81.1877 39.2752 81.3899 39.1744 81.5914" stroke="#F1A33B" stroke-width="2" stroke-linecap="round"/>
<path d="M216.493 141.965C216.4 141.13 214.4 139.643 213.617 139.568C211.333 139.351 210.7 138.568 209.063 140.287C206.688 142.781 204.988 146.197 204.988 149.635C204.988 151.857 206.303 154.429 208.823 154.429C210.279 154.429 211.709 155.01 213.137 154.375C213.8 154.081 215.055 153.363 215.055 152.511" stroke="#F1A33B" stroke-width="2" stroke-linecap="round"/>
<path d="M225.601 144.122C224.669 144.226 222.974 144.938 222.299 145.614C221.164 146.748 221.07 148.703 220.794 150.221C220.515 151.753 219.289 156.374 221.659 157.052C224.962 157.996 227.518 153.891 227.518 151.073C227.518 150.474 227.518 149.875 227.518 149.275C227.518 148.48 227.214 148.085 227.052 147.358C226.834 146.374 226.151 145.426 225.601 144.602" stroke="#F1A33B" stroke-width="2" stroke-linecap="round"/>
<path d="M232.552 145.8C232.552 148.661 230.759 151.532 230.141 154.309C229.683 156.372 227.518 158.601 227.518 160.66" stroke="#F1A33B" stroke-width="2" stroke-linecap="round"/>
<path d="M232.791 147.238C233.748 147.238 234.267 147.142 234.948 147.824C235.681 148.556 236.116 149.439 236.573 150.354C237.458 152.124 238.83 155.236 236.626 156.532C235.94 156.936 235.429 157.826 234.602 158.077C233.445 158.428 232.218 159.202 231.114 159.755C230.423 160.1 229.635 159.933 228.956 160.234C228.405 160.479 226.799 160.868 226.799 160.181" stroke="#F1A33B" stroke-width="2" stroke-linecap="round"/>
<path d="M242.858 150.114C244.851 150.114 246.569 150.584 248.264 151.552C248.833 151.878 250.172 152.751 250.767 152.751" stroke="#F1A33B" stroke-width="2" stroke-linecap="round"/>
<path d="M242.379 149.635C242.379 150.808 241.899 151.968 241.899 153.11C241.899 153.758 242.075 155.438 241.54 155.867C240.875 156.398 240.596 158.606 240.168 159.462C239.832 160.135 238.876 161.114 238.783 161.859C238.7 162.529 237.347 163.002 237.598 163.883C237.66 164.097 240.464 164.708 240.927 165.095C242.266 166.21 244.032 166.64 245.494 167.371" stroke="#F1A33B" stroke-width="2" stroke-linecap="round"/>
<path d="M241.18 158.263C242.675 158.263 244.15 158.678 245.494 159.275C246.339 159.651 246.973 160.421 247.891 160.421" stroke="#F1A33B" stroke-width="2" stroke-linecap="round"/>
<path d="M53.7035 30.5732V48.0732" stroke="black" stroke-width="2"/>
<path d="M220.203 30.5732V47.5732" stroke="black" stroke-width="2"/>
<path d="M122.703 176.073C123.008 176.073 123.388 176.092 123.536 175.795C123.66 175.548 123.86 175.236 123.495 175.073" stroke="black" stroke-linecap="round"/>
<path d="M118.703 180.063C118.861 180.063 119.019 180.063 119.177 180.063C119.373 180.063 119.437 180.015 119.521 179.826C119.601 179.647 119.65 179.509 119.65 179.31C119.65 179.186 119.481 179.166 119.435 179.073" stroke="black" stroke-linecap="round"/>
<path d="M112.738 183.355C113.08 183.355 113.393 183.535 113.708 183.355C113.807 183.299 113.856 183.054 113.856 182.946C113.856 182.729 113.753 182.761 113.684 182.624" stroke="black" stroke-linecap="round"/>
<path d="M118.418 106.212C117.633 104.469 116.417 102.539 116.274 100.575C116.234 100.024 116.246 99.4718 116.246 98.9205C116.246 97.693 115.951 96.4539 115.87 95.2288C115.783 93.927 115.888 92.3588 115.479 91.1323" stroke="black" stroke-linecap="round"/>
<path d="M104.745 99.95C107.048 99.95 109.292 100.461 111.575 100.461C112.934 100.461 114.248 100.972 115.607 100.972" stroke="black" stroke-width="5" stroke-linecap="round"/>
<path d="M115.735 100.717C115.651 95.7276 115.607 90.7464 115.607 85.758C115.607 85.6452 115.615 84.5964 115.351 85.1901C114.962 86.0673 114.304 86.83 113.818 87.6536C113.02 89.0057 111.981 90.2718 110.872 91.3809C110.385 91.8679 108.828 92.6563 108.138 92.531C107.431 92.4023 106.715 92.5334 106.009 92.7298C105.755 92.8002 105.092 93.0689 105.228 92.8434C105.324 92.6822 105.887 92.4531 106.037 92.3535C108.042 91.0168 109.892 89.3847 111.454 87.5471C112.002 86.9022 113.395 84.8 113.051 85.5734C112.611 86.5643 111.848 87.5211 111.234 88.4061C109.568 90.8045 107.912 93.6045 105.611 95.4773C104.674 96.2399 103.836 97.1799 102.757 97.7491C102.323 97.9782 101.784 98.2887 101.294 98.2887C100.588 98.2887 99.9344 98.4733 99.2782 98.7005C99.1276 98.7526 98.5494 99.063 99.0226 98.8992C100.294 98.4591 101.544 97.8572 102.821 97.4012C104.274 96.8822 105.763 96.4468 107.237 95.9884C108.167 95.6989 109.143 95.5919 110.062 95.2856C111.076 94.9476 112.346 94.4617 113.435 94.5827C113.909 94.6355 114.338 96.4996 113.463 96.4996C108.976 96.4996 104.535 96.2906 100.144 97.2664" stroke="black" stroke-width="5" stroke-linecap="round"/>
<path d="M102.445 101.611C102.445 102.058 102.282 102.464 102.161 102.889C102.029 103.351 101.938 103.934 101.742 104.366C101.397 105.123 101.294 106.089 101.294 106.915C101.294 107.892 100.912 109.824 102.033 110.273C103.228 110.751 104.53 110.853 105.689 111.316C106.008 111.444 104.986 111.368 104.66 111.26C103.569 110.896 101.881 111.496 101.01 110.713C100.473 110.229 98.7146 109.303 99.5053 108.512" stroke="black" stroke-width="5" stroke-linecap="round"/>
<path d="M102.572 112.601C103.04 112.975 104.173 112.729 104.752 112.729C105.812 112.729 106.848 112.788 107.904 112.85C109.095 112.92 110.258 113.024 111.447 113.12C113.079 113.25 114.756 113.51 116.374 113.78C116.676 113.83 117.39 113.802 117.623 114.035C117.752 114.164 117.208 114.052 117.141 114.007" stroke="black" stroke-width="5" stroke-linecap="round"/>
<path d="M103.467 106.851C108.699 106.851 113.93 106.979 119.157 106.979C120.061 106.979 120.965 106.979 121.869 106.979C123.405 106.979 124.861 107.445 126.37 107.646C128.008 107.864 129.562 108.381 131.212 108.541C132.139 108.63 133.039 108.512 133.881 108.512C134.19 108.512 135.033 108.382 135.159 108.129" stroke="black" stroke-width="5" stroke-linecap="round"/>
<path d="M105.512 103.4C105.49 103.4 106.241 103.749 106.427 103.862C107.632 104.591 108.968 105.352 110.297 105.828C110.97 106.07 111.593 106.394 112.284 106.567C113.163 106.786 114.092 107.072 114.996 107.106C115.158 107.113 115.489 107.302 115.131 107.028C114.594 106.618 114.064 106.313 113.435 106.084" stroke="black" stroke-width="5" stroke-linecap="round"/>
<path d="M103.85 103.017C108.683 103.017 113.566 102.814 118.397 103.024C120.086 103.098 121.881 103.273 123.53 103.273" stroke="black" stroke-width="5" stroke-linecap="round"/>
<path d="M106.789 109.79C108.999 109.79 111.165 110.173 113.378 110.173C115.159 110.173 116.902 110.323 118.674 110.422C120.697 110.534 122.734 110.94 124.751 110.94C126.346 110.94 127.941 110.94 129.536 110.94C130.463 110.94 131.372 110.456 132.22 110.173" stroke="black" stroke-width="5" stroke-linecap="round"/>
<path d="M107.173 115.029C109.861 115.029 112.529 115.285 115.224 115.285C116.65 115.285 117.884 115.144 119.256 114.895C120.344 114.697 121.324 114.432 122.366 114.078C123.127 113.82 123.91 113.628 124.659 113.333C124.819 113.27 125.223 113.296 125.319 113.177C125.421 113.05 126.043 112.867 126.214 112.857C126.755 112.827 126.418 112.881 126.342 112.729" stroke="black" stroke-width="5" stroke-linecap="round"/>
<path d="M119.696 117.458C119.759 117.958 122.995 117.019 123.402 116.847C124.45 116.406 124.959 115.518 125.703 114.774" stroke="black" stroke-width="5" stroke-linecap="round"/>
<path d="M118.721 92.5474C118.721 93.8182 118.695 95.0347 119.101 96.252C119.318 96.9029 119.664 97.524 119.97 98.145C120.546 99.3161 121.402 100.267 122.338 101.152C122.531 101.334 122.743 101.469 122.941 101.646C123.645 102.276 124.319 103.12 125.174 103.547C125.61 103.765 126.081 104.001 126.564 104.085C126.825 104.13 127.063 104.329 127.325 104.329" stroke="black" stroke-width="5" stroke-linecap="round"/>
<path d="M118.183 100.271L118.134 100.32" stroke="black" stroke-width="5" stroke-linecap="round"/>
<path d="M119.894 74.801C119.894 75.1432 119.894 75.4855 119.894 75.8277C119.894 76.0139 119.931 76.2443 119.856 76.4143C119.777 76.5915 119.769 76.8452 119.709 77.039C119.606 77.3747 119.488 77.7094 119.329 78.0276C118.981 78.7226 118.548 79.3614 118.05 79.9641C117.61 80.4964 117.194 81.0367 116.789 81.5964C116.553 81.9245 116.287 82.2403 116.059 82.5714C115.992 82.6688 115.94 82.8157 115.836 82.8675" stroke="black" stroke-width="3" stroke-linecap="round"/>
<path d="M119.209 78.9565C119.209 79.6699 119.209 80.3833 119.209 81.0967C119.209 81.3176 119.239 81.5634 119.199 81.7812C119.176 81.9018 119.112 82.0384 119.112 82.1587C119.112 82.8446 118.962 83.508 118.865 84.1875C118.551 86.3794 118.183 88.6076 118.183 90.8362" stroke="black" stroke-width="3" stroke-linecap="round"/>
<path d="M117.303 82.9653V85.1653" stroke="black" stroke-width="3" stroke-linecap="round"/>
<path d="M120.089 83.7964C120.089 84.1736 120.057 84.3576 119.848 84.6546C119.6 85.0058 119.465 85.4307 119.353 85.8225C119.248 86.1928 119.258 86.5788 119.258 86.9741C119.258 87.5437 119.205 88.1354 119.123 88.696C119.023 89.3688 119.063 89.9822 119.063 90.6434C119.063 90.9079 119.161 91.166 119.161 91.4229C119.161 91.5128 119.211 91.7563 119.283 91.814C119.402 91.9092 119.393 92.1226 119.527 92.2268C119.666 92.3344 119.602 92.1487 119.601 92.0258C119.597 91.7352 119.519 91.4628 119.503 91.1784C119.486 90.8858 119.209 90.649 119.209 90.3473" stroke="black" stroke-width="3" stroke-linecap="round"/>
<path d="M119.209 91.5696C119.209 92.1963 119.025 93.1393 119.378 93.6935C119.552 93.9672 119.673 94.3259 119.924 94.5572C120.077 94.6987 120.2 94.9053 120.334 95.0678C120.589 95.3778 120.443 94.9286 120.372 94.7745C119.975 93.9153 119.803 92.9668 119.416 92.1074C119.308 91.8668 119.118 91.6556 119.017 91.4012C118.918 91.1558 118.768 90.8862 118.829 90.6109C118.866 90.4471 118.933 89.9691 119.139 89.9101C119.17 89.9011 119.367 89.9074 119.307 89.9074" stroke="black" stroke-width="3" stroke-linecap="round"/>
<path d="M119.503 91.374C119.503 91.7497 119.503 92.1254 119.503 92.5012C119.503 93.1872 119.913 93.9464 120.193 94.5463C120.423 95.0401 120.802 95.4703 121.127 95.907C121.693 96.6697 122.353 97.384 122.879 98.1721C123.058 98.4408 123.3 98.6804 123.533 98.9027C123.783 99.1407 124.056 99.4754 124.392 99.5871" stroke="black" stroke-width="3" stroke-linecap="round"/>
<path d="M127.129 102.178C126.908 102.129 126.626 101.724 126.472 101.57C126.119 101.217 125.722 100.918 125.369 100.565C125.132 100.328 124.887 100.118 124.587 99.9674C124.42 99.8841 124.229 99.7668 124.098 99.6361C123.91 99.4483 123.706 99.172 123.607 98.9245C123.557 98.8011 123.398 98.3524 123.292 98.2672C123.213 98.2044 123.112 97.8733 123.072 97.7675C122.964 97.4884 122.849 97.1161 122.632 96.8984C122.008 96.2745 121.511 95.7049 121.105 94.894C120.962 94.608 120.687 94.5565 120.529 94.2802C120.449 94.1397 119.89 93.454 120.138 93.3296" stroke="black" stroke-width="3" stroke-linecap="round"/>
<path d="M120.276 92.483C120.339 92.475 120.423 92.4092 120.483 92.3828C120.556 92.3508 120.626 92.3542 120.703 92.3542C120.728 92.3542 120.732 92.3522 120.701 92.3549C120.668 92.3578 120.638 92.3717 120.606 92.3809C120.527 92.4038 120.337 92.4154 120.287 92.4895C120.266 92.5212 120.344 92.5924 120.357 92.5649" stroke="black" stroke-width="3" stroke-linecap="round"/>
<path d="M120.51 94.3202C120.66 94.3202 120.812 94.2129 120.917 94.1121C120.928 94.1009 120.983 94.0507 120.978 94.051C120.957 94.0522 120.904 94.0822 120.896 94.0978" stroke="black" stroke-width="3" stroke-linecap="round"/>
<path d="M124.383 98.521C124.424 98.521 124.465 98.521 124.506 98.521C124.525 98.521 124.44 98.5327 124.418 98.5327" stroke="black" stroke-width="3" stroke-linecap="round"/>
<path d="M128.761 105.257C128.785 105.23 128.786 105.229 128.828 105.229C128.948 105.229 129.069 105.229 129.19 105.229C129.315 105.229 129.441 105.229 129.566 105.229C129.701 105.229 129.833 105.243 129.967 105.243C130.314 105.244 130.637 105.236 130.972 105.332C131.22 105.403 131.477 105.443 131.726 105.51C131.87 105.548 131.99 105.58 132.14 105.58" stroke="black" stroke-width="3" stroke-linecap="round"/>
<path d="M128.326 102.775C128.402 102.775 128.387 102.79 128.424 102.845" stroke="black" stroke-width="3" stroke-linecap="round"/>
<path d="M128.312 104.163H129.252" stroke="black" stroke-width="3" stroke-linecap="round"/>
<path d="M129.939 104.528H130.051" stroke="black" stroke-width="3" stroke-linecap="round"/>
<path d="M130.051 104.528C130.051 104.478 130.05 104.443 130.023 104.402" stroke="black" stroke-width="3" stroke-linecap="round"/>
<path d="M130.934 105.005C130.934 104.978 130.952 104.97 130.962 104.949" stroke="black" stroke-width="3" stroke-linecap="round"/>
<path d="M131.523 105.215V105.201" stroke="black" stroke-width="3" stroke-linecap="round"/>
<path d="M135.969 107.01C136.117 107.01 136.209 106.887 136.323 106.8C136.617 106.576 136.958 106.429 137.267 106.233C137.358 106.175 137.455 106.122 137.547 106.063C137.621 106.016 137.695 105.944 137.778 105.917" stroke="black" stroke-width="3" stroke-linecap="round"/>
<path d="M137.848 107.711C137.86 107.607 137.974 107.526 137.974 107.417" stroke="black" stroke-width="3" stroke-linecap="round"/>
<path d="M131.355 105.818C132.15 105.818 132.946 105.832 133.739 105.832C133.916 105.832 134.093 105.882 134.27 105.902C134.531 105.931 134.811 105.913 135.068 105.984C135.225 106.027 135.405 106.015 135.568 106.015C135.664 106.015 135.76 106.015 135.856 106.015C135.902 106.015 136.093 105.992 136.109 105.959" stroke="black" stroke-width="3" stroke-linecap="round"/>
<path d="M137.89 105.86C138.052 105.86 138.214 105.86 138.376 105.86C138.547 105.86 139.058 105.79 138.886 105.79" stroke="black" stroke-width="3" stroke-linecap="round"/>
<path d="M160.236 115.627C160.236 113.29 160.2 111.084 160.921 108.825C161.337 107.523 161.913 106.354 162.445 105.114C163.079 103.635 165.274 103.229 166.602 102.698" stroke="black" stroke-width="3" stroke-linecap="round"/>
<path d="M165.231 98.8782C165.099 99.8031 164.209 100.756 163.707 101.523C163.374 102.031 163.069 102.554 162.706 103.046C162.403 103.457 162.14 104.309 161.705 104.581C161.19 104.903 160.676 105.921 160.333 106.42C159.641 107.431 158.75 108.26 157.863 109.086C157.327 109.585 156.649 109.966 156.067 110.414C155.469 110.876 154.934 111.533 154.261 111.883C153.217 112.426 152.146 113.08 150.931 113.08" stroke="black" stroke-width="7" stroke-linecap="round"/>
<path d="M148.09 115.333C148.183 115.753 149.254 115.725 149.581 115.725C150.385 115.725 151.154 115.431 151.948 115.431C152.432 115.431 152.917 115.431 153.401 115.431C154.243 115.431 155.084 115.431 155.926 115.431C156.692 115.431 157.445 115.235 158.211 115.235C159.394 115.235 160.548 114.954 161.71 114.838C162.954 114.714 164.192 114.477 165.432 114.305C166.761 114.12 168.148 114.005 169.443 113.69C169.607 113.65 170.188 113.446 170.128 113.521C169.953 113.74 169.381 113.808 169.149 113.864C168.5 114.02 167.867 114.235 167.222 114.408C166.208 114.68 165.292 115.039 164.251 115.039" stroke="black" stroke-width="7" stroke-linecap="round"/>
<path d="M159.452 116.704C159.991 116.704 160.378 116.731 160.823 116.509" stroke="black" stroke-width="7" stroke-linecap="round"/>
<path d="M162.978 115.823C164.454 115.823 165.922 115.809 167.386 115.725C167.76 115.703 168.189 115.26 168.414 114.985C168.99 114.281 169.404 113.462 169.954 112.743C170.398 112.162 171.073 111.779 171.684 111.404C171.818 111.322 172.208 111.264 172.283 111.17C172.478 110.927 173.023 110.835 173.284 110.632C173.705 110.305 174.013 109.881 174.389 109.505C174.966 108.928 175.508 108.354 176.103 107.791C176.392 107.518 177.082 107.596 177.082 107.252C177.082 106.844 177.082 106.436 177.082 106.028" stroke="black" stroke-width="7" stroke-linecap="round"/>
<path d="M169.345 115.235C171.09 115.235 172.523 114.548 173.703 113.276C174.029 112.926 174.319 112.688 174.574 112.264C174.773 111.932 174.88 111.588 175.123 111.274C175.431 110.876 175.704 110.493 175.809 109.995C175.864 109.733 176.062 109.183 176.299 109.064" stroke="black" stroke-width="7" stroke-linecap="round"/>
<path d="M160.725 105.538C163.239 105.538 165.753 105.538 168.267 105.538C169.015 105.538 170.078 105.768 170.716 105.343" stroke="black" stroke-width="7" stroke-linecap="round"/>
<path d="M161.019 109.848H168.757" stroke="black" stroke-width="7" stroke-linecap="round"/>
<path d="M159.452 92.7073C159.452 94.1438 159.452 95.5804 159.452 97.0169C159.452 97.8128 159.123 98.2618 158.766 98.9759C157.318 101.872 154.977 104.205 153.145 106.85C152.327 108.031 150.625 108.339 149.51 109.206C149.192 109.454 148.868 109.71 148.531 109.897C148.367 109.988 148.218 110 148.047 110.049C147.845 110.107 147.948 110.36 147.796 110.436" stroke="black" stroke-width="7" stroke-linecap="round"/>
<path d="M164.447 93.0991C166.363 93.0991 167.484 94.0531 168.877 95.3301C169.34 95.7546 169.839 96.261 170.15 96.8211C170.484 97.4231 171.162 97.8192 171.521 98.3883C171.787 98.809 172.309 99.2089 172.724 99.4711C173.124 99.7239 173.421 100.1 173.85 100.325C174.402 100.616 174.813 101.168 175.243 101.599C176.021 102.376 176.983 103.38 177.474 104.363" stroke="black" stroke-width="7" stroke-linecap="round"/>
<path d="M166.798 102.796C166.823 102.595 167.863 102.698 168.071 102.698" stroke="black" stroke-width="7" stroke-linecap="round"/>
<path d="M174.144 97.0172C174.094 96.6146 173.59 96.525 173.458 96.9192" stroke="black" stroke-width="7" stroke-linecap="round"/>
<path d="M121.155 69.2C121.155 68.4853 121.155 67.7707 121.155 67.056C121.155 66.1762 121.359 65.959 121.982 65.3365C123.262 64.0558 124.588 62.8892 126.03 61.7995C128.147 60.2005 130.141 58.4566 132.244 56.8423C133.867 55.5975 136.098 55.5971 138.029 55.2425C140.167 54.8498 142.335 54.8018 144.51 54.8018C145.396 54.8018 146.882 54.508 147.622 55.1174C148.265 55.6468 149.079 56.0521 149.772 56.5267C151.094 57.4326 152.347 58.7489 153.085 60.1888C153.527 61.0503 154.035 61.8702 154.495 62.7191C154.811 63.3035 154.978 63.9602 155.191 64.5856C155.34 65.0226 155.73 65.67 155.73 66.1636" stroke="black" stroke-width="7" stroke-linecap="round"/>
<path d="M121.155 69.3961C123.124 69.3961 125.228 69.5927 127.178 69.2927C127.874 69.1857 128.38 68.8074 128.99 68.5363C129.56 68.2833 130.211 68.3103 130.797 68.0466C132.423 67.3148 134.261 66.9457 135.7 65.8264C135.929 65.6481 136.279 65.5785 136.532 65.4238C137.654 64.7383 138.712 63.9702 139.797 63.2254C141.927 61.7636 144.166 60.5817 146.229 59.0137" stroke="black" stroke-width="7" stroke-linecap="round"/>
<path d="M125.66 65.1843C126.628 65.1843 127.6 64.7504 128.522 64.4987C129.87 64.1312 131.226 63.7392 132.56 63.3288C133.67 62.9872 135.106 62.9227 136.119 62.3439C137.786 61.3911 139.328 59.98 141.234 59.5034" stroke="black" stroke-width="7" stroke-linecap="round"/>
<path d="M123.505 59.9932C124.284 59.7706 124.974 59.3077 125.736 59.0355C126.575 58.7359 127.414 58.4362 128.25 58.1322C129.801 57.5682 131.336 57.2541 132.712 56.2712C133.113 55.9853 133.505 55.7951 133.942 55.5638C134.372 55.3361 134.864 54.7799 135.357 54.7095C136.932 54.4844 137.222 54.5081 137.909 54.5081C142.026 54.5081 146.219 53.9968 150.169 55.3135C150.966 55.5791 151.859 55.6579 152.585 56.1243C152.893 56.3227 153.651 56.6427 153.847 56.9568C154.09 57.3448 154.506 57.4123 154.653 57.9254C154.751 58.2707 155.006 58.6469 155.142 58.9919C155.242 59.2451 155.293 59.5832 155.436 59.7973" stroke="black" stroke-width="7" stroke-linecap="round"/>
<path d="M132.001 57.7368C132.001 57.2033 131.782 56.6962 131.782 56.1768C131.782 56.1356 131.712 56.0561 131.757 56.043C131.879 56.0082 131.935 55.927 132.031 55.8484C132.149 55.7516 132.336 55.5474 132.493 55.5474" stroke="black" stroke-width="7" stroke-linecap="round"/>
<path d="M150.72 54.8906C150.72 54.589 150.704 54.3222 150.83 54.0696" stroke="black" stroke-width="7" stroke-linecap="round"/>
<path d="M146.177 53.4128V54.0697" stroke="black" stroke-width="7" stroke-linecap="round"/>
<path d="M147.381 52.975C147.387 52.9239 147.409 52.9063 147.436 52.8655" stroke="black" stroke-width="7" stroke-linecap="round"/>
<path d="M138.022 54.0148C137.986 54.0103 137.941 53.9771 137.976 53.9357C138.055 53.8437 138.483 53.9053 138.563 53.9053C139.121 53.9053 139.534 53.8969 140.053 53.7654C140.608 53.6247 141.147 53.5769 141.716 53.5769C142.236 53.5769 142.756 53.5769 143.276 53.5769" stroke="black" stroke-width="7" stroke-linecap="round"/>
<path d="M154.497 57.5726C154.497 57.2579 154.552 57.0051 154.552 56.6968C154.552 56.4623 154.417 56.2843 154.284 56.0886C154.116 55.8419 153.713 55.5501 153.621 55.2737" stroke="black" stroke-width="7" stroke-linecap="round"/>
<path d="M158.821 75.6903C158.821 74.1194 158.42 72.5307 158.055 71.0074C157.941 70.5305 157.841 70.0304 157.754 69.5477C157.644 68.9361 157.631 68.3186 157.508 67.7111C157.235 66.3635 157.398 64.9063 157.398 63.539C157.398 62.9408 157.347 62.3414 156.948 61.8543C156.575 61.3986 156.198 60.795 155.987 60.2427C155.894 59.9985 155.87 59.6715 155.713 59.4764C155.564 59.2896 155.45 58.8984 155.373 58.6675" stroke="black" stroke-width="7" stroke-linecap="round"/>
<path d="M136.708 65.9473C138.762 65.9473 140.678 65.1299 142.686 64.8952C144.182 64.7204 145.665 64.6337 147.175 64.6337C149.061 64.6337 150.986 64.5506 152.855 64.8496C153.006 64.8737 153.77 64.9301 153.84 65.0715" stroke="black" stroke-width="7" stroke-linecap="round"/>
<path d="M148.038 62.4442C148.051 62.3404 148.933 62.0882 149.036 62.0489C149.618 61.8253 150.226 61.6712 150.83 61.5137" stroke="black" stroke-width="7" stroke-linecap="round"/>
<path d="M138.624 66.9326C138.64 67.0667 141.692 66.9874 142.175 66.9874C143.904 66.9874 145.6 67.2386 147.242 67.8206C148.145 68.1408 149.084 68.4144 149.954 68.8058C150.145 68.8919 150.36 68.8979 150.556 68.97C150.884 69.0907 151.192 69.2884 151.484 69.4778C151.996 69.8106 152.362 70.4357 152.8 70.8736" stroke="black" stroke-width="3" stroke-linecap="round"/>
<path d="M131.257 70.8045C131.225 70.8457 131.391 70.9029 131.423 70.9099C131.508 70.9289 131.634 70.9081 131.715 70.8914C131.886 70.8563 132.051 70.7982 132.223 70.7648C132.331 70.7437 132.44 70.7158 132.546 70.686C132.782 70.6196 133.02 70.5709 133.259 70.5129C133.475 70.4603 133.681 70.3661 133.887 70.2847C134.202 70.1605 134.488 69.9655 134.776 69.7898C134.958 69.6791 135.153 69.5946 135.332 69.4798C135.421 69.4227 135.517 69.3832 135.612 69.3384C135.699 69.2978 135.793 69.2694 135.877 69.2272C136.099 69.1165 136.337 69.0335 136.559 68.9224" stroke="black" stroke-width="3" stroke-linecap="round"/>
<path d="M137.314 68.7103C137.692 68.7103 138.069 68.7103 138.446 68.7103C138.718 68.7103 138.976 68.667 139.245 68.6278C139.684 68.5639 140.122 68.538 140.565 68.538C141.068 68.538 141.571 68.538 142.074 68.538C142.869 68.538 143.665 68.5215 144.459 68.482C144.555 68.4772 144.649 68.4717 144.745 68.4717C145.021 68.4717 145.297 68.4717 145.572 68.4717" stroke="black" stroke-width="3" stroke-linecap="round"/>
<path d="M140.92 69.6645C140.92 69.8232 140.878 69.9443 140.83 70.099C140.803 70.1868 140.806 70.2881 140.794 70.3788C140.76 70.6237 140.758 70.8751 140.714 71.1189C140.704 71.1748 140.698 71.1962 140.747 71.2183C140.788 71.2365 140.827 71.2565 140.87 71.2713C140.958 71.302 141.074 71.2965 141.166 71.2941C141.56 71.2839 141.976 71.0437 142.292 70.8243C142.707 70.5357 143.076 70.1722 143.516 69.9178C143.655 69.8371 143.79 69.7448 143.939 69.6807C144.153 69.5886 144.379 69.5241 144.605 69.4701C144.909 69.3973 145.217 69.3707 145.527 69.325C145.813 69.2828 146.098 69.2373 146.384 69.1947C146.509 69.1761 146.642 69.1741 146.768 69.1741C147.138 69.1741 147.508 69.1741 147.879 69.1741" stroke="black" stroke-width="3" stroke-linecap="round"/>
<path d="M149.429 69.6646C149.699 69.6646 149.995 69.6332 150.243 69.7596C150.401 69.8398 150.544 69.9811 150.671 70.1005C150.915 70.3298 151.156 70.5704 151.361 70.8354C151.607 71.1537 151.824 71.4933 152.083 71.8016C152.387 72.1625 152.701 72.5256 153.035 72.859" stroke="black" stroke-width="3" stroke-linecap="round"/>
<path d="M155.111 77.774C155.04 77.7669 154.994 77.7053 154.955 77.6509C154.82 77.463 154.684 77.2767 154.547 77.0906C154.18 76.5933 153.767 76.15 153.458 75.6088C153.183 75.126 152.952 74.5921 152.822 74.0496C152.646 73.321 152.617 72.5542 152.591 71.8083C152.57 71.2068 152.571 70.6061 152.571 70.0043C152.571 69.4803 152.538 68.9441 152.596 68.4229C152.598 68.409 152.62 68.1632 152.621 68.1863C152.629 68.3414 152.754 68.5041 152.819 68.6332C153.158 69.3016 153.508 69.9974 153.728 70.7154C153.931 71.3764 154.048 72.065 154.229 72.7325C154.374 73.266 154.526 73.8654 154.89 74.2987C154.904 74.3155 155.021 74.4562 155.037 74.4218C155.65 73.0428 156.349 71.6939 157.057 70.3612C157.447 69.6249 157.809 68.891 158.285 68.2029C158.573 67.7869 158.966 67.4621 159.364 67.157C159.549 67.0155 159.825 66.8167 160.067 66.8167" stroke="black" stroke-width="3" stroke-linecap="round"/>
<path d="M154.29 78.0978C154.274 78.22 153.91 77.9408 153.879 77.9221C153.588 77.751 153.356 77.3913 153.18 77.1155C153.039 76.8942 152.916 76.6577 152.79 76.4237C152.597 76.0661 152.501 75.6726 152.378 75.2893C152.323 75.1186 152.25 75.0477 152.135 74.9212C151.932 74.6964 151.787 74.4237 151.637 74.1631C151.502 73.9271 151.35 73.6371 151.301 73.3662C151.244 73.0522 151.251 72.7425 151.251 72.4199C151.251 72.3661 151.26 72.3243 151.227 72.2829C151.208 72.2596 151.178 72.2816 151.157 72.2649C151.146 72.2561 151.091 72.1994 151.08 72.2137C151.041 72.2623 151.077 72.468 151.077 72.5305C151.077 72.6468 151.077 72.763 151.077 72.8792C151.077 73.2687 151.07 73.7034 151.182 74.069C151.245 74.2744 151.302 74.5301 151.438 74.6971C151.543 74.8246 151.671 74.9563 151.787 75.072C151.899 75.1839 151.974 75.3056 151.974 75.4636C151.974 75.682 152.087 75.822 152.148 76.0059" stroke="black" stroke-width="3" stroke-linecap="round"/>
<path d="M160.964 80.7872C160.964 80.5163 160.9 80.2266 160.789 79.9778C160.541 79.42 160.107 78.9435 159.893 78.3716" stroke="black" stroke-width="3" stroke-linecap="round"/>
<path d="M159.868 80.6129C159.803 80.6056 159.71 80.4803 159.663 80.433C159.565 80.3351 159.469 80.2363 159.392 80.1204C159.301 79.9838 159.234 79.8241 159.14 79.6915C159.089 79.619 158.986 79.5759 158.947 79.5061C158.912 79.4463 158.78 79.3728 158.722 79.3373C158.534 79.2221 158.322 79.0887 158.163 78.9305C158.024 78.791 157.871 78.6569 157.714 78.5349C157.621 78.4628 157.551 78.3789 157.427 78.3716C157.385 78.3691 157.308 78.3201 157.267 78.2969C157.227 78.2741 157.17 78.2703 157.134 78.2416C157.058 78.1803 156.944 78.1664 156.885 78.0728C156.858 78.0301 156.799 78.0045 156.78 77.9607C156.74 77.8702 156.7 77.7712 156.68 77.6743" stroke="black" stroke-width="3" stroke-linecap="round"/>
<path d="M155.435 78.7203C155.709 78.7203 155.983 78.7203 156.257 78.7203C156.378 78.7203 156.494 78.7143 156.611 78.7508C156.725 78.786 156.848 78.766 156.96 78.8006C157.102 78.8443 157.252 78.8947 157.403 78.8947" stroke="black" stroke-width="3" stroke-linecap="round"/>
<path d="M162.483 90.4995C162.483 90.2557 162.478 90.0154 162.433 89.7746C162.378 89.48 162.244 89.2067 162.138 88.9279C161.942 88.4107 161.748 87.8911 161.65 87.3451C161.572 86.9121 161.53 86.4785 161.499 86.0405C161.444 85.2636 161.387 84.4799 161.387 83.701C161.387 83.5718 161.317 83.412 161.289 83.2873C161.25 83.1141 161.213 82.9077 161.213 82.7297" stroke="black" stroke-width="3" stroke-linecap="round"/>
<path d="M167.14 91.919C167.14 91.7358 166.927 91.5446 166.824 91.4099C166.566 91.0726 166.25 90.7626 165.965 90.4483C165.375 89.7975 164.729 89.208 164.149 88.5488C163.951 88.3249 163.738 88.0474 163.591 87.7865C163.511 87.6451 163.331 87.5218 163.216 87.4088C163.158 87.3517 163.072 87.2654 162.995 87.2372C162.791 87.1632 162.688 87.234 162.577 87.4171C162.462 87.6052 162.328 87.7803 162.214 87.9677C162.134 88.1012 162.019 88.1866 161.924 88.308C161.805 88.459 161.631 88.5914 161.477 88.7051C161.262 88.8644 161.073 89.0691 160.87 89.2433C160.548 89.5185 160.236 89.7938 159.887 90.0264C159.741 90.124 159.655 90.1509 159.482 90.1509C159.446 90.1509 159.277 90.1622 159.334 90.0886C159.377 90.0334 159.409 89.9667 159.456 89.9157C159.548 89.8152 159.63 89.6669 159.644 89.5283C159.652 89.4453 159.735 89.3658 159.768 89.2917C159.809 89.2011 159.889 89.1177 159.937 89.0302C159.97 88.9712 159.973 88.9009 160.005 88.8435C160.068 88.7291 160.11 88.5143 160.117 88.3828C160.125 88.2445 160.228 88.198 160.329 88.1199C160.392 88.0706 160.452 87.9581 160.529 87.9359C160.62 87.91 160.749 87.9345 160.845 87.9345C160.982 87.9345 161.055 87.81 161.188 87.81" stroke="black" stroke-width="3" stroke-linecap="round"/>
<path d="M145.748 109.376C145.748 108.634 145.698 107.896 145.698 107.154C145.698 106.936 145.641 106.7 145.785 106.525C146.026 106.233 146.322 105.988 146.55 105.685C146.869 105.262 147.22 104.866 147.56 104.461C148.584 103.241 149.843 102.236 151.088 101.252C151.623 100.829 152.156 100.401 152.675 99.9586C153.071 99.6212 153.483 99.2968 153.864 98.9417C154.282 98.5506 154.64 98.106 155.012 97.6716" stroke="black" stroke-width="3" stroke-linecap="round"/>
<path d="M148.761 105.516C150.943 104.113 152.9 102.337 154.788 100.56" stroke="black" stroke-width="3" stroke-linecap="round"/>
<path d="M144.403 105.74C144.457 105.642 144.746 105.297 144.647 105.198C144.569 105.121 144.428 104.869 144.566 104.806C144.757 104.72 144.952 104.591 145.117 104.459C145.361 104.265 145.562 104.007 145.828 103.842C146.024 103.72 146.201 103.57 146.393 103.442C146.599 103.304 146.799 103.154 147.004 103.013C147.144 102.918 147.246 102.779 147.38 102.677C147.619 102.496 147.844 102.286 148.1 102.129C148.572 101.839 149.059 101.536 149.486 101.18C150.009 100.744 150.546 100.324 151.052 99.8687C151.436 99.5239 151.839 99.2042 152.267 98.9168C152.549 98.7278 152.829 98.539 153.121 98.3689C153.283 98.2741 153.482 98.252 153.655 98.1808C153.838 98.1053 154.017 98.0242 154.187 97.9221C154.547 97.7061 154.901 97.4797 155.266 97.2732C155.386 97.2053 155.512 97.143 155.634 97.0795C155.719 97.0353 155.795 96.9539 155.883 96.9246" stroke="black" stroke-width="3" stroke-linecap="round"/>
<path d="M152.198 97.9206C152.55 97.6162 152.909 97.3175 153.258 97.0089C153.329 96.9456 153.401 96.8765 153.48 96.8235C153.563 96.7681 153.581 96.6515 153.667 96.6063C154.136 96.3592 154.558 95.9261 154.882 95.5105C155.264 95.0196 155.529 94.4535 155.859 93.9306C155.982 93.735 156.02 93.497 156.113 93.2886C156.269 92.9371 156.406 92.6127 156.406 92.2178C156.406 92.1567 156.409 91.9872 156.444 91.9452C156.498 91.8804 156.53 91.894 156.631 91.894C156.776 91.894 156.915 91.8442 157.054 91.8442" stroke="black" stroke-width="3" stroke-linecap="round"/>
<path d="M156.655 91.8444C156.6 91.8374 156.556 91.6444 156.531 91.695" stroke="black" stroke-width="3" stroke-linecap="round"/>
</svg>
