<svg width="264" height="225" viewBox="0 0 264 225" fill="none" xmlns="http://www.w3.org/2000/svg">
<rect width="264" height="225" fill="#F5F5F7"/>
<path d="M47.2035 172.073V195.073H216.203" stroke="black" stroke-width="2"/>
<path d="M49.7035 30.5732H117.703M169.203 30.5732H216.703M216.703 95.5732V108.323V133.573M216.703 164.573V196.073M49.7035 117.573V76.5732" stroke="black" stroke-width="2"/>
<path d="M115.62 71.1195C114.395 70.0303 113.262 68.9096 113.262 67.161C113.262 66.0749 113.653 64.5161 114.141 63.5394C115.667 60.4887 118.125 57.497 120.505 55.117C123.198 52.4234 125.708 50.4918 129.32 49.3899C132.459 48.4323 135.551 48.3792 138.875 48.3792C140.388 48.3792 141.901 48.3792 143.414 48.3792C144.046 48.3792 144.745 48.2924 145.369 48.3885C146.266 48.5265 147.159 49.053 148.055 49.053C149.992 49.053 152.073 51.21 153.352 52.4219C154.3 53.3199 155.591 54.5376 155.888 55.8751C156.043 56.572 156.563 57.2429 156.758 57.9806C157.077 59.1857 157.52 60.3374 157.769 61.5555C158.207 63.6993 158.574 65.6009 158.574 67.8348C158.574 69.5348 158.574 71.2349 158.574 72.935C158.574 73.9768 158.574 75.0187 158.574 76.0606C158.574 76.4604 158.547 78.1807 158.911 78.3627" stroke="black" stroke-width="3" stroke-linecap="round"/>
<path d="M158.911 78.0259C158.911 78.9125 158.573 80.5519 158.995 81.3106C159.418 82.073 159.664 82.9323 160.09 83.6782C161.091 85.431 162.64 87.0116 164.207 88.2824C166.568 90.1967 169.101 91.8496 171.451 93.7289C173.317 95.2222 174.693 97.3297 176.261 99.0817C178.283 101.342 178.594 105.819 177.178 108.449C176.63 109.466 176.203 110.741 175.241 111.463C174.586 111.953 173.953 112.49 173.313 112.988C172.503 113.618 171.745 114.321 170.786 114.747C169.847 115.165 169.123 116.252 168.082 116.441C167.249 116.592 166.157 117.226 165.386 117.611C164.375 118.117 162.783 118.537 161.643 118.622C159.894 118.751 158.199 118.958 156.421 118.958C154.149 118.958 151.854 119.295 149.562 119.295C148.619 119.295 146.674 119.666 145.856 119.211C145.366 118.939 144.673 119.023 144.218 118.659C143.877 118.386 143.291 117.981 142.908 117.742C141.793 117.045 141.386 115.034 140.587 114.036C140.035 113.346 139.865 111.895 139.67 111.041C139.462 110.13 139.202 109.281 139.202 108.346C139.202 107.111 139.202 105.876 139.202 104.64" stroke="black" stroke-width="3" stroke-linecap="round"/>
<path d="M115.115 72.2988C115.115 73.5944 113.95 74.8791 113.262 75.9111C112.213 77.4841 110.878 78.8326 109.818 80.3749C109.237 81.2201 108.407 82.0897 107.703 82.8361C107.23 83.3379 106.787 83.8621 106.271 84.3334C105.21 85.3021 104.161 86.3848 103.061 87.2906C101.276 88.7604 98.9791 89.7621 96.9223 90.7905C95.939 91.2822 94.7321 91.7148 93.8902 92.5124C93.0696 93.2899 92.1606 94.1533 91.2325 94.7958C89.8117 95.7795 88.73 97.8591 87.9104 99.3345C87.1982 100.616 86.3704 101.863 85.2152 102.788C84.1496 103.64 87.8473 101.882 88.9117 101.028C90.1511 100.034 90.7888 98.8144 91.8689 97.7343C92.8554 96.7477 93.9309 95.8088 94.826 94.7397C95.6424 93.7646 96.6172 93.1764 97.8019 92.8119C98.1423 92.7072 99.9375 92.546 99.7859 92.8493" stroke="black" stroke-width="3" stroke-linecap="round"/>
<path d="M89.679 99.4186C91.532 99.4186 93.3849 99.4186 95.2378 99.4186C95.962 99.4186 96.5875 99.1853 96.08 99.9614C95.7 100.543 95.4252 101.139 94.9945 101.693C93.4545 103.673 93.2164 106.096 93.2164 108.515C93.2164 110.799 94.7722 112.718 96.9878 113.4C98.1866 113.769 99.4833 114.201 100.628 114.71C101.52 115.106 102.538 115.191 103.407 115.674C104.289 116.163 105.615 116.749 106.599 116.928C107.583 117.107 108.542 117.779 109.556 117.779C110.554 117.779 111.614 118.116 112.625 118.116C114.036 118.116 115.43 118.159 116.724 117.789C118.414 117.306 120.783 117.118 122.227 115.964C122.93 115.401 124.036 115.381 124.548 114.485C124.803 114.038 125.052 113.603 125.306 113.147C125.574 112.664 125.501 112.166 125.727 111.715" stroke="black" stroke-width="3" stroke-linecap="round"/>
<path d="M116.967 71.2881C120.132 71.2881 123.234 71.1196 126.4 71.1196C127.834 71.1196 129.044 71.0844 130.359 70.7921C131.564 70.5242 132.167 69.5673 133.223 69.0983C133.758 68.8604 134.323 68.9298 134.907 68.9298C135.569 68.9298 135.328 69.7504 135.328 70.2774C135.328 72.0317 136.869 72.5766 138.36 71.8309C138.957 71.5325 139.523 71.127 140.045 70.8202C140.401 70.6107 140.956 70.0531 141.317 69.9499C142.368 69.6497 143.669 69.3515 144.845 69.613C145.455 69.7484 145.603 72.2937 145.603 72.8041C145.603 73.844 145.948 75.3202 146.708 76.0795C148.337 77.7089 150.668 78.4059 152.678 79.411C153.323 79.7336 153.883 80.227 154.531 80.5152C154.926 80.6907 155.47 80.8993 155.71 81.32C156.179 82.1413 155.947 83.976 155.701 84.8387C155.376 85.9751 154.39 87.4314 153.52 88.3012C153.108 88.7133 152.456 89.0023 151.929 89.1528C151.282 89.3376 150.994 89.4716 150.994 88.6381" stroke="black" stroke-linecap="round"/>
<path d="M116.967 71.7935C116.967 74.9067 117.136 78.1208 117.136 81.1422C117.136 84.3048 116.541 88.3942 117.81 91.249C118.795 93.4671 120.518 95.352 121.721 97.3973C123.111 99.7596 125.427 101.016 127.748 102.245C129.035 102.926 130.005 103.293 131.538 103.293C132.886 103.293 134.233 103.293 135.581 103.293C136.735 103.293 138.554 103.555 139.371 102.535C139.657 102.178 140.403 101.844 140.803 101.534C141.166 101.251 141.72 100.709 142.141 100.588C142.625 100.45 143.084 99.7861 143.451 99.4561C143.915 99.0387 144.443 98.7745 144.892 98.3706C145.753 97.5958 146.894 96.5633 147.494 95.5444C148.128 94.4658 149.275 93.6025 149.852 92.5124C150.235 91.7893 150.441 91.4719 150.488 90.6595C150.518 90.157 150.994 89.6738 150.994 89.1435" stroke="black" stroke-linecap="round"/>
<path d="M151.162 82.4055C152.707 82.4055 151.162 84.0045 151.162 84.7638" stroke="black" stroke-linecap="round"/>
<path d="M122.189 78.026C122.189 79.0086 122.189 79.9912 122.189 80.9738C122.189 81.845 123.303 82.5786 123.368 81.3949C123.397 80.8752 123.601 79.1509 123.106 78.8682C122.729 78.6524 122.526 78.5691 122.526 78.1102C122.526 77.3699 122.54 78.2785 122.526 78.5313C122.498 79.0331 122.526 79.5257 122.526 80.0474C122.526 80.3004 122.695 81.3832 122.695 80.6463C122.695 80.1347 122.695 79.6231 122.695 79.1115C122.695 78.4947 122.215 78.6324 122.189 78.1944C122.119 76.9951 123.031 77.2472 123.031 78.2787C123.031 79.0928 123.031 79.907 123.031 80.7211" stroke="black" stroke-linecap="round"/>
<path d="M138.697 79.542C138.697 78.8121 138.697 78.0822 138.697 77.3522C138.697 77.0545 138.553 76.7457 138.285 76.6691C137.891 76.5565 138.023 76.8201 138.023 77.268C138.023 77.8118 138.013 78.8169 138.276 79.2894C138.412 79.5341 139.371 80.8032 139.371 79.8789C139.371 79.1703 139.442 78.4816 139.165 77.8576C139.018 77.5267 138.282 76.1731 138.613 76.1731C139.626 76.1731 139.371 76.7203 139.371 77.6049C139.371 78.4752 139.371 79.3455 139.371 80.2158" stroke="black" stroke-linecap="round"/>
<path d="M128.59 76.3416C128.59 77.4365 128.59 78.5314 128.59 79.6263C128.59 80.3904 128.766 81.3438 128.291 81.9377C127.862 82.474 128.522 83.8159 129.002 84.0901C129.478 84.3618 129.828 84.9711 130.35 85.2692C131.03 85.6582 130.416 85.7603 129.854 85.5874C129.295 85.4154 128.014 84.3271 127.711 83.7532C127.49 83.3361 126.767 82.011 127.327 81.5634C128.421 80.688 127.916 77.6081 127.916 76.3416" stroke="black" stroke-linecap="round"/>
<path d="M156.384 54.6119C156.384 53.8722 156.88 53.4588 157.226 52.8526C157.328 52.674 158.171 51.8356 158.059 52.3379C157.959 52.7883 157.406 53.3352 157.189 53.7697C156.923 54.3017 156.552 55.0246 156.552 55.6226C156.552 56.232 156.296 56.3929 156.974 55.8659C157.534 55.4301 158.127 55.2857 158.826 55.2857C161.279 55.2857 157.738 56.8154 157.563 56.4648" stroke="black" stroke-linecap="round"/>
<path d="M130.612 92.1753C132.159 92.1753 133.35 90.6442 134.28 89.6112C134.665 89.1832 134.892 88.5922 135.253 88.1326C135.537 87.772 135.974 87.4957 136.208 87.1219C136.839 86.1121 140.04 85.3058 140.887 86.3639C141.414 87.0232 142.066 87.7766 142.066 88.7222C142.066 89.684 141.919 90.3503 141.72 91.2489C141.536 92.0756 139.453 94.2814 138.697 94.5336" stroke="black" stroke-width="2" stroke-linecap="round"/>
<path d="M126.232 111.715C127.886 111.715 129.002 111.749 130.518 111.032C131.908 110.375 133.57 109.206 134.392 107.86C135.15 106.62 136.395 105.314 136.844 103.967" stroke="black" stroke-width="2" stroke-linecap="round"/>
<path d="M124.211 116.095C124.211 117.411 124.211 118.727 124.211 120.044C124.211 121.099 124.548 122.155 124.548 123.169C124.548 124.711 127.65 125.528 128.843 125.528C130.832 125.528 132.501 125.227 134.233 124.264C135.563 123.526 138.134 122.837 138.697 121.148" stroke="black" stroke-width="2" stroke-linecap="round"/>
<path d="M124.042 130.244C124.869 131.072 126.162 131.592 127.327 131.592C128.768 131.592 130.464 131.851 131.791 131.293C132.649 130.931 133.999 130.758 134.664 129.982C135.019 129.568 135.652 129.31 136.086 128.972C136.442 128.695 136.698 128.317 137.078 128.064C137.33 127.896 138.072 127.282 138.192 127.044" stroke="black" stroke-width="2" stroke-linecap="round"/>
<path d="M103.938 124.732C98.9292 129.741 94.4814 135.165 89.1343 139.8C88.0562 140.734 86.8535 141.738 85.6136 142.447C84.9077 142.85 84.0353 143.399 83.4235 143.889C83.0267 144.206 82.2259 143.955 81.9819 144.443" stroke="black" stroke-width="2" stroke-linecap="round"/>
<path d="M163.07 120.241C163.295 122.264 165.8 124.009 166.757 125.73C167.608 127.263 169.331 128.621 169.82 130.332C169.999 130.957 170.701 131.973 171.054 132.522C171.699 133.525 171.843 134.66 172.426 135.697C173.706 137.972 174.234 140.598 175.24 142.946C175.585 143.75 176.044 145.181 176.044 146.065C176.044 146.923 176.512 147.65 176.543 148.491C176.594 149.874 176.792 151.141 176.792 152.552C176.792 153.176 176.792 153.799 176.792 154.423C176.792 155.149 176.208 155.618 176.058 156.294C175.945 156.8 175.099 159.012 174.796 159.164" stroke="black" stroke-width="2" stroke-linecap="round"/>
<path d="M144.108 170.391C145.057 170.497 145.919 171.25 146.797 171.583C147.774 171.954 148.766 172.461 149.722 172.886C151.3 173.588 153.076 174.383 154.836 174.383C156.209 174.383 157.581 174.383 158.953 174.383C160.149 174.383 163.464 172.835 164.068 171.777C164.484 171.05 165.597 170.738 166.078 170.017C166.537 169.327 167.33 168.908 167.81 168.201C168.647 166.971 169.739 165.969 170.666 164.777C171.505 163.698 172.698 162.907 173.355 161.659C173.943 160.542 174.494 159.519 175.046 158.415" stroke="black" stroke-width="2" stroke-linecap="round"/>
<path d="M137.87 155.92C137.87 154.335 136.298 152.568 135.07 151.678C133.672 150.666 132.43 149.304 130.884 148.49C129.325 147.67 127.915 147.006 126.393 146.245C124.932 145.514 122.954 143.858 122.207 142.447C121.307 140.747 119.018 139.952 117.286 139.952C116.062 139.952 115.19 139.959 114.071 140.562C112.485 141.415 110.48 141.914 109.067 143.071C106.804 144.922 104.485 147.001 103.065 149.558C101.343 152.657 105.303 151.504 106.683 150.431C107.755 149.597 108.832 149.03 109.801 148.061C110.402 147.46 111.185 146.808 111.922 146.439" stroke="black" stroke-width="2" stroke-linecap="round"/>
<path d="M120.405 146.439C115.492 146.439 112.456 151.046 107.93 152.177" stroke="black" stroke-width="2" stroke-linecap="round"/>
<path d="M118.659 150.681C116.594 150.681 115.004 152.323 113.045 152.926C111.791 153.312 110.615 154.035 109.372 154.479C108.802 154.682 106.938 155.409 106.683 155.92" stroke="black" stroke-width="2" stroke-linecap="round"/>
<path d="M107.431 159.663C108.295 159.663 109.446 158.73 110.3 158.429C111.628 157.96 113.003 157.623 114.279 157.043C116.214 156.163 117.476 156.345 119.033 157.556C121.095 159.16 124.432 161.017 127.142 159.663" stroke="black" stroke-width="2" stroke-linecap="round"/>
<path d="M56.7035 145.573L47.2035 121.073L92.7035 153.573L96.4021 163.573M129.703 175.073L106.203 190.073L96.9569 165.073L96.4021 163.573M118.703 163.573L129.703 171.073M96.4021 163.573L119.203 174.573M98.9912 170.573L115.703 178.573" stroke="black" stroke-width="2"/>
<path d="M101.703 178.073L109.703 182.073" stroke="black" stroke-width="2"/>
<path d="M129.703 171.073C130.519 171.073 131.703 172.101 131.703 173.025C131.703 173.945 130.199 174.241 129.943 175.073" stroke="black" stroke-width="2" stroke-linecap="round"/>
<path d="M53.0415 138.991C53.0415 139.415 53.0214 139.787 52.8346 140.176C52.3396 141.207 52.0881 142.181 51.772 143.269C51.3182 144.833 51.002 146.522 50.7094 148.131C50.1361 151.284 50.3333 154.587 50.3333 157.788C50.3333 158.716 50.4401 159.643 50.8411 160.468C51.265 161.341 51.2869 162.475 51.9601 163.223C52.8137 164.172 53.2937 165.349 54.1887 166.279C54.8011 166.916 55.3376 167.752 56.0505 168.273C57.8311 169.574 59.0575 171.32 61.4198 171.32C62.3821 171.32 63.4338 171.23 64.3066 171.479C64.8819 171.644 67.2488 171.69 67.4285 171.15" stroke="black" stroke-width="2" stroke-linecap="round"/>
<path d="M55.4111 151.516C56.9172 151.516 59.1445 153.388 60.1504 154.394C61.7702 156.013 62.844 158.409 64.6828 159.772C67.3551 161.753 70.9588 162.179 74.199 162.179" stroke="black" stroke-width="2" stroke-linecap="round"/>
<path d="M63.5356 162.518C64.2001 162.518 64.6685 162.747 65.2846 162.96C66.7776 163.477 68.3422 163.73 69.8358 164.173C70.8154 164.463 71.9814 164.38 73.0141 164.38" stroke="black" stroke-width="2" stroke-linecap="round"/>
<path d="M63.8741 168.104C66.2086 168.104 68.3817 168.95 70.7291 168.95C71.6175 168.95 74.0771 168.855 74.5374 167.934" stroke="black" stroke-width="2" stroke-linecap="round"/>
<path d="M33.9687 147.622C33.9098 148.094 32.68 148.605 32.3423 148.923C31.7797 149.455 30.9712 149.521 30.3184 149.818C28.57 150.613 26.6528 149.303 25.8367 147.875C24.8387 146.129 23.9785 144.534 22.096 143.592C20.7443 142.917 19.2815 142.7 17.9939 141.858C15.5698 140.273 12.9776 138.257 11.4341 135.731C10.9853 134.997 10.1105 133.881 10.0606 132.985C9.9619 131.207 9.96273 129.295 10.2233 127.536C10.377 126.498 11.0522 125.366 11.3979 124.329C11.6939 123.441 11.9406 121.867 12.9068 121.437C14.2862 120.824 15.7747 120.624 17.2891 120.624C18.0541 120.624 18.8191 120.624 19.5841 120.624C21.0336 120.624 22.3447 121.122 23.7224 121.275C24.7357 121.387 25.9802 121.954 26.8397 122.512C27.917 123.213 28.5458 124.095 29.4148 125.015C30.3599 126.016 30.8879 127.452 31.4478 128.684C32.1377 130.202 32.1797 131.594 32.1797 133.229C32.1797 136.02 31.5575 138.863 32.7038 141.442C33.1811 142.516 34.0087 143.81 34.7458 144.731C35.8849 146.155 34.1318 147.329 33.1555 148.11" stroke="#F1A33B" stroke-width="2" stroke-linecap="round"/>
<path d="M31.6918 148.273C29.7042 146.285 27.8353 144.023 26.3608 141.641C25.5568 140.342 24.5491 138.616 24.2194 137.132C23.9634 135.98 23.5947 134.784 23.5598 133.563C23.5313 132.568 23.2911 130.957 23.5688 129.985C23.8229 129.095 25.2952 131.088 25.4301 131.196C25.684 131.399 25.7621 131.951 25.8458 132.244C26.0324 132.897 25.8606 132.803 25.385 133.183C24.529 133.868 22.9626 133.56 21.9424 133.879C20.8244 134.228 19.5546 133.818 18.5179 133.473" stroke="#F1A33B" stroke-width="2" stroke-linecap="round"/>
<path d="M30.3907 153.803C31.2659 153.803 32.1264 152.9 32.9206 152.673C33.5809 152.484 34.0237 152.031 34.4928 151.562C35.3608 150.694 36.0151 149.805 36.8963 148.923" stroke="#F1A33B" stroke-width="2" stroke-linecap="round"/>
<path d="M32.3423 156.242C33.1319 156.242 33.9601 156.079 34.7006 156.079C35.1927 156.079 36.5894 155.731 36.8963 155.348C37.2939 154.851 38.0256 154.604 38.4865 154.092C39.0285 153.489 39.1708 152.669 39.4985 152.013" stroke="#F1A33B" stroke-width="2" stroke-linecap="round"/>
<path d="M132.057 16.8064C132.057 17.4636 131.7 18.053 131.389 18.6105C130.791 19.6805 130.148 20.724 129.54 21.788C128.953 22.8158 128.226 23.7747 127.676 24.8245C126.876 26.3535 125.315 27.8068 124.848 29.4423C124.548 30.4918 129.031 31.4398 129.815 31.6101C131.509 31.9785 132.941 33.0787 134.514 33.778C136.525 34.6717 138.412 35.8265 140.401 36.8516C141.019 37.1697 142.136 37.9206 142.814 37.9206C143.331 37.9206 144.799 38.542 145.153 38.1879" stroke="#F1A33B" stroke-width="2" stroke-linecap="round"/>
<path d="M131.923 17.6082C131.923 16.7353 131.851 16.1382 132.859 16.1382C133.586 16.1382 134.314 16.1382 135.041 16.1382C137.159 16.1382 138.673 17.3117 140.543 18.1427C141.33 18.4928 142.034 18.9988 142.814 19.3454C143.449 19.6274 144.35 20.3401 145.019 20.4145C145.676 20.4874 146.37 21.1743 146.95 21.4836C147.234 21.6351 147.73 21.8144 147.959 22.0181C148.562 22.5539 149.506 22.8304 150.023 23.4881C150.253 23.7807 150.649 24.0081 150.929 24.2602C151.126 24.4375 151.393 24.6961 151.634 24.8838C152.077 25.2282 152.482 25.8543 152.629 26.3686C153.023 27.7486 151.624 29.2976 150.869 30.3034C149.958 31.5187 148.939 32.6613 148.019 33.8447C147.564 34.4288 147.209 35.1966 146.69 35.7156C146.292 36.1137 146.019 37.02 145.554 37.2524" stroke="#F1A33B" stroke-width="2" stroke-linecap="round"/>
<path d="M132.859 14.8018C134.12 14.8018 135.364 14.2023 136.6 14.1336C137.522 14.0824 138.397 14 139.318 14C140.032 14 139.925 14.1541 140.483 14.4677C141.122 14.8273 141.829 15.0789 142.451 15.47C143.408 16.0727 144.452 16.5429 145.353 17.2072C146.305 17.9082 147.602 18.5838 148.694 19.0113C149.634 19.3792 150.437 20.0014 151.367 20.4145C152.253 20.8085 153.184 21.342 154.04 21.8176C154.508 22.0776 155.324 22.4948 155.844 22.5526C157.07 22.6889 158.249 24.1895 158.249 25.3589C158.249 27.4578 156.932 28.9442 155.717 30.5632C154.936 31.6058 153.795 32.6975 153.431 33.9709C153.263 34.5596 152.772 35.07 152.629 35.7156C152.562 36.0169 152.112 37.2575 151.835 37.1187" stroke="#F1A33B" stroke-width="2" stroke-linecap="round"/>
<path d="M128.716 23.0871C130.101 23.0871 131.348 23.7077 132.591 24.2601C133.28 24.5663 133.99 24.6765 134.648 25.0768C135.232 25.4326 136.457 25.6848 136.838 26.2943C137.382 27.1646 137.507 25.8052 137.922 25.3218C138.548 24.591 139.239 23.7979 139.704 22.9535C140.095 22.242 140.504 21.5885 141.077 21.0158C141.469 20.6235 141.658 20.065 142.213 19.8799" stroke="#F1A33B" stroke-width="2" stroke-linecap="round"/>
<path d="M137.536 21.7508C136.792 21.7508 136.165 22.4502 135.405 22.5452C134.892 22.6093 134.043 22.886 133.527 22.6565C132.095 22.0204 132.206 20.3707 133.23 19.4493C134.229 18.5497 136.05 18.5959 136.764 19.8799C136.959 20.2314 137.52 20.864 137.194 21.2831C136.843 21.7348 136.522 21.9849 136.333 22.5526" stroke="#F1A33B" stroke-width="2" stroke-linecap="round"/>
<path d="M144.485 26.8289C143.847 26.8289 145.937 27.0602 146.222 27.6307" stroke="#F1A33B" stroke-width="2" stroke-linecap="round"/>
<path d="M141.01 28.6997C141.063 28.9095 141.44 28.8333 141.612 28.8333C141.916 28.8333 142.187 29.1115 142.436 29.2639C143.663 30.0171 144.937 30.8888 145.955 31.9069" stroke="#F1A33B" stroke-width="2" stroke-linecap="round"/>
<path d="M210.079 60.9424C209.457 60.7869 210.112 58.6544 210.359 58.3373C210.553 58.0869 210.607 57.919 210.718 57.6187C210.895 57.1387 211.368 56.9488 211.666 56.5607C212.104 55.9913 213.33 55.6194 214.032 55.5526C215.929 55.3719 218.333 54.6414 220.14 55.5925C221.57 56.3453 223.012 58.2264 223.194 59.8644C223.318 60.974 223.684 62.1989 222.915 63.1881C222.388 63.865 221.817 64.4597 221.178 65.0346C220.124 65.9831 218.59 66.2968 217.375 66.9509C216.871 67.2224 216.291 67.4446 215.748 67.5997C215.472 67.6785 215.224 68.0919 214.93 68.1287C213.581 68.2973 213.255 70.3328 213.133 71.3625C213.07 71.8985 212.306 73.1578 211.956 73.6082C211.352 74.3847 210.954 75.4415 210.518 76.3131C209.838 77.6729 209.181 79.3572 209.181 80.8844" stroke="#F1A33B" stroke-width="3" stroke-linecap="round"/>
<path d="M204.51 88.4299C205.223 88.4299 205.654 88.7513 206.306 88.9689" stroke="#35C75C" stroke-width="3" stroke-linecap="round"/>
<path d="M210.443 61.3777C210.443 60.4856 210.443 59.5936 210.443 58.7015C210.443 57.6048 211.075 57.1829 211.897 56.5374C212.841 55.7953 214.031 56 215.052 55.5463C215.938 55.1526 216.785 55.1333 217.802 55.1333C218.87 55.1333 219.602 55.0737 220.487 55.5793C221.271 56.0271 221.827 56.344 222.263 57.2147C223.157 59.0024 224.48 62.1906 223.493 64.0538C223.101 64.7952 221.771 65.3129 220.999 65.6562C220.013 66.0944 218.998 66.4824 218.025 66.9943C216.012 68.0543 214.713 70.1817 213.64 72.0906C213.101 73.0474 212.534 74.1202 211.864 74.9815C211.44 75.5269 210.733 76.5366 210.583 77.2117C210.405 78.0162 209.587 78.6463 209.411 79.4418C209.273 80.0619 208.935 80.7479 208.659 81.3003" stroke="#F1A33B" stroke-width="3" stroke-linecap="round"/>
<path d="M206.131 90.3693C204.933 90.3693 204.199 90.1254 204.199 88.7338C204.199 87.9376 205.314 87.4973 205.917 87.8418C206.498 88.1739 207.321 88.5885 207.321 89.3368C207.321 89.8947 207.536 90.8481 206.875 91.1127C206.426 91.2921 206.167 91.5824 205.685 91.2613" stroke="#F1A33B" stroke-width="3" stroke-linecap="round"/>
<path d="M47.9156 60.7498C46.009 60.7498 44.5367 60.3365 42.7906 59.7015C41.9681 59.4024 40.9335 58.9904 40.2572 58.4494C40.0157 58.2562 39.7461 58.4228 40.3154 58.3911C40.7137 58.369 41.2565 58.1087 41.6549 57.998C48.6747 56.0481 55.334 53.5243 62.0095 50.5871C65.057 49.2462 68.0209 47.6975 71.0657 46.3356C72.0265 45.9059 73.2 45.1774 74.2834 45.0107C75.2112 44.8679 76.0824 44.239 77.0061 44.239" stroke="#F1A33B" stroke-width="2" stroke-linecap="round"/>
<path d="M76.458 45.0532C76.3817 45.7399 75.2463 46.5432 74.8095 46.9801C73.7041 48.0854 72.6431 49.2535 71.5338 50.3627C69.9187 51.9778 68.3182 53.7912 66.5669 55.244C65.0912 56.4682 63.2715 57.828 62.0495 59.3118C61.3116 60.2079 59.939 61.322 58.9238 61.8595C58.4937 62.0872 58.4203 62.3146 57.9604 62.5446C57.5613 62.7441 57.1595 62.9286 56.8043 63.1655" stroke="#F1A33B" stroke-width="2" stroke-linecap="round"/>
<path d="M54.6904 64.8818C58.2625 64.8818 60.9478 67.4119 64.401 67.6881C65.5283 67.7783 67.5446 68.5487 68.5213 69.0913C69.178 69.4561 69.8565 69.1013 70.4145 69.6035C71.0321 70.1594 72.0365 70.4325 72.7307 70.8953" stroke="#F1A33B" stroke-width="2" stroke-linecap="round"/>
<path d="M76.7035 44.0732C76.7035 51.4728 75.5419 58.8786 74.5662 66.2392C74.4123 67.4009 73.88 68.5016 73.88 69.6642C73.88 69.8168 73.907 71.2 73.6055 71.0638C72.9981 70.7897 70.9823 69.5896 70.7035 69.266" stroke="#F1A33B" stroke-width="2" stroke-linecap="round"/>
<path d="M57.5577 62.6848C57.141 62.6848 54.771 64.1388 54.6777 63.952" stroke="#F1A33B" stroke-width="2" stroke-linecap="round"/>
<path d="M54.5582 65.4463C54.5582 67.7609 55.0978 69.9576 55.0978 72.2816" stroke="#F1A33B" stroke-width="2" stroke-linecap="round"/>
<path d="M63.1922 67.6047C62.593 67.6713 62.0236 68.2611 61.6133 68.644C60.8033 69.4 59.8056 69.9266 58.9951 70.7226C57.8399 71.8571 56.5507 72.9072 55.4176 74.0403C55.1918 74.2661 55.0978 74.4983 55.0978 74.0803" stroke="#F1A33B" stroke-width="2" stroke-linecap="round"/>
<path d="M54.9135 71.7881C54.9135 72.1013 54.8319 72.5429 54.9176 72.8429C55.0065 73.1539 55.0596 73.4013 55.0596 73.7598" stroke="#F1A33B" stroke-width="2" stroke-linecap="round"/>
<path d="M49.4761 67.2932C49.3872 67.3043 49.3031 67.3797 49.2252 67.4187" stroke="#F1A33B" stroke-width="2" stroke-linecap="round"/>
<path d="M47.218 69.6768C47.0718 69.695 46.6414 69.9516 46.5907 70.0531" stroke="#F1A33B" stroke-width="2" stroke-linecap="round"/>
<path d="M44.3325 72.0605C44.0876 72.0878 43.4339 72.6032 43.3289 72.8133" stroke="#F1A33B" stroke-width="2" stroke-linecap="round"/>
<path d="M40.1926 75.5732C40.0044 75.5941 38.6871 76.7691 38.6871 76.7023" stroke="#F1A33B" stroke-width="2" stroke-linecap="round"/>
<path d="M35.6763 79.9641C35.6483 80.1877 35.2752 80.3899 35.1744 80.5914" stroke="#F1A33B" stroke-width="2" stroke-linecap="round"/>
<path d="M212.493 140.965C212.4 140.13 210.4 138.643 209.617 138.568C207.333 138.351 206.7 137.568 205.063 139.287C202.688 141.781 200.988 145.197 200.988 148.635C200.988 150.857 202.303 153.429 204.823 153.429C206.279 153.429 207.709 154.01 209.137 153.375C209.8 153.081 211.055 152.363 211.055 151.511" stroke="#F1A33B" stroke-width="2" stroke-linecap="round"/>
<path d="M221.601 143.122C220.669 143.226 218.974 143.938 218.299 144.614C217.164 145.748 217.07 147.703 216.794 149.221C216.515 150.753 215.289 155.374 217.659 156.052C220.962 156.996 223.518 152.891 223.518 150.073C223.518 149.474 223.518 148.875 223.518 148.275C223.518 147.48 223.214 147.085 223.052 146.358C222.834 145.374 222.151 144.426 221.601 143.602" stroke="#F1A33B" stroke-width="2" stroke-linecap="round"/>
<path d="M228.552 144.8C228.552 147.661 226.759 150.532 226.141 153.309C225.683 155.372 223.518 157.601 223.518 159.66" stroke="#F1A33B" stroke-width="2" stroke-linecap="round"/>
<path d="M228.791 146.238C229.748 146.238 230.267 146.142 230.948 146.824C231.681 147.556 232.116 148.439 232.573 149.354C233.458 151.124 234.83 154.236 232.626 155.532C231.94 155.936 231.429 156.826 230.602 157.077C229.445 157.428 228.218 158.202 227.114 158.755C226.423 159.1 225.635 158.933 224.956 159.234C224.405 159.479 222.799 159.868 222.799 159.181" stroke="#F1A33B" stroke-width="2" stroke-linecap="round"/>
<path d="M238.858 149.114C240.851 149.114 242.569 149.584 244.264 150.552C244.833 150.878 246.172 151.751 246.767 151.751" stroke="#F1A33B" stroke-width="2" stroke-linecap="round"/>
<path d="M238.379 148.635C238.379 149.808 237.899 150.968 237.899 152.11C237.899 152.758 238.075 154.438 237.54 154.867C236.875 155.398 236.596 157.606 236.168 158.462C235.832 159.135 234.876 160.114 234.783 160.859C234.7 161.529 233.347 162.002 233.598 162.883C233.66 163.097 236.464 163.708 236.927 164.095C238.266 165.21 240.032 165.64 241.494 166.371" stroke="#F1A33B" stroke-width="2" stroke-linecap="round"/>
<path d="M237.18 157.263C238.675 157.263 240.15 157.678 241.494 158.275C242.339 158.651 242.973 159.421 243.891 159.421" stroke="#F1A33B" stroke-width="2" stroke-linecap="round"/>
<path d="M49.7035 29.5732V47.0732" stroke="black" stroke-width="2"/>
<path d="M216.203 29.5732V46.5732" stroke="black" stroke-width="2"/>
<path d="M118.703 175.073C119.008 175.073 119.388 175.092 119.536 174.795C119.66 174.548 119.86 174.236 119.495 174.073" stroke="black" stroke-linecap="round"/>
<path d="M114.703 179.063C114.861 179.063 115.019 179.063 115.177 179.063C115.373 179.063 115.437 179.015 115.521 178.826C115.601 178.647 115.65 178.509 115.65 178.31C115.65 178.186 115.481 178.166 115.435 178.073" stroke="black" stroke-linecap="round"/>
<path d="M108.738 182.355C109.08 182.355 109.393 182.535 109.708 182.355C109.807 182.299 109.856 182.054 109.856 181.946C109.856 181.729 109.753 181.761 109.684 181.624" stroke="black" stroke-linecap="round"/>
<path d="M114.418 105.212C113.633 103.469 112.417 101.539 112.274 99.5747C112.234 99.0245 112.246 98.4718 112.246 97.9205C112.246 96.693 111.951 95.4539 111.87 94.2288C111.783 92.927 111.888 91.3588 111.479 90.1323" stroke="black" stroke-linecap="round"/>
<path d="M100.745 98.95C103.048 98.95 105.292 99.4611 107.575 99.4611C108.934 99.4611 110.248 99.9723 111.607 99.9723" stroke="black" stroke-width="5" stroke-linecap="round"/>
<path d="M111.735 99.7167C111.651 94.7276 111.607 89.7464 111.607 84.758C111.607 84.6452 111.615 83.5964 111.351 84.1901C110.962 85.0673 110.304 85.83 109.818 86.6536C109.02 88.0057 107.981 89.2718 106.872 90.3809C106.385 90.8679 104.828 91.6563 104.138 91.531C103.431 91.4023 102.715 91.5334 102.009 91.7298C101.755 91.8002 101.092 92.0689 101.228 91.8434C101.324 91.6822 101.887 91.4531 102.037 91.3535C104.042 90.0168 105.892 88.3847 107.454 86.5471C108.002 85.9022 109.395 83.8 109.051 84.5734C108.611 85.5643 107.848 86.5211 107.234 87.4061C105.568 89.8045 103.912 92.6045 101.611 94.4773C100.674 95.2399 99.8364 96.1799 98.7569 96.7491C98.3226 96.9782 97.7844 97.2887 97.2944 97.2887C96.588 97.2887 95.9344 97.4733 95.2782 97.7005C95.1276 97.7526 94.5494 98.063 95.0226 97.8992C96.294 97.4591 97.5441 96.8572 98.8208 96.4012C100.274 95.8822 101.763 95.4468 103.237 94.9884C104.167 94.6989 105.143 94.5919 106.062 94.2856C107.076 93.9476 108.346 93.4617 109.435 93.5827C109.909 93.6355 110.338 95.4996 109.463 95.4996C104.976 95.4996 100.535 95.2906 96.1443 96.2664" stroke="black" stroke-width="5" stroke-linecap="round"/>
<path d="M98.4445 100.611C98.4445 101.058 98.282 101.464 98.1606 101.889C98.0285 102.351 97.9379 102.934 97.7417 103.366C97.3974 104.123 97.2944 105.089 97.2944 105.915C97.2944 106.892 96.912 108.824 98.0328 109.273C99.228 109.751 100.53 109.853 101.689 110.316C102.008 110.444 100.986 110.368 100.66 110.26C99.569 109.896 97.8807 110.496 97.0104 109.713C96.4727 109.229 94.7146 108.303 95.5053 107.512" stroke="black" stroke-width="5" stroke-linecap="round"/>
<path d="M98.5723 111.601C99.0397 111.975 100.173 111.729 100.752 111.729C101.812 111.729 102.848 111.788 103.904 111.85C105.095 111.92 106.258 112.024 107.447 112.12C109.079 112.25 110.756 112.51 112.374 112.78C112.676 112.83 113.39 112.802 113.623 113.035C113.752 113.164 113.208 113.052 113.141 113.007" stroke="black" stroke-width="5" stroke-linecap="round"/>
<path d="M99.4669 105.851C104.699 105.851 109.93 105.979 115.157 105.979C116.061 105.979 116.965 105.979 117.869 105.979C119.405 105.979 120.861 106.445 122.37 106.646C124.008 106.864 125.562 107.381 127.212 107.541C128.139 107.63 129.039 107.512 129.881 107.512C130.19 107.512 131.033 107.382 131.159 107.129" stroke="black" stroke-width="5" stroke-linecap="round"/>
<path d="M101.512 102.4C101.49 102.4 102.241 102.749 102.427 102.862C103.632 103.591 104.968 104.352 106.297 104.828C106.97 105.07 107.593 105.394 108.284 105.567C109.163 105.786 110.092 106.072 110.996 106.106C111.158 106.113 111.489 106.302 111.131 106.028C110.594 105.618 110.064 105.313 109.435 105.084" stroke="black" stroke-width="5" stroke-linecap="round"/>
<path d="M99.8503 102.017C104.683 102.017 109.566 101.814 114.397 102.024C116.086 102.098 117.881 102.273 119.53 102.273" stroke="black" stroke-width="5" stroke-linecap="round"/>
<path d="M102.789 108.79C104.999 108.79 107.165 109.173 109.378 109.173C111.159 109.173 112.902 109.323 114.674 109.422C116.697 109.534 118.734 109.94 120.751 109.94C122.346 109.94 123.941 109.94 125.536 109.94C126.463 109.94 127.372 109.456 128.22 109.173" stroke="black" stroke-width="5" stroke-linecap="round"/>
<path d="M103.173 114.029C105.861 114.029 108.529 114.285 111.224 114.285C112.65 114.285 113.884 114.144 115.256 113.895C116.344 113.697 117.324 113.432 118.366 113.078C119.127 112.82 119.91 112.628 120.659 112.333C120.819 112.27 121.223 112.296 121.319 112.177C121.421 112.05 122.043 111.867 122.214 111.857C122.755 111.827 122.418 111.881 122.342 111.729" stroke="black" stroke-width="5" stroke-linecap="round"/>
<path d="M115.696 116.458C115.759 116.958 118.995 116.019 119.402 115.847C120.45 115.406 120.959 114.518 121.703 113.774" stroke="black" stroke-width="5" stroke-linecap="round"/>
<path d="M114.721 91.5474C114.721 92.8182 114.695 94.0347 115.101 95.252C115.318 95.9029 115.664 96.524 115.97 97.145C116.546 98.3161 117.402 99.2675 118.338 100.152C118.531 100.334 118.743 100.469 118.941 100.646C119.645 101.276 120.319 102.12 121.174 102.547C121.61 102.765 122.081 103.001 122.564 103.085C122.825 103.13 123.063 103.329 123.325 103.329" stroke="black" stroke-width="5" stroke-linecap="round"/>
<path d="M114.183 99.2715L114.134 99.3204" stroke="black" stroke-width="5" stroke-linecap="round"/>
<path d="M115.894 73.801C115.894 74.1432 115.894 74.4855 115.894 74.8277C115.894 75.0139 115.931 75.2443 115.856 75.4143C115.777 75.5915 115.769 75.8452 115.709 76.039C115.606 76.3747 115.488 76.7094 115.329 77.0276C114.981 77.7226 114.548 78.3614 114.05 78.9641C113.61 79.4964 113.194 80.0367 112.789 80.5964C112.553 80.9245 112.287 81.2403 112.059 81.5714C111.992 81.6688 111.94 81.8157 111.836 81.8675" stroke="black" stroke-width="3" stroke-linecap="round"/>
<path d="M115.209 77.9565C115.209 78.6699 115.209 79.3833 115.209 80.0967C115.209 80.3176 115.239 80.5634 115.199 80.7812C115.176 80.9018 115.112 81.0384 115.112 81.1587C115.112 81.8446 114.962 82.508 114.865 83.1875C114.551 85.3794 114.183 87.6076 114.183 89.8362" stroke="black" stroke-width="3" stroke-linecap="round"/>
<path d="M113.303 81.9653V84.1653" stroke="black" stroke-width="3" stroke-linecap="round"/>
<path d="M116.089 82.7964C116.089 83.1736 116.057 83.3576 115.848 83.6546C115.6 84.0058 115.465 84.4307 115.353 84.8225C115.248 85.1928 115.258 85.5788 115.258 85.9741C115.258 86.5437 115.205 87.1354 115.123 87.696C115.023 88.3688 115.063 88.9822 115.063 89.6434C115.063 89.9079 115.161 90.166 115.161 90.4229C115.161 90.5128 115.211 90.7563 115.283 90.814C115.402 90.9092 115.393 91.1226 115.527 91.2268C115.666 91.3344 115.602 91.1487 115.601 91.0258C115.597 90.7352 115.519 90.4628 115.503 90.1784C115.486 89.8858 115.209 89.649 115.209 89.3473" stroke="black" stroke-width="3" stroke-linecap="round"/>
<path d="M115.209 90.5696C115.209 91.1963 115.025 92.1393 115.378 92.6935C115.552 92.9672 115.673 93.3259 115.924 93.5572C116.077 93.6987 116.2 93.9053 116.334 94.0678C116.589 94.3778 116.443 93.9286 116.372 93.7745C115.975 92.9153 115.803 91.9668 115.416 91.1074C115.308 90.8668 115.118 90.6556 115.017 90.4012C114.918 90.1558 114.768 89.8862 114.829 89.6109C114.866 89.4471 114.933 88.9691 115.139 88.9101C115.17 88.9011 115.367 88.9074 115.307 88.9074" stroke="black" stroke-width="3" stroke-linecap="round"/>
<path d="M115.503 90.374C115.503 90.7497 115.503 91.1254 115.503 91.5012C115.503 92.1872 115.913 92.9464 116.193 93.5463C116.423 94.0401 116.802 94.4703 117.127 94.907C117.693 95.6697 118.353 96.384 118.879 97.1721C119.058 97.4408 119.3 97.6804 119.533 97.9027C119.783 98.1407 120.056 98.4754 120.392 98.5871" stroke="black" stroke-width="3" stroke-linecap="round"/>
<path d="M123.129 101.178C122.908 101.129 122.626 100.724 122.472 100.57C122.119 100.217 121.722 99.9181 121.369 99.565C121.132 99.3276 120.887 99.1176 120.587 98.9674C120.42 98.8841 120.229 98.7668 120.098 98.6361C119.91 98.4483 119.706 98.172 119.607 97.9245C119.557 97.8011 119.398 97.3524 119.292 97.2672C119.213 97.2044 119.112 96.8733 119.072 96.7675C118.964 96.4884 118.849 96.1161 118.632 95.8984C118.008 95.2745 117.511 94.7049 117.105 93.894C116.962 93.608 116.687 93.5565 116.529 93.2802C116.449 93.1397 115.89 92.454 116.138 92.3296" stroke="black" stroke-width="3" stroke-linecap="round"/>
<path d="M116.276 91.483C116.339 91.475 116.423 91.4092 116.483 91.3828C116.556 91.3508 116.626 91.3542 116.703 91.3542C116.728 91.3542 116.732 91.3522 116.701 91.3549C116.668 91.3578 116.638 91.3717 116.606 91.3809C116.527 91.4038 116.337 91.4154 116.287 91.4895C116.266 91.5212 116.344 91.5924 116.357 91.5649" stroke="black" stroke-width="3" stroke-linecap="round"/>
<path d="M116.51 93.3202C116.66 93.3202 116.812 93.2129 116.917 93.1121C116.928 93.1009 116.983 93.0507 116.978 93.051C116.957 93.0522 116.904 93.0822 116.896 93.0978" stroke="black" stroke-width="3" stroke-linecap="round"/>
<path d="M120.383 97.521C120.424 97.521 120.465 97.521 120.506 97.521C120.525 97.521 120.44 97.5327 120.418 97.5327" stroke="black" stroke-width="3" stroke-linecap="round"/>
<path d="M124.761 104.257C124.785 104.23 124.786 104.229 124.828 104.229C124.948 104.229 125.069 104.229 125.19 104.229C125.315 104.229 125.441 104.229 125.566 104.229C125.701 104.229 125.833 104.243 125.967 104.243C126.314 104.244 126.637 104.236 126.972 104.332C127.22 104.403 127.477 104.443 127.726 104.51C127.87 104.548 127.99 104.58 128.14 104.58" stroke="black" stroke-width="3" stroke-linecap="round"/>
<path d="M124.326 101.775C124.402 101.775 124.387 101.79 124.424 101.845" stroke="black" stroke-width="3" stroke-linecap="round"/>
<path d="M124.312 103.163H125.252" stroke="black" stroke-width="3" stroke-linecap="round"/>
<path d="M125.939 103.528H126.051" stroke="black" stroke-width="3" stroke-linecap="round"/>
<path d="M126.051 103.528C126.051 103.478 126.05 103.443 126.023 103.402" stroke="black" stroke-width="3" stroke-linecap="round"/>
<path d="M126.934 104.005C126.934 103.978 126.952 103.97 126.962 103.949" stroke="black" stroke-width="3" stroke-linecap="round"/>
<path d="M127.523 104.215V104.201" stroke="black" stroke-width="3" stroke-linecap="round"/>
<path d="M131.969 106.01C132.117 106.01 132.209 105.887 132.323 105.8C132.617 105.576 132.958 105.429 133.267 105.233C133.358 105.175 133.455 105.122 133.547 105.063C133.621 105.016 133.695 104.944 133.778 104.917" stroke="black" stroke-width="3" stroke-linecap="round"/>
<path d="M133.848 106.711C133.86 106.607 133.974 106.526 133.974 106.417" stroke="black" stroke-width="3" stroke-linecap="round"/>
<path d="M127.355 104.818C128.15 104.818 128.946 104.832 129.739 104.832C129.916 104.832 130.093 104.882 130.27 104.902C130.531 104.931 130.811 104.913 131.068 104.984C131.225 105.027 131.405 105.015 131.568 105.015C131.664 105.015 131.76 105.015 131.856 105.015C131.902 105.015 132.093 104.992 132.109 104.959" stroke="black" stroke-width="3" stroke-linecap="round"/>
<path d="M133.89 104.86C134.052 104.86 134.214 104.86 134.376 104.86C134.547 104.86 135.058 104.79 134.886 104.79" stroke="black" stroke-width="3" stroke-linecap="round"/>
<path d="M156.236 114.627C156.236 112.29 156.2 110.084 156.921 107.825C157.337 106.523 157.913 105.354 158.445 104.114C159.079 102.635 161.274 102.229 162.602 101.698" stroke="black" stroke-width="3" stroke-linecap="round"/>
<path d="M161.231 97.8782C161.099 98.8031 160.209 99.7564 159.707 100.523C159.374 101.031 159.069 101.554 158.706 102.046C158.403 102.457 158.14 103.309 157.705 103.581C157.19 103.903 156.676 104.921 156.333 105.42C155.641 106.431 154.75 107.26 153.863 108.086C153.327 108.585 152.649 108.966 152.067 109.414C151.469 109.876 150.934 110.533 150.261 110.883C149.217 111.426 148.146 112.08 146.931 112.08" stroke="black" stroke-width="7" stroke-linecap="round"/>
<path d="M144.09 114.333C144.183 114.753 145.254 114.725 145.581 114.725C146.385 114.725 147.154 114.431 147.948 114.431C148.432 114.431 148.917 114.431 149.401 114.431C150.243 114.431 151.084 114.431 151.926 114.431C152.692 114.431 153.445 114.235 154.211 114.235C155.394 114.235 156.548 113.954 157.71 113.838C158.954 113.714 160.192 113.477 161.432 113.305C162.761 113.12 164.148 113.005 165.443 112.69C165.607 112.65 166.188 112.446 166.128 112.521C165.953 112.74 165.381 112.808 165.149 112.864C164.5 113.02 163.867 113.235 163.222 113.408C162.208 113.68 161.292 114.039 160.251 114.039" stroke="black" stroke-width="7" stroke-linecap="round"/>
<path d="M155.452 115.704C155.991 115.704 156.378 115.731 156.823 115.509" stroke="black" stroke-width="7" stroke-linecap="round"/>
<path d="M158.978 114.823C160.454 114.823 161.922 114.809 163.386 114.725C163.76 114.703 164.189 114.26 164.414 113.985C164.99 113.281 165.404 112.462 165.954 111.743C166.398 111.162 167.073 110.779 167.684 110.404C167.818 110.322 168.208 110.264 168.283 110.17C168.478 109.927 169.023 109.835 169.284 109.632C169.705 109.305 170.013 108.881 170.389 108.505C170.966 107.928 171.508 107.354 172.103 106.791C172.392 106.518 173.082 106.596 173.082 106.252C173.082 105.844 173.082 105.436 173.082 105.028" stroke="black" stroke-width="7" stroke-linecap="round"/>
<path d="M165.345 114.235C167.09 114.235 168.523 113.548 169.703 112.276C170.029 111.926 170.319 111.688 170.574 111.264C170.773 110.932 170.88 110.588 171.123 110.274C171.431 109.876 171.704 109.493 171.809 108.995C171.864 108.733 172.062 108.183 172.299 108.064" stroke="black" stroke-width="7" stroke-linecap="round"/>
<path d="M156.725 104.538C159.239 104.538 161.753 104.538 164.267 104.538C165.015 104.538 166.078 104.768 166.716 104.343" stroke="black" stroke-width="7" stroke-linecap="round"/>
<path d="M157.019 108.848H164.757" stroke="black" stroke-width="7" stroke-linecap="round"/>
<path d="M155.452 91.7073C155.452 93.1438 155.452 94.5804 155.452 96.0169C155.452 96.8128 155.123 97.2618 154.766 97.9759C153.318 100.872 150.977 103.205 149.145 105.85C148.327 107.031 146.625 107.339 145.51 108.206C145.192 108.454 144.868 108.71 144.531 108.897C144.367 108.988 144.218 109 144.047 109.049C143.845 109.107 143.948 109.36 143.796 109.436" stroke="black" stroke-width="7" stroke-linecap="round"/>
<path d="M160.447 92.0991C162.363 92.0991 163.484 93.0531 164.877 94.3301C165.34 94.7546 165.839 95.261 166.15 95.8211C166.484 96.4231 167.162 96.8192 167.521 97.3883C167.787 97.809 168.309 98.2089 168.724 98.4711C169.124 98.7239 169.421 99.0996 169.85 99.3254C170.402 99.6156 170.813 100.168 171.243 100.599C172.021 101.376 172.983 102.38 173.474 103.363" stroke="black" stroke-width="7" stroke-linecap="round"/>
<path d="M162.798 101.796C162.823 101.595 163.863 101.698 164.071 101.698" stroke="black" stroke-width="7" stroke-linecap="round"/>
<path d="M170.144 96.0172C170.094 95.6146 169.59 95.525 169.458 95.9192" stroke="black" stroke-width="7" stroke-linecap="round"/>
<path d="M117.155 68.2C117.155 67.4853 117.155 66.7707 117.155 66.056C117.155 65.1762 117.359 64.959 117.982 64.3365C119.262 63.0558 120.588 61.8892 122.03 60.7995C124.147 59.2005 126.141 57.4566 128.244 55.8423C129.867 54.5975 132.098 54.5971 134.029 54.2425C136.167 53.8498 138.335 53.8018 140.51 53.8018C141.396 53.8018 142.882 53.508 143.622 54.1174C144.265 54.6468 145.079 55.0521 145.772 55.5267C147.094 56.4326 148.347 57.7489 149.085 59.1888C149.527 60.0503 150.035 60.8702 150.495 61.7191C150.811 62.3035 150.978 62.9602 151.191 63.5856C151.34 64.0226 151.73 64.67 151.73 65.1636" stroke="black" stroke-width="7" stroke-linecap="round"/>
<path d="M117.155 68.3961C119.124 68.3961 121.228 68.5927 123.178 68.2927C123.874 68.1857 124.38 67.8074 124.99 67.5363C125.56 67.2833 126.211 67.3103 126.797 67.0466C128.423 66.3148 130.261 65.9457 131.7 64.8264C131.929 64.6481 132.279 64.5785 132.532 64.4238C133.654 63.7383 134.712 62.9702 135.797 62.2254C137.927 60.7636 140.166 59.5817 142.229 58.0137" stroke="black" stroke-width="7" stroke-linecap="round"/>
<path d="M121.66 64.1843C122.628 64.1843 123.6 63.7504 124.522 63.4987C125.87 63.1312 127.226 62.7392 128.56 62.3288C129.67 61.9872 131.106 61.9227 132.119 61.3439C133.786 60.3911 135.328 58.98 137.234 58.5034" stroke="black" stroke-width="7" stroke-linecap="round"/>
<path d="M119.505 58.9932C120.284 58.7706 120.974 58.3077 121.736 58.0355C122.575 57.7359 123.414 57.4362 124.25 57.1322C125.801 56.5682 127.336 56.2541 128.712 55.2712C129.113 54.9853 129.505 54.7951 129.942 54.5638C130.372 54.3361 130.864 53.7799 131.357 53.7095C132.932 53.4844 133.222 53.5081 133.909 53.5081C138.026 53.5081 142.219 52.9968 146.169 54.3135C146.966 54.5791 147.859 54.6579 148.585 55.1243C148.893 55.3227 149.651 55.6427 149.847 55.9568C150.09 56.3448 150.506 56.4123 150.653 56.9254C150.751 57.2707 151.006 57.6469 151.142 57.9919C151.242 58.2451 151.293 58.5832 151.436 58.7973" stroke="black" stroke-width="7" stroke-linecap="round"/>
<path d="M128.001 56.7368C128.001 56.2033 127.782 55.6962 127.782 55.1768C127.782 55.1356 127.712 55.0561 127.757 55.043C127.879 55.0082 127.935 54.927 128.031 54.8484C128.149 54.7516 128.336 54.5474 128.493 54.5474" stroke="black" stroke-width="7" stroke-linecap="round"/>
<path d="M146.72 53.8906C146.72 53.589 146.704 53.3222 146.83 53.0696" stroke="black" stroke-width="7" stroke-linecap="round"/>
<path d="M142.177 52.4128V53.0697" stroke="black" stroke-width="7" stroke-linecap="round"/>
<path d="M143.381 51.975C143.387 51.9239 143.409 51.9063 143.436 51.8655" stroke="black" stroke-width="7" stroke-linecap="round"/>
<path d="M134.022 53.0148C133.986 53.0103 133.941 52.9771 133.976 52.9357C134.055 52.8437 134.483 52.9053 134.563 52.9053C135.121 52.9053 135.534 52.8969 136.053 52.7654C136.608 52.6247 137.147 52.5769 137.716 52.5769C138.236 52.5769 138.756 52.5769 139.276 52.5769" stroke="black" stroke-width="7" stroke-linecap="round"/>
<path d="M150.497 56.5726C150.497 56.2579 150.552 56.0051 150.552 55.6968C150.552 55.4623 150.417 55.2843 150.284 55.0886C150.116 54.8419 149.713 54.5501 149.621 54.2737" stroke="black" stroke-width="7" stroke-linecap="round"/>
<path d="M154.821 74.6903C154.821 73.1194 154.42 71.5307 154.055 70.0074C153.941 69.5305 153.841 69.0304 153.754 68.5477C153.644 67.9361 153.631 67.3186 153.508 66.7111C153.235 65.3635 153.398 63.9063 153.398 62.539C153.398 61.9408 153.347 61.3414 152.948 60.8543C152.575 60.3986 152.198 59.795 151.987 59.2427C151.894 58.9985 151.87 58.6715 151.713 58.4764C151.564 58.2896 151.45 57.8984 151.373 57.6675" stroke="black" stroke-width="7" stroke-linecap="round"/>
<path d="M132.708 64.9473C134.762 64.9473 136.678 64.1299 138.686 63.8952C140.182 63.7204 141.665 63.6337 143.175 63.6337C145.061 63.6337 146.986 63.5506 148.855 63.8496C149.006 63.8737 149.77 63.9301 149.84 64.0715" stroke="black" stroke-width="7" stroke-linecap="round"/>
<path d="M144.038 61.4442C144.051 61.3404 144.933 61.0882 145.036 61.0489C145.618 60.8253 146.226 60.6712 146.83 60.5137" stroke="black" stroke-width="7" stroke-linecap="round"/>
<path d="M134.624 65.9326C134.64 66.0667 137.692 65.9874 138.175 65.9874C139.904 65.9874 141.6 66.2386 143.242 66.8206C144.145 67.1408 145.084 67.4144 145.954 67.8058C146.145 67.8919 146.36 67.8979 146.556 67.97C146.884 68.0907 147.192 68.2884 147.484 68.4778C147.996 68.8106 148.362 69.4357 148.8 69.8736" stroke="black" stroke-width="3" stroke-linecap="round"/>
<path d="M127.257 69.8045C127.225 69.8457 127.391 69.9029 127.423 69.9099C127.508 69.9289 127.634 69.9081 127.715 69.8914C127.886 69.8563 128.051 69.7982 128.223 69.7648C128.331 69.7437 128.44 69.7158 128.546 69.686C128.782 69.6196 129.02 69.5709 129.259 69.5129C129.475 69.4603 129.681 69.3661 129.887 69.2847C130.202 69.1605 130.488 68.9655 130.776 68.7898C130.958 68.6791 131.153 68.5946 131.332 68.4798C131.421 68.4227 131.517 68.3832 131.612 68.3384C131.699 68.2978 131.793 68.2694 131.877 68.2272C132.099 68.1165 132.337 68.0335 132.559 67.9224" stroke="black" stroke-width="3" stroke-linecap="round"/>
<path d="M133.314 67.7103C133.692 67.7103 134.069 67.7103 134.446 67.7103C134.718 67.7103 134.976 67.667 135.245 67.6278C135.684 67.5639 136.122 67.538 136.565 67.538C137.068 67.538 137.571 67.538 138.074 67.538C138.869 67.538 139.665 67.5215 140.459 67.482C140.555 67.4772 140.649 67.4717 140.745 67.4717C141.021 67.4717 141.297 67.4717 141.572 67.4717" stroke="black" stroke-width="3" stroke-linecap="round"/>
<path d="M136.92 68.6645C136.92 68.8232 136.878 68.9443 136.83 69.099C136.803 69.1868 136.806 69.2881 136.794 69.3788C136.76 69.6237 136.758 69.8751 136.714 70.1189C136.704 70.1748 136.698 70.1962 136.747 70.2183C136.788 70.2365 136.827 70.2565 136.87 70.2713C136.958 70.302 137.074 70.2965 137.166 70.2941C137.56 70.2839 137.976 70.0437 138.292 69.8243C138.707 69.5357 139.076 69.1722 139.516 68.9178C139.655 68.8371 139.79 68.7448 139.939 68.6807C140.153 68.5886 140.379 68.5241 140.605 68.4701C140.909 68.3973 141.217 68.3707 141.527 68.325C141.813 68.2828 142.098 68.2373 142.384 68.1947C142.509 68.1761 142.642 68.1741 142.768 68.1741C143.138 68.1741 143.508 68.1741 143.879 68.1741" stroke="black" stroke-width="3" stroke-linecap="round"/>
<path d="M145.429 68.6646C145.699 68.6646 145.995 68.6332 146.243 68.7596C146.401 68.8398 146.544 68.9811 146.671 69.1005C146.915 69.3298 147.156 69.5704 147.361 69.8354C147.607 70.1537 147.824 70.4933 148.083 70.8016C148.387 71.1625 148.701 71.5256 149.035 71.859" stroke="black" stroke-width="3" stroke-linecap="round"/>
<path d="M151.111 76.774C151.04 76.7669 150.994 76.7053 150.955 76.6509C150.82 76.463 150.684 76.2767 150.547 76.0906C150.18 75.5933 149.767 75.15 149.458 74.6088C149.183 74.126 148.952 73.5921 148.822 73.0496C148.646 72.321 148.617 71.5542 148.591 70.8083C148.57 70.2068 148.571 69.6061 148.571 69.0043C148.571 68.4803 148.538 67.9441 148.596 67.4229C148.598 67.409 148.62 67.1632 148.621 67.1863C148.629 67.3414 148.754 67.5041 148.819 67.6332C149.158 68.3016 149.508 68.9974 149.728 69.7154C149.931 70.3764 150.048 71.065 150.229 71.7325C150.374 72.266 150.526 72.8654 150.89 73.2987C150.904 73.3155 151.021 73.4562 151.037 73.4218C151.65 72.0428 152.349 70.6939 153.057 69.3612C153.447 68.6249 153.809 67.891 154.285 67.2029C154.573 66.7869 154.966 66.4621 155.364 66.157C155.549 66.0155 155.825 65.8167 156.067 65.8167" stroke="black" stroke-width="3" stroke-linecap="round"/>
<path d="M150.29 77.0978C150.274 77.22 149.91 76.9408 149.879 76.9221C149.588 76.751 149.356 76.3913 149.18 76.1155C149.039 75.8942 148.916 75.6577 148.79 75.4237C148.597 75.0661 148.501 74.6726 148.378 74.2893C148.323 74.1186 148.25 74.0477 148.135 73.9212C147.932 73.6964 147.787 73.4237 147.637 73.1631C147.502 72.9271 147.35 72.6371 147.301 72.3662C147.244 72.0522 147.251 71.7425 147.251 71.4199C147.251 71.3661 147.26 71.3243 147.227 71.2829C147.208 71.2596 147.178 71.2816 147.157 71.2649C147.146 71.2561 147.091 71.1994 147.08 71.2137C147.041 71.2623 147.077 71.468 147.077 71.5305C147.077 71.6468 147.077 71.763 147.077 71.8792C147.077 72.2687 147.07 72.7034 147.182 73.069C147.245 73.2744 147.302 73.5301 147.438 73.6971C147.543 73.8246 147.671 73.9563 147.787 74.072C147.899 74.1839 147.974 74.3056 147.974 74.4636C147.974 74.682 148.087 74.822 148.148 75.0059" stroke="black" stroke-width="3" stroke-linecap="round"/>
<path d="M156.964 79.7872C156.964 79.5163 156.9 79.2266 156.789 78.9778C156.541 78.42 156.107 77.9435 155.893 77.3716" stroke="black" stroke-width="3" stroke-linecap="round"/>
<path d="M155.868 79.6129C155.803 79.6056 155.71 79.4803 155.663 79.433C155.565 79.3351 155.469 79.2363 155.392 79.1204C155.301 78.9838 155.234 78.8241 155.14 78.6915C155.089 78.619 154.986 78.5759 154.947 78.5061C154.912 78.4463 154.78 78.3728 154.722 78.3373C154.534 78.2221 154.322 78.0887 154.163 77.9305C154.024 77.791 153.871 77.6569 153.714 77.5349C153.621 77.4628 153.551 77.3789 153.427 77.3716C153.385 77.3691 153.308 77.3201 153.267 77.2969C153.227 77.2741 153.17 77.2703 153.134 77.2416C153.058 77.1803 152.944 77.1664 152.885 77.0728C152.858 77.0301 152.799 77.0045 152.78 76.9607C152.74 76.8702 152.7 76.7712 152.68 76.6743" stroke="black" stroke-width="3" stroke-linecap="round"/>
<path d="M151.435 77.7203C151.709 77.7203 151.983 77.7203 152.257 77.7203C152.378 77.7203 152.494 77.7143 152.611 77.7508C152.725 77.786 152.848 77.766 152.96 77.8006C153.102 77.8443 153.252 77.8947 153.403 77.8947" stroke="black" stroke-width="3" stroke-linecap="round"/>
<path d="M158.483 89.4995C158.483 89.2557 158.478 89.0154 158.433 88.7746C158.378 88.48 158.244 88.2067 158.138 87.9279C157.942 87.4107 157.748 86.8911 157.65 86.3451C157.572 85.9121 157.53 85.4785 157.499 85.0405C157.444 84.2636 157.387 83.4799 157.387 82.701C157.387 82.5718 157.317 82.412 157.289 82.2873C157.25 82.1141 157.213 81.9077 157.213 81.7297" stroke="black" stroke-width="3" stroke-linecap="round"/>
<path d="M163.14 90.919C163.14 90.7358 162.927 90.5446 162.824 90.4099C162.566 90.0726 162.25 89.7626 161.965 89.4483C161.375 88.7975 160.729 88.208 160.149 87.5488C159.951 87.3249 159.738 87.0474 159.591 86.7865C159.511 86.6451 159.331 86.5218 159.216 86.4088C159.158 86.3517 159.072 86.2654 158.995 86.2372C158.791 86.1632 158.688 86.234 158.577 86.4171C158.462 86.6052 158.328 86.7803 158.214 86.9677C158.134 87.1012 158.019 87.1866 157.924 87.308C157.805 87.459 157.631 87.5914 157.477 87.7051C157.262 87.8644 157.073 88.0691 156.87 88.2433C156.548 88.5185 156.236 88.7938 155.887 89.0264C155.741 89.124 155.655 89.1509 155.482 89.1509C155.446 89.1509 155.277 89.1622 155.334 89.0886C155.377 89.0334 155.409 88.9667 155.456 88.9157C155.548 88.8152 155.63 88.6669 155.644 88.5283C155.652 88.4453 155.735 88.3658 155.768 88.2917C155.809 88.2011 155.889 88.1177 155.937 88.0302C155.97 87.9712 155.973 87.9009 156.005 87.8435C156.068 87.7291 156.11 87.5143 156.117 87.3828C156.125 87.2445 156.228 87.198 156.329 87.1199C156.392 87.0706 156.452 86.9581 156.529 86.9359C156.62 86.91 156.749 86.9345 156.845 86.9345C156.982 86.9345 157.055 86.81 157.188 86.81" stroke="black" stroke-width="3" stroke-linecap="round"/>
<path d="M141.748 108.376C141.748 107.634 141.698 106.896 141.698 106.154C141.698 105.936 141.641 105.7 141.785 105.525C142.026 105.233 142.322 104.988 142.55 104.685C142.869 104.262 143.22 103.866 143.56 103.461C144.584 102.241 145.843 101.236 147.088 100.252C147.623 99.8292 148.156 99.4008 148.675 98.9586C149.071 98.6212 149.483 98.2968 149.864 97.9417C150.282 97.5506 150.64 97.106 151.012 96.6716" stroke="black" stroke-width="3" stroke-linecap="round"/>
<path d="M144.761 104.516C146.943 103.113 148.9 101.337 150.788 99.5603" stroke="black" stroke-width="3" stroke-linecap="round"/>
<path d="M140.403 104.74C140.457 104.642 140.746 104.297 140.647 104.198C140.569 104.121 140.428 103.869 140.566 103.806C140.757 103.72 140.952 103.591 141.117 103.459C141.361 103.265 141.562 103.007 141.828 102.842C142.024 102.72 142.201 102.57 142.393 102.442C142.599 102.304 142.799 102.154 143.004 102.013C143.144 101.918 143.246 101.779 143.38 101.677C143.619 101.496 143.844 101.286 144.1 101.129C144.572 100.839 145.059 100.536 145.486 100.18C146.009 99.7442 146.546 99.3241 147.052 98.8687C147.436 98.5239 147.839 98.2042 148.267 97.9168C148.549 97.7278 148.829 97.539 149.121 97.3689C149.283 97.2741 149.482 97.252 149.655 97.1808C149.838 97.1053 150.017 97.0242 150.187 96.9221C150.547 96.7061 150.901 96.4797 151.266 96.2732C151.386 96.2053 151.512 96.143 151.634 96.0795C151.719 96.0353 151.795 95.9539 151.883 95.9246" stroke="black" stroke-width="3" stroke-linecap="round"/>
<path d="M148.198 96.9206C148.55 96.6162 148.909 96.3175 149.258 96.0089C149.329 95.9456 149.401 95.8765 149.48 95.8235C149.563 95.7681 149.581 95.6515 149.667 95.6063C150.136 95.3592 150.558 94.9261 150.882 94.5105C151.264 94.0196 151.529 93.4535 151.859 92.9306C151.982 92.735 152.02 92.497 152.113 92.2886C152.269 91.9371 152.406 91.6127 152.406 91.2178C152.406 91.1567 152.409 90.9872 152.444 90.9452C152.498 90.8804 152.53 90.894 152.631 90.894C152.776 90.894 152.915 90.8442 153.054 90.8442" stroke="black" stroke-width="3" stroke-linecap="round"/>
<path d="M152.655 90.8444C152.6 90.8374 152.556 90.6444 152.531 90.695" stroke="black" stroke-width="3" stroke-linecap="round"/>
</svg>
